<?xml version="1.0" ?><svg id="Layer_1" style="enable-background:new 0 0 128 128;" version="1.1" viewBox="0 0 128 128" xml:space="preserve" xmlns="http://www.w3.org/2000/svg" xmlns:xlink="http://www.w3.org/1999/xlink"><style type="text/css">
	.st0{fill:#191919;}
	.st1{fill:#5F5F5F;}
	.st2{fill:#D7E7F1;}
	.st3{fill:#DB2626;}
	.st4{fill:#FFFFFF;}
	.st5{fill:#BF1313;}
	.st6{fill:#330C03;}
	.st7{fill:#C64309;}
	.st8{fill:#912200;}
	.st9{fill:#1D1D26;}
	.st10{fill:#FD01FD;}
	.st11{fill:#9900CC;}
	.st12{fill:#9494F5;}
	.st13{fill:#E25F3B;}
	.st14{fill:#CC4627;}
	.st15{fill:#69D240;}
	.st16{fill:#565656;}
	.st17{fill:#F2D313;}
	.st18{fill:#D7E6F0;}
	.st19{fill:#666666;}
	.st20{fill:#7B7B7B;}
	.st21{fill:#262C3A;}
	.st22{fill:#A46637;}
	.st23{fill:#7F340A;}
	.st24{fill:#62C60A;}
	.st25{fill:#54A307;}
	.st26{fill:#E01931;}
</style><g><path class="st0" d="M56.7,45.5l-9.4-3.2l1-15.1c0-0.3-0.1-0.7-0.4-0.9l-10.1-7c-0.5-0.3-1.1-0.2-1.4,0.3c-0.3,0.5-0.2,1.1,0.3,1.4   l9.6,6.7l-1,15.3c0,0.4,0.2,0.9,0.7,1l7.9,2.7L46,48.3L37.4,47c-0.5-0.1-1.1,0.3-1.1,0.8c-0.1,0.5,0.3,1.1,0.8,1.1l8.8,1.4   c0.1,0,0.1,0,0.2,0c0.1,0,0.1,0,0.2,0l9.6-2.1c0.4-0.1,0.7-0.4,0.8-0.8c0.3-0.1,0.6-0.3,0.8-0.6C57.5,46.2,57.2,45.7,56.7,45.5z"/><path class="st0" d="M49,73l-8.2,7.2c-0.3,0.2-0.4,0.6-0.3,1L42,87l-5.7,4.5c-0.4,0.3-0.5,1-0.2,1.4c0.2,0.2,0.5,0.4,0.8,0.4   c0.2,0,0.4-0.1,0.6-0.2l6.2-4.9c0.3-0.2,0.4-0.6,0.3-1l-1.5-5.8l7.7-6.8c0.4-0.4,0.5-1,0.1-1.4C50.1,72.7,49.5,72.7,49,73z"/><path class="st0" d="M82.1,50.4c0.1,0,0.1,0,0.2,0l8.8-1.4c0.5-0.1,0.9-0.6,0.8-1.1c-0.1-0.5-0.6-0.9-1.1-0.8l-8.6,1.4l-7.9-1.8   l7.9-2.7c0.4-0.1,0.7-0.6,0.7-1l-1-15.3l9.6-6.7c0.5-0.3,0.6-0.9,0.3-1.4c-0.3-0.5-0.9-0.6-1.4-0.3l-10.1,7   c-0.3,0.2-0.5,0.5-0.4,0.9l1,15.1l-9.4,3.2c-0.5,0.2-0.8,0.8-0.6,1.3c0.1,0.4,0.4,0.6,0.8,0.6c0.1,0.4,0.4,0.7,0.8,0.8l9.6,2.1   C81.9,50.4,82,50.4,82.1,50.4z"/><path class="st0" d="M91.7,91.5L86.1,87l1.5-5.8c0.1-0.4,0-0.8-0.3-1L79,73c-0.4-0.4-1-0.3-1.4,0.1s-0.3,1,0.1,1.4l7.7,6.8L84,87.1   c-0.1,0.4,0,0.8,0.3,1l6.2,4.9c0.2,0.1,0.4,0.2,0.6,0.2c0.3,0,0.6-0.1,0.8-0.4C92.2,92.5,92.1,91.9,91.7,91.5z"/></g><path class="st2" d="M53.8,51.4c0,0-10.4-0.3-31,1.9c-41,4.4,0.9,31.6,16.1,21.4C41.2,73.2,50.9,60.3,53.8,51.4z"/><path class="st2" d="M74.3,51.4c0,0,10.4-0.3,31,1.9c41,4.4-0.9,31.6-16.1,21.4C86.9,73.2,77.2,60.3,74.3,51.4z"/><path class="st3" d="M70.9,44.8c2.2-1,3.8-3.2,3.8-5.7c0-3.4-2.8-6.2-6.2-6.2c-1.7,0-3.2,0.7-4.3,1.8c-1.1-1.1-2.7-1.8-4.3-1.8  c-3.4,0-6.2,2.8-6.2,6.2c0,2.6,1.5,4.8,3.8,5.7"/><ellipse class="st1" cx="64" cy="75.9" rx="14.2" ry="35"/></svg>