<?xml version="1.0" encoding="UTF-8" standalone="no"?>
<!-- Created with Inkscape (http://www.inkscape.org/) -->

<svg
   xmlns:dc="http://purl.org/dc/elements/1.1/"
   xmlns:cc="http://creativecommons.org/ns#"
   xmlns:rdf="http://www.w3.org/1999/02/22-rdf-syntax-ns#"
   xmlns:svg="http://www.w3.org/2000/svg"
   xmlns="http://www.w3.org/2000/svg"
   xmlns:sodipodi="http://sodipodi.sourceforge.net/DTD/sodipodi-0.dtd"
   xmlns:inkscape="http://www.inkscape.org/namespaces/inkscape"
   width="210mm"
   height="297mm"
   viewBox="0 0 744.09448819 1052.3622047"
   id="svg2"
   version="1.1"
   inkscape:version="0.91 r13725"
   sodipodi:docname="Froggy.svg">
  <defs
     id="defs4" />
  <sodipodi:namedview
     id="base"
     pagecolor="#ffffff"
     bordercolor="#666666"
     borderopacity="1.0"
     inkscape:pageopacity="0.0"
     inkscape:pageshadow="2"
     inkscape:zoom="0.7"
     inkscape:cx="154.61131"
     inkscape:cy="548.6277"
     inkscape:document-units="px"
     inkscape:current-layer="layer1"
     showgrid="false"
     inkscape:window-width="1920"
     inkscape:window-height="1053"
     inkscape:window-x="-9"
     inkscape:window-y="-9"
     inkscape:window-maximized="1" />
  <metadata
     id="metadata7">
    <rdf:RDF>
      <cc:Work
         rdf:about="">
        <dc:format>image/svg+xml</dc:format>
        <dc:type
           rdf:resource="http://purl.org/dc/dcmitype/StillImage" />
        <dc:title></dc:title>
      </cc:Work>
    </rdf:RDF>
  </metadata>
  <g
     inkscape:label="Layer 1"
     inkscape:groupmode="layer"
     id="layer1">
    <circle
       style="fill:#00ff00;fill-opacity:1"
       id="path3336"
       cx="375.71429"
       cy="508.07648"
       r="175.71428" />
    <path
       style="fill:#00ff00;fill-opacity:1"
       id="path3346"
       d="m 322.67787,612.29359 c -9.42254,7.38308 -18.426,15.28006 -27.75166,22.7933 -6.85405,5.34648 -12.79524,11.71618 -19.30646,17.47623 -6.58819,5.67602 -12.28269,12.11553 -17.52828,19.01617 -4.17083,6.12805 -9.75671,11.04377 -13.4385,17.50281 -1.85419,4.73939 -3.28024,9.70511 -4.46954,14.66213 -1.05809,5.03141 -0.88401,10.18313 -1.84933,15.22456 -1.08946,5.13229 -2.95697,10.01917 -4.00122,15.16503 -0.95017,5.49491 -1.04608,11.08383 -1.13073,16.64474 -0.0499,5.71158 -0.0241,11.42349 -0.0129,17.13518 0.20184,5.86073 -1.17129,11.60346 -1.93901,17.38156 -0.39194,3.73825 -0.22078,1.86713 -0.51354,5.61335 0,0 -37.97316,19.0217 -37.97316,19.0217 l 0,0 c 0.23033,-3.8768 0.092,-1.93834 0.41522,-5.81535 0.63106,-5.65788 2.04506,-11.23342 2.17165,-16.91237 -0.0106,-5.72868 -0.0332,-11.45741 -0.0133,-17.18609 0.0461,-5.7593 0.0912,-11.53635 0.81089,-17.2596 0.80014,-5.26389 2.35873,-10.23641 3.87801,-15.30106 1.25463,-5.01985 1.33846,-10.03855 1.88181,-15.18152 0.94226,-5.34952 2.87904,-10.38777 4.09413,-15.66863 3.17737,-7.51444 6.00299,-8.9801 10.86158,-14.85444 0.88492,-1.06993 1.56185,-2.29606 2.34278,-3.44409 5.33412,-7.02128 10.60616,-13.96075 17.26597,-19.81966 3.3485,-2.93275 6.8607,-5.75767 10.07065,-8.8421 2.05991,-1.97936 3.70617,-4.36564 5.79722,-6.31208 1.03625,-0.96458 2.25295,-1.71498 3.37943,-2.57248 9.53857,-7.17912 18.52495,-15.01574 27.56293,-22.80033 0,0 39.39538,-15.66696 39.39538,-15.66696 z"
       inkscape:connector-curvature="0" />
    <path
       style="fill:#00ff00;fill-opacity:1"
       id="path3348"
       d="m 494.84937,596.86662 c 11.75622,7.30311 21.38766,17.10017 31.07373,26.83382 10.75533,11.34544 20.52025,23.59675 29.90129,36.08942 6.07584,7.92114 10.45835,16.79414 14.97638,25.61869 2.83023,4.89598 3.84064,10.4536 5.57858,15.75842 1.20656,5.5663 3.31529,10.84103 5.0915,16.23645 2.1133,5.89493 2.21548,12.17507 3.23327,18.27396 1.3017,5.02241 2.03736,10.13268 2.44711,15.29638 0.10995,3.9037 0.88523,7.73007 1.23852,11.61278 0,0 -37.7217,19.4883 -37.7217,19.4883 l 0,0 c -0.0655,-3.91787 -1.17027,-7.6255 -1.24434,-11.53932 -0.31365,-5.01806 -0.88676,-10.00621 -2.22542,-14.86965 -1.19547,-5.89776 -0.89301,-12.06608 -2.88789,-17.83333 -1.73155,-5.40396 -4.14805,-10.56607 -5.20852,-16.16698 -1.66456,-5.12824 -2.54789,-10.49296 -5.11519,-15.29769 -4.2399,-8.69429 -8.43743,-17.36764 -14.21674,-25.20597 -9.1173,-12.43224 -18.8081,-24.50191 -29.4968,-35.6246 -9.53283,-9.55973 -19.16606,-19.06954 -31.08287,-25.69044 0,0 35.65909,-22.98024 35.65909,-22.98024 z"
       inkscape:connector-curvature="0" />
    <path
       style="fill:#00ff00;fill-opacity:1"
       id="path3364"
       d="m 449.93614,451.03537 c 6.15876,-4.85848 12.18013,-9.84669 17.82192,-15.30001 5.98012,-5.80834 11.92874,-11.64957 17.35653,-17.98224 4.14413,-5.05127 8.00859,-10.31975 11.85884,-15.59562 2.96225,-4.06653 5.61616,-8.30486 7.84503,-12.81192 2.19656,-4.87417 6.07125,-8.681 9.51332,-12.68818 1.88815,-2.48418 4.30664,-4.55659 6.0451,-7.14835 2.01488,-3.11726 4.48231,-5.89587 6.41036,-9.07144 1.97533,-3.97227 4.69912,-7.50244 7.22995,-11.12708 2.49044,-3.28515 3.96389,-7.15041 5.77482,-10.81847 1.66612,-3.5233 2.81013,-7.27068 3.89299,-11.00724 0.87867,-2.51067 1.79223,-4.96681 2.22869,-7.59887 0.34783,-2.70585 0.34464,-5.44014 0.35926,-8.16343 -0.22739,-3.00376 0.40241,-5.92807 0.80436,-8.88321 0.43806,-3.56823 0.53023,-7.16603 0.59099,-10.75674 0.0503,-3.32854 0.042,-6.65738 0.033,-9.98615 -0.01,-2.98229 -0.0147,-5.96459 -0.0174,-8.94689 0.1813,-3.41303 -0.37643,-6.78333 -0.78067,-10.15959 -0.51064,-2.72589 -1.13732,-5.42296 -1.56105,-8.16505 0,0 18.76798,-9.90398 18.76798,-9.90398 l 0,0 c 0.37057,2.77422 0.95268,5.50374 1.55108,8.23688 0.38662,3.44552 1.08945,6.87126 0.94205,10.35095 -4.6e-4,2.98542 -10e-4,5.97084 -0.004,8.95627 -0.003,3.34073 0.007,6.68166 -0.02,10.02225 -0.0625,3.65809 -0.17466,7.3172 -0.49618,10.96317 -0.32851,2.88981 -1.04639,5.719 -0.88482,8.63608 -0.002,2.8041 0.013,5.61352 -0.21962,8.41024 -0.30358,2.74109 -0.88969,5.39682 -2.15293,7.8754 -1.01398,3.86379 -2.29732,7.67873 -3.79643,11.3783 -1.75207,3.76111 -3.32783,7.67384 -5.64813,11.11391 -2.4291,3.63157 -5.30558,7.03096 -7.26036,10.93152 -1.68799,3.2853 -3.9524,6.24534 -6.35966,9.01968 -1.41167,3.21001 -3.85352,4.92201 -5.98182,7.65289 -3.68084,3.99696 0.47582,-0.58836 -3.40385,3.94223 -2.25056,2.62815 -5.00877,4.90753 -6.29782,8.21608 -2.29008,4.58172 -4.72473,9.03892 -7.79119,13.16729 -3.83351,5.35653 -7.85181,10.57988 -11.88681,15.78522 -5.41149,6.44407 -11.35227,12.38273 -17.42412,18.20776 -5.43587,5.5061 -11.29294,10.50351 -17.37676,15.27999 0,0 -19.66292,7.96835 -19.66292,7.96835 z"
       inkscape:connector-curvature="0" />
    <path
       style="fill:#00ff00;fill-opacity:1"
       id="path3366"
       d="m 223.55531,458.54377 c -10.9348,-7.15829 -21.07852,-15.38147 -31.04381,-23.81115 -8.41099,-7.39736 -16.15831,-15.53126 -23.01102,-24.38965 -3.5452,-4.72799 -6.07984,-10.07388 -8.80064,-15.28417 -1.89157,-3.45791 -2.78785,-7.28993 -3.75703,-11.07272 -1.16237,-3.77174 -1.42924,-7.71469 -2.04266,-11.58786 -0.55879,-4.25403 -1.63182,-8.41291 -2.30188,-12.64997 -0.51817,-3.42031 -0.56908,-6.88448 -0.62157,-10.33617 -0.12676,-2.93336 0.15549,-5.88816 -0.13327,-8.81174 -0.58529,-2.62988 -0.92687,-5.28169 -1.10525,-7.96721 -0.17069,-3.12273 -0.18944,-6.25092 -0.20323,-9.37745 0.0931,-1.42416 -0.11723,-2.82552 -0.3292,-4.22686 0,0 18.75971,-9.94128 18.75971,-9.94128 l 0,0 c 0.25773,1.49681 0.60675,2.99598 0.48085,4.52664 10e-4,3.08987 -0.003,6.18131 0.13615,9.26876 0.15382,2.63607 0.43416,5.2526 1.07151,7.82228 0.47024,2.9905 0.0872,6.0418 0.20539,9.05992 0.0215,3.36842 0.0528,6.74555 0.46492,10.09377 0.5787,4.23902 1.59536,8.38631 2.29482,12.60265 0.68266,3.80559 0.73533,7.72727 1.91284,11.44713 0.9636,3.62748 1.77686,7.31637 3.5376,10.67012 2.57059,5.14583 4.94778,10.42876 8.29783,15.13727 6.66106,8.79634 14.34709,16.7652 22.5012,24.18814 9.87301,8.46374 19.99852,16.70898 31.38815,23.08298 0,0 -17.70141,11.55657 -17.70141,11.55657 z"
       inkscape:connector-curvature="0" />
    <ellipse
       style="fill:#00ff00;fill-opacity:1"
       id="path3368"
       cx="153.57143"
       cy="303.79077"
       rx="29.285715"
       ry="18.571428" />
    <ellipse
       style="fill:#00ff00;fill-opacity:1"
       id="path3370"
       cx="546.42859"
       cy="249.50507"
       rx="26.428572"
       ry="20" />
    <ellipse
       style="fill:#00ff00;fill-opacity:1"
       id="path3380"
       cx="210"
       cy="808.79077"
       rx="51.42857"
       ry="35" />
    <ellipse
       style="fill:#00ff00;fill-opacity:1"
       id="path3382"
       cx="570.71429"
       cy="788.07648"
       rx="50.714287"
       ry="28.571428" />
    <ellipse
       style="fill:#e2e3db;fill-opacity:1"
       id="path4188"
       cx="285"
       cy="368.79077"
       rx="50.714287"
       ry="45" />
    <ellipse
       style="fill:#e2e3db;fill-opacity:1"
       id="path4188-2"
       cx="422.85712"
       cy="348.07648"
       rx="50.714287"
       ry="45" />
    <ellipse
       style="fill:#112b00;fill-opacity:1"
       id="path4205"
       cx="425.71429"
       cy="324.50507"
       rx="11.428572"
       ry="10.714286" />
    <ellipse
       style="fill:#112b00;fill-opacity:1"
       id="path4207"
       cx="278.57144"
       cy="348.79077"
       rx="12.857142"
       ry="9.2857141" />
  </g>
</svg>
