<?xml version="1.0" encoding="UTF-8" standalone="no"?>
<!-- Created with Inkscape (http://www.inkscape.org/) -->

<svg
   xmlns:dc="http://purl.org/dc/elements/1.1/"
   xmlns:cc="http://creativecommons.org/ns#"
   xmlns:rdf="http://www.w3.org/1999/02/22-rdf-syntax-ns#"
   xmlns:svg="http://www.w3.org/2000/svg"
   xmlns="http://www.w3.org/2000/svg"
   xmlns:sodipodi="http://sodipodi.sourceforge.net/DTD/sodipodi-0.dtd"
   xmlns:inkscape="http://www.inkscape.org/namespaces/inkscape"
   width="147.30476mm"
   height="177.36508mm"
   viewBox="0 0 521.94601 628.45895"
   id="svg2"
   version="1.1"
   inkscape:version="0.91 r13725"
   sodipodi:docname="FroggyGreen.svg">
  <defs
     id="defs4" />
  <sodipodi:namedview
     id="base"
     pagecolor="#ffffff"
     bordercolor="#666666"
     borderopacity="1.0"
     inkscape:pageopacity="0.0"
     inkscape:pageshadow="2"
     inkscape:zoom="0.5"
     inkscape:cx="88.091143"
     inkscape:cy="356.67787"
     inkscape:document-units="px"
     inkscape:current-layer="layer1"
     showgrid="false"
     inkscape:window-width="1920"
     inkscape:window-height="1053"
     inkscape:window-x="-9"
     inkscape:window-y="-9"
     inkscape:window-maximized="1"
     showguides="true"
     fit-margin-top="2"
     fit-margin-left="2"
     fit-margin-right="5"
     fit-margin-bottom="2">
    <inkscape:grid
       type="xygrid"
       id="grid4166"
       originx="-3.1990972"
       originy="-413.48485" />
  </sodipodi:namedview>
  <metadata
     id="metadata7">
    <rdf:RDF>
      <cc:Work
         rdf:about="">
        <dc:format>image/svg+xml</dc:format>
        <dc:type
           rdf:resource="http://purl.org/dc/dcmitype/StillImage" />
        <dc:title></dc:title>
      </cc:Work>
    </rdf:RDF>
  </metadata>
  <g
     inkscape:label="Layer 1"
     inkscape:groupmode="layer"
     id="layer1"
     transform="translate(-3.1990971,-10.418452)">
    <circle
       style="fill:#00ff00;fill-opacity:1"
       id="path3336"
       cx="261.71429"
       cy="296.07648"
       r="175.71428" />
    <path
       style="fill:#00ff00;fill-opacity:1"
       id="path3346"
       d="m 208.67787,400.29359 c -9.42254,7.38308 -18.426,15.28006 -27.75166,22.7933 -6.85405,5.34648 -12.79524,11.71618 -19.30646,17.47623 -6.58819,5.67602 -12.28269,12.11553 -17.52828,19.01617 -4.17083,6.12805 -9.75671,11.04377 -13.4385,17.50281 -1.85419,4.73939 -3.28024,9.70511 -4.46954,14.66213 -1.05809,5.03141 -0.88401,10.18313 -1.84933,15.22456 -1.08946,5.13229 -2.95697,10.01917 -4.00122,15.16503 -0.95017,5.49491 -1.04608,11.08383 -1.13073,16.64474 -0.0499,5.71158 -0.0241,11.42349 -0.0129,17.13518 0.20184,5.86073 -1.17129,11.60346 -1.93901,17.38156 -0.39194,3.73825 -0.22078,1.86713 -0.51354,5.61335 0,0 -37.97316,19.0217 -37.97316,19.0217 l 0,0 c 0.23033,-3.8768 0.092,-1.93834 0.41522,-5.81535 0.63106,-5.65788 2.04506,-11.23342 2.17165,-16.91237 -0.0106,-5.72868 -0.0332,-11.45741 -0.0133,-17.18609 0.0461,-5.7593 0.0912,-11.53635 0.81089,-17.2596 0.80014,-5.26389 2.35873,-10.23641 3.87801,-15.30106 1.25463,-5.01985 1.33846,-10.03855 1.88181,-15.18152 0.94226,-5.34952 2.87904,-10.38777 4.09413,-15.66863 3.17737,-7.51444 6.00299,-8.9801 10.86158,-14.85444 0.88492,-1.06993 1.56185,-2.29606 2.34278,-3.44409 5.33412,-7.02128 10.60616,-13.96075 17.26597,-19.81966 3.3485,-2.93275 6.8607,-5.75767 10.07065,-8.8421 2.05991,-1.97936 3.70617,-4.36564 5.79722,-6.31208 1.03625,-0.96458 2.25295,-1.71498 3.37943,-2.57248 9.53857,-7.17912 18.52495,-15.01574 27.56293,-22.80033 0,0 39.39538,-15.66696 39.39538,-15.66696 z"
       inkscape:connector-curvature="0" />
    <path
       style="fill:#00ff00;fill-opacity:1"
       id="path3348"
       d="m 380.84937,384.86662 c 11.75622,7.30311 21.38766,17.10017 31.07373,26.83382 10.75533,11.34544 20.52025,23.59675 29.90129,36.08942 6.07584,7.92114 10.45835,16.79414 14.97638,25.61869 2.83023,4.89598 3.84064,10.4536 5.57858,15.75842 1.20656,5.5663 3.31529,10.84103 5.0915,16.23645 2.1133,5.89493 2.21548,12.17507 3.23327,18.27396 1.3017,5.02241 2.03736,10.13268 2.44711,15.29638 0.10995,3.9037 0.88523,7.73007 1.23852,11.61278 0,0 -37.7217,19.4883 -37.7217,19.4883 l 0,0 c -0.0655,-3.91787 -1.17027,-7.6255 -1.24434,-11.53932 -0.31365,-5.01806 -0.88676,-10.00621 -2.22542,-14.86965 -1.19547,-5.89776 -0.89301,-12.06608 -2.88789,-17.83333 -1.73155,-5.40396 -4.14805,-10.56607 -5.20852,-16.16698 -1.66456,-5.12824 -2.54789,-10.49296 -5.11519,-15.29769 -4.2399,-8.69429 -8.43743,-17.36764 -14.21674,-25.20597 -9.1173,-12.43224 -18.8081,-24.50191 -29.4968,-35.6246 -9.53283,-9.55973 -19.16606,-19.06954 -31.08287,-25.69044 0,0 35.65909,-22.98024 35.65909,-22.98024 z"
       inkscape:connector-curvature="0" />
    <path
       style="fill:#00ff00;fill-opacity:1"
       id="path3364"
       d="m 335.93614,239.03537 c 6.15876,-4.85848 12.18013,-9.84669 17.82192,-15.30001 5.98012,-5.80834 11.92874,-11.64957 17.35653,-17.98224 4.14413,-5.05127 8.00859,-10.31975 11.85884,-15.59562 2.96225,-4.06653 5.61616,-8.30486 7.84503,-12.81192 2.19656,-4.87417 6.07125,-8.681 9.51332,-12.68818 1.88815,-2.48418 4.30664,-4.55659 6.0451,-7.14835 2.01488,-3.11726 4.48231,-5.89587 6.41036,-9.07144 1.97533,-3.97227 4.69912,-7.50244 7.22995,-11.12708 2.49044,-3.28515 3.96389,-7.15041 5.77482,-10.81847 1.66612,-3.5233 2.81013,-7.27068 3.89299,-11.00724 0.87867,-2.51067 1.79223,-4.96681 2.22869,-7.59887 0.34783,-2.70585 0.34464,-5.44014 0.35926,-8.16343 -0.22739,-3.00376 0.40241,-5.92807 0.80436,-8.88321 0.43806,-3.56823 0.53023,-7.16603 0.59099,-10.75674 0.0503,-3.32854 0.042,-6.65738 0.033,-9.98615 -0.01,-2.98229 -0.0147,-5.96459 -0.0174,-8.94689 0.1813,-3.41303 -0.37643,-6.78333 -0.78067,-10.15959 -0.51064,-2.72589 -1.13732,-5.42296 -1.56105,-8.16505 0,0 18.76798,-9.90398 18.76798,-9.90398 l 0,0 c 0.37057,2.77422 0.95268,5.50374 1.55108,8.23688 0.38662,3.44552 1.08945,6.87126 0.94205,10.35095 -4.6e-4,2.98542 -0.001,5.97084 -0.004,8.95627 -0.003,3.34073 0.007,6.68166 -0.02,10.02225 -0.0625,3.65809 -0.17466,7.3172 -0.49618,10.96317 -0.32851,2.88981 -1.04639,5.719 -0.88482,8.63608 -0.002,2.8041 0.013,5.61352 -0.21962,8.41024 -0.30358,2.74109 -0.88969,5.39682 -2.15293,7.8754 -1.01398,3.86379 -2.29732,7.67873 -3.79643,11.3783 -1.75207,3.76111 -3.32783,7.67384 -5.64813,11.11391 -2.4291,3.63157 -5.30558,7.03096 -7.26036,10.93152 -1.68799,3.2853 -3.9524,6.24534 -6.35966,9.01968 -1.41167,3.21001 -3.85352,4.92201 -5.98182,7.65289 -3.68084,3.99696 0.47582,-0.58836 -3.40385,3.94223 -2.25056,2.62815 -5.00877,4.90753 -6.29782,8.21608 -2.29008,4.58172 -4.72473,9.03892 -7.79119,13.16729 -3.83351,5.35653 -7.85181,10.57988 -11.88681,15.78522 -5.41149,6.44407 -11.35227,12.38273 -17.42412,18.20776 -5.43587,5.5061 -11.29294,10.50351 -17.37676,15.27999 0,0 -19.66292,7.96835 -19.66292,7.96835 z"
       inkscape:connector-curvature="0" />
    <path
       style="fill:#00ff00;fill-opacity:1"
       id="path3366"
       d="M 109.55531,246.54377 C 98.62051,239.38548 88.47679,231.1623 78.5115,222.73262 70.10051,215.33526 62.35319,207.20136 55.50048,198.34297 c -3.5452,-4.72799 -6.07984,-10.07388 -8.80064,-15.28417 -1.89157,-3.45791 -2.78785,-7.28993 -3.75703,-11.07272 -1.16237,-3.77174 -1.42924,-7.71469 -2.04266,-11.58786 -0.55879,-4.25403 -1.63182,-8.41291 -2.30188,-12.64997 -0.51817,-3.42031 -0.56908,-6.88448 -0.62157,-10.33617 -0.12676,-2.93336 0.15549,-5.88816 -0.13327,-8.81174 -0.58529,-2.62988 -0.92687,-5.28169 -1.10525,-7.96721 -0.17069,-3.12273 -0.18944,-6.25092 -0.20323,-9.37745 0.0931,-1.42416 -0.11723,-2.82552 -0.3292,-4.22686 0,0 18.75971,-9.94128 18.75971,-9.94128 l 0,0 c 0.25773,1.49681 0.60675,2.99598 0.48085,4.52664 0.001,3.08987 -0.003,6.18131 0.13615,9.26876 0.15382,2.63607 0.43416,5.2526 1.07151,7.82228 0.47024,2.9905 0.0872,6.0418 0.20539,9.05992 0.0215,3.36842 0.0528,6.74555 0.46492,10.09377 0.5787,4.23902 1.59536,8.38631 2.29482,12.60265 0.68266,3.80559 0.73533,7.72727 1.91284,11.44713 0.9636,3.62748 1.77686,7.31637 3.5376,10.67012 2.57059,5.14583 4.94778,10.42876 8.29783,15.13727 6.66106,8.79634 14.34709,16.7652 22.5012,24.18814 9.87301,8.46374 19.99852,16.70898 31.38815,23.08298 0,0 -17.70141,11.55657 -17.70141,11.55657 z"
       inkscape:connector-curvature="0" />
    <ellipse
       style="fill:#00ff00;fill-opacity:1"
       id="path3368"
       cx="39.571426"
       cy="91.790771"
       rx="29.285715"
       ry="18.571428" />
    <ellipse
       style="fill:#00ff00;fill-opacity:1"
       id="path3370"
       cx="432.42859"
       cy="37.505066"
       rx="26.428572"
       ry="20" />
    <ellipse
       style="fill:#00ff00;fill-opacity:1"
       id="path3380"
       cx="96"
       cy="596.79077"
       rx="51.42857"
       ry="35" />
    <ellipse
       style="fill:#00ff00;fill-opacity:1"
       id="path3382"
       cx="456.71429"
       cy="576.07648"
       rx="50.714287"
       ry="28.571428" />
    <ellipse
       style="fill:#e2e3db;fill-opacity:1"
       id="path4188"
       cx="171"
       cy="156.79077"
       rx="50.714287"
       ry="45" />
    <ellipse
       style="fill:#e2e3db;fill-opacity:1"
       id="path4188-2"
       cx="308.85712"
       cy="136.07648"
       rx="50.714287"
       ry="45" />
    <ellipse
       style="fill:#112b00;fill-opacity:1"
       id="path4205"
       cx="311.71429"
       cy="112.50507"
       rx="11.428572"
       ry="10.714286" />
    <ellipse
       style="fill:#112b00;fill-opacity:1"
       id="path4207"
       cx="164.57144"
       cy="136.79077"
       rx="12.857142"
       ry="9.2857141" />
    <path
       style="fill:#00ff00;fill-opacity:1"
       d="m 86.32861,630.3379 c -32.37778,-4.87055 -49.35283,-27.05908 -36.36679,-47.53594 4.53822,-7.15604 14.96884,-14.21704 25.19494,-17.0557 l 5.83116,-1.61867 1.47968,-14.41083 c 1.33477,-12.99958 3.19398,-23.90848 7.85916,-46.1138 3.07778,-14.64956 17.1355,-32.41887 48.07305,-60.76553 l 11.93136,-10.93215 -12.34372,-12.42736 c -19.87251,-20.00719 -36.94015,-48.44583 -44.08613,-73.4577 -9.25325,-32.3876 -8.86658,-74.53742 0.94306,-102.80136 1.21651,-3.50504 2.07958,-6.43147 1.91795,-6.50318 -2.83631,-1.25839 -25.86847,-21.73835 -31.81602,-28.29046 -13.87888,-15.28967 -19.09709,-25.88366 -22.94242,-46.57759 -1.83657,-9.88365 -3.73892,-25.56944 -4.22744,-34.85733 -0.56811,-10.80089 -1.47874,-17.04916 -2.52668,-17.33685 -0.90116,-0.24738 -4.38126,-1.19506 -7.73357,-2.10595 -3.35232,-0.91089 -8.33446,-3.62233 -11.07143,-6.02543 -4.00305,-3.51472 -4.97632,-5.40564 -4.97632,-9.66828 0,-10.28949 11.73752,-17.28822 28.88269,-17.2219 12.94149,0.0501 21.88791,4.04885 26.01856,11.62954 2.44523,4.48754 2.54108,5.58693 0.84424,9.68347 -1.05279,2.54166 -4.2762,6.18432 -7.16314,8.0948 l -5.24898,3.47361 0.58327,11.75346 c 0.3208,6.46439 1.84457,19.78916 3.38616,29.61059 3.86777,24.64142 8.81624,34.45547 26.84348,53.23729 7.4352,7.74641 14.59157,14.65865 15.90305,15.36054 1.96024,1.04909 3.83926,-1.06384 10.56052,-11.87513 4.4968,-7.2332 10.03059,-15.34616 12.29731,-18.0288 l 4.1213,-4.87751 6.52906,6.01827 c 9.34784,8.61654 17.64503,11.87334 32.29717,12.67728 14.57618,0.79978 24.36988,-1.57498 34.69187,-8.41198 19.09877,-12.6505 25.14954,-35.44713 14.77536,-55.66708 l -4.88296,-9.5172 10.85196,-2.41838 c 5.96857,-1.33011 16.83487,-2.78991 24.14734,-3.244 l 13.2954,-0.82562 -1.15254,4.14331 c -2.0932,7.5249 -1.0693,19.51507 2.33177,27.30582 4.03514,9.24316 14.54408,19.31212 25.48987,24.42266 7.04943,3.29135 10.03834,3.81593 21.81419,3.82865 12.94774,0.0143 14.21027,-0.26438 24.68957,-5.44353 8.26974,-4.08713 12.44445,-7.2299 16.6188,-12.51085 3.06611,-3.87892 5.98127,-8.33341 6.47813,-9.89888 0.49685,-1.56546 1.3744,-2.84629 1.9501,-2.84629 1.5077,0 18.3525,13.5533 25.90648,20.8443 l 6.43144,6.20756 9.7978,-11.9655 c 14.00658,-17.10543 24.40729,-34.09448 28.69459,-46.87117 3.212,-9.57216 3.83644,-14.43442 4.6137,-35.92454 l 0.89891,-24.85402 -8.41672,-1.74731 c -16.92949,-3.51455 -24.50778,-17.69256 -15.30359,-28.6311 5.07614,-6.03266 11.31697,-8.48679 21.58184,-8.48679 19.84743,0 31.34029,14.85848 21.91643,28.33451 -2.25401,3.22321 -2.79731,7.64951 -3.53608,28.80835 -0.90445,25.90361 -2.30979,32.9737 -9.2637,46.60451 -3.8483,7.54329 -18.67859,29.29683 -26.35003,38.65106 -3.33712,4.06913 -8.50622,11.37687 -11.4869,16.23941 l -5.41945,8.841 7.02529,10.18916 c 35.37396,51.3047 40.99539,117.90336 14.62211,173.23223 -3.79397,7.95941 -9.58505,18.42834 -12.86907,23.26427 l -5.97095,8.79262 12.15952,12.91701 c 16.23105,17.24216 32.61848,39.11667 39.32759,52.49584 9.69963,19.34282 17.02736,47.49132 20.45707,78.58315 0.30323,2.74887 2.07307,3.9956 9.45804,6.66251 11.04609,3.98903 18.59106,9.76509 22.17073,16.97281 11.86839,23.89718 -39.07154,43.67188 -76.17864,29.57228 -24.58984,-9.3434 -28.89374,-29.05723 -9.08616,-41.61883 3.6912,-2.34089 7.18645,-4.25617 7.76717,-4.25617 0.58075,0 2.6008,-0.58738 4.48905,-1.30529 l 3.43314,-1.30527 -2.51746,-13.33759 c -7.43514,-39.39167 -20.246,-64.5261 -49.16067,-96.45144 l -9.33073,-10.30227 -11.05,7.93628 c -55.51621,39.87259 -129.30164,43.30983 -189.37334,8.82185 l -12.60904,-7.23903 -4.37137,4.09138 c -2.40426,2.25026 -9.40256,10.36206 -15.55178,18.02625 -11.92841,14.86717 -14.61945,20.93998 -16.93108,38.20798 -0.68368,5.10715 -2.26495,13.1172 -3.51394,17.80015 -1.54959,5.80998 -2.27089,14.71845 -2.27089,28.04664 l 0,19.53221 7.82035,3.82615 c 9.13758,4.4706 17.32342,13.37081 19.40395,21.09732 6.30003,23.39649 -25.76595,44.80513 -59.507,39.7295 z"
       id="path4146"
       inkscape:connector-curvature="0" />
    <path
       style="fill:#00ff00;fill-opacity:1"
       d="m 78.61702,628.0084 c -17.12795,-4.60188 -30.1256,-15.72862 -32.11273,-27.49035 -2.19646,-13.0007 8.77774,-26.76119 26.49421,-33.22093 9.16591,-3.34206 8.64915,-2.28119 10.71214,-21.99119 1.75812,-16.79725 8.00959,-45.59184 11.31399,-52.11275 5.36994,-10.59708 14.07195,-20.83415 35.46202,-41.71766 L 150.50544,431.9308 140.11438,420.80416 C 122.22192,401.64509 112.5477,387.6729 102.85836,366.99639 85.71286,330.40885 83.40205,284.06832 96.50227,239.53258 97.19194,237.18795 95.11011,234.71763 85.88112,226.92945 68.5247,212.28265 56.39686,198.45458 50.77297,186.8994 c -5.84272,-12.0048 -9.84103,-30.836 -12.15205,-57.23362 -0.89066,-10.17351 -1.92718,-18.99533 -2.30338,-19.60403 -0.37621,-0.60871 -3.1312,-1.76571 -6.12221,-2.5711 -7.31384,-1.96941 -14.7461,-7.15448 -17.01362,-11.86945 -2.7846,-5.79013 1.02851,-12.88441 8.99918,-16.74294 8.57392,-4.15057 26.69305,-4.23973 34.6692,-0.1706 11.34172,5.78611 13.42988,14.76841 5.23093,22.50102 -2.80594,2.64635 -5.78688,4.81154 -6.6243,4.81154 -1.80532,0 -0.55141,20.54694 2.49058,40.81125 2.52107,16.79422 6.67014,29.13486 13.00348,38.67643 7.00732,10.55699 29.73687,33.57942 32.21382,32.62892 1.0985,-0.42153 5.65398,-6.37379 10.12329,-13.22723 4.46931,-6.85344 9.63676,-14.3295 11.48322,-16.61349 l 3.35721,-4.15267 7.60503,6.01143 c 12.18287,9.63 15.60352,10.68292 35.02082,10.77982 19.92015,0.0994 25.93568,-1.87943 37.15708,-12.22295 15.4997,-14.28713 18.64187,-34.30195 8.4071,-53.55092 -1.94378,-3.65575 -3.34804,-6.77738 -3.1206,-6.93696 1.9719,-1.38346 34.24769,-6.12711 43.98499,-6.46459 0.39286,-0.0136 0.7215,5.60024 0.73031,12.47524 0.0199,15.47142 3.0452,22.4723 14.31863,33.13422 10.81089,10.2245 18.40324,13.34164 34.23677,14.0564 14.80275,0.66823 24.93715,-2.25754 35.36207,-10.2089 5.77483,-4.40462 14.40032,-14.48575 15.68352,-18.33031 0.82327,-2.46656 9.65771,3.65802 22.71663,15.74858 11.74527,10.87431 10.04143,11.52249 26.26438,-9.99144 21.9975,-29.17176 25.98883,-39.96252 27.8132,-75.19448 0.92847,-17.9303 0.85632,-25.48127 -0.25005,-26.16504 -0.85535,-0.52863 -3.92809,-1.34059 -6.82832,-1.80436 -11.90436,-1.90358 -21.72476,-13.43191 -18.55158,-21.77799 3.55381,-9.34724 11.07672,-13.75239 23.4857,-13.75239 10.5303,0 19.64501,4.10933 22.84644,10.30022 2.84556,5.50268 2.74067,8.40106 -0.57707,15.94675 -2.11175,4.80282 -3.08997,12.09746 -4.21797,31.45313 -2.04622,35.1113 -4.02146,40.10567 -30.14789,76.22847 -16.42751,22.71293 -21.4562,30.21134 -21.4562,31.99394 0,0.81355 3.58077,6.97255 7.95726,13.68668 20.66145,31.69747 30.19885,65.84091 28.74084,102.89081 -1.05664,26.85079 -5.49033,45.01901 -16.73381,68.57143 -3.00068,6.28571 -8.07735,15.46811 -11.28146,20.40534 -3.20413,4.93723 -5.82569,9.596 -5.82569,10.35284 0,0.75683 4.38343,6.03872 9.74095,11.73752 20.31028,21.60406 35.99132,42.99036 43.23414,58.96401 7.43494,16.39745 14.11386,42.6328 17.72074,69.60869 l 0.9069,6.78268 10.9541,5.06112 c 15.62373,7.2186 21.72889,13.79208 21.72889,23.39571 0,6.05483 -7.43686,13.99113 -17.62616,18.8099 -29.91816,14.14906 -74.51671,4.69325 -79.889,-16.9381 -2.24856,-9.0538 6.90204,-20.60615 20.23021,-25.54001 3.61386,-1.33779 6.78295,-2.58414 7.0424,-2.76967 0.9488,-0.67845 -5.84935,-31.3769 -9.27834,-41.89823 -4.30416,-13.20667 -12.4048,-29.65327 -20.41603,-41.45033 -8.785,-12.93649 -30.2554,-37.46764 -32.15485,-36.73876 -0.90162,0.34599 -6.95043,4.24553 -13.44182,8.66567 -15.47013,10.53398 -25.78004,15.6364 -43.73401,21.64418 -45.20155,15.12537 -90.58096,11.40794 -135.00562,-11.05955 -10.60027,-5.36101 -20.03954,-9.7473 -20.97617,-9.7473 -2.29377,0 -24.00293,26.06317 -29.15305,35 -2.26396,3.92857 -4.76566,10.35715 -5.55934,14.28572 -6.49123,32.13055 -7.17963,37.6214 -7.14423,56.98463 l 0.0369,20.15822 5.86233,2.70599 c 12.39349,5.72071 21.20682,17.06381 21.20682,27.29401 0,22.82186 -36.0658,39.62206 -67.13715,31.2739 z"
       id="path4148"
       inkscape:connector-curvature="0" />
    <ellipse
       style="fill:#ffff00;fill-opacity:1"
       id="path4152"
       cx="208.14285"
       cy="298.21933"
       rx="15"
       ry="16.428572" />
    <ellipse
       style="fill:#ffff00;fill-opacity:1"
       id="path4154"
       cx="290.99997"
       cy="241.79077"
       rx="16.428572"
       ry="15.714286" />
    <ellipse
       style="fill:#ffff00;fill-opacity:1"
       id="path4156"
       cx="300.28571"
       cy="378.93359"
       rx="14.285714"
       ry="15.714286" />
    <ellipse
       style="fill:#ffff00;fill-opacity:1"
       id="path4160"
       cx="258.14285"
       cy="283.21939"
       rx="17.857143"
       ry="14.285714" />
    <circle
       style="fill:#ffff00;fill-opacity:1"
       id="path4165"
       cx="263.85718"
       cy="329.64789"
       r="15" />
    <ellipse
       style="fill:#ffff00;fill-opacity:1"
       id="path4167"
       cx="308.85715"
       cy="287.50507"
       rx="14.285714"
       ry="17.142857" />
    <ellipse
       style="fill:#ffff00;fill-opacity:1"
       id="path4169"
       cx="206.00003"
       cy="243.93362"
       rx="14.285714"
       ry="15" />
    <ellipse
       style="fill:#ffff00;fill-opacity:1"
       id="path4171"
       cx="252.42856"
       cy="240.36221"
       rx="10.714286"
       ry="11.428572" />
    <ellipse
       style="fill:#ffff00;fill-opacity:1"
       id="path4175"
       cx="240.28574"
       cy="203.21933"
       rx="11.428572"
       ry="14.285714" />
    <ellipse
       style="fill:#ffff00;fill-opacity:1"
       id="path4177"
       cx="220.28571"
       cy="349.64795"
       rx="11.428572"
       ry="12.142858" />
    <ellipse
       style="fill:#ffff00;fill-opacity:1"
       id="path4179"
       cx="269.57141"
       cy="405.3623"
       rx="17.857143"
       ry="19.285713" />
    <ellipse
       style="fill:#ffff00;fill-opacity:1"
       id="path4181"
       cx="306.71429"
       cy="326.79077"
       rx="13.571428"
       ry="15" />
    <ellipse
       style="fill:#ffff00;fill-opacity:1"
       id="path4183"
       cx="299.57141"
       cy="425.36224"
       rx="9.2857141"
       ry="15" />
    <ellipse
       style="fill:#ffff00;fill-opacity:1"
       id="path4189"
       cx="271.00003"
       cy="446.79077"
       rx="10.714286"
       ry="15" />
    <ellipse
       style="fill:#ffff00;fill-opacity:1"
       id="path4193"
       cx="240.28574"
       cy="421.07648"
       rx="10"
       ry="13.571428" />
    <ellipse
       style="fill:#ffff00;fill-opacity:1"
       id="path4199"
       cx="254.57144"
       cy="363.93365"
       rx="12.857142"
       ry="12.142858" />
    <ellipse
       style="fill:#ffff00;fill-opacity:1"
       id="path4201"
       cx="221.71429"
       cy="383.93365"
       rx="8.5714283"
       ry="9.2857141" />
    <path
       style="fill:#00ff00;fill-opacity:1"
       d="M 84.61131,629.47928 C 74.8292,627.62022 66.32696,624.1928 60.05438,619.57989 35.81714,601.75562 44.59801,576.4743 79.10192,564.73949 c 1.69479,-0.5764 2.61172,-3.31039 3.29691,-9.8303 1.33889,-12.74039 6.26203,-41.89136 8.60124,-50.9299 3.40004,-13.13749 10.41224,-22.68176 35.23088,-47.95261 l 23.7625,-24.19546 -12.79535,-14.2674 C 105.12889,381.80516 91.28233,350.48735 88.13394,306.59165 c -1.23198,-17.17652 1.23098,-42.0738 5.68255,-57.44306 l 3.41881,-11.80363 -8.81199,-7.80138 C 68.63392,212.02375 56.24915,198.12785 51.05231,187.61275 45.13331,175.63648 41.19985,157.8935 38.94961,133.02022 36.76926,108.91933 37.37458,110.31828 27.58142,106.74751 16.86716,102.8409 11.10488,96.62381 12.36386,90.32887 c 1.24291,-6.21451 6.04469,-10.62433 14.20857,-13.04874 14.27248,-4.23847 28.45456,-1.98709 36.18613,5.74448 6.71072,6.71072 6.30962,11.09542 -1.71868,18.78788 -7.56393,7.24752 -7.74903,8.81488 -4.22526,35.77742 4.45652,34.09948 8.84731,43.80815 29.6811,65.62919 7.77231,8.14062 14.97942,14.80112 16.01581,14.80112 1.03638,0 6.11465,-6.26786 11.28503,-13.92857 5.17039,-7.66072 10.52588,-15.37592 11.90111,-17.14487 l 2.50041,-3.21632 7.80587,6.40314 c 4.29323,3.52173 10.67216,7.37978 14.17539,8.57345 8.7887,2.99461 33.17208,2.91294 42.1353,-0.14115 9.38461,-3.19765 22.45381,-15.55091 26.56653,-25.11117 4.44334,-10.32881 3.61011,-25.68008 -1.98916,-36.648 -2.14576,-4.20313 -3.54459,-7.99883 -3.10851,-8.4349 1.377,-1.37701 19.63517,-4.46962 32.25638,-5.46367 l 12.14286,-0.95638 0.0266,12.67707 c 0.0327,15.64975 3.21083,23.10097 14.01424,32.85704 11.98589,10.82389 18.95967,13.3643 36.67355,13.3594 13.87227,-0.004 15.64441,-0.33051 23.57142,-4.34537 9.86065,-4.9942 16.57128,-10.9147 22.13956,-19.53279 l 3.911,-6.05308 5.58693,4.04715 c 3.07281,2.22594 10.04376,8.00339 15.49099,12.83879 5.44722,4.8354 10.36115,8.79164 10.91985,8.79164 1.9856,0 14.42707,-15.20395 23.42079,-28.62108 16.37173,-24.42391 19.06351,-33.43837 20.27306,-67.89202 l 0.8054,-22.94167 -8.06858,-1.80567 c -14.78982,-3.30978 -22.57348,-14.33602 -17.20207,-24.36813 4.15725,-7.76441 13.26792,-11.89199 24.4432,-11.07398 10.76542,0.78801 17.30143,4.30825 21.13476,11.38301 2.81499,5.19532 2.81737,5.36444 0.17036,12.08004 -1.47653,3.74602 -3.25027,13.23952 -3.94166,21.09666 -3.83611,43.5951 -3.8686,43.79286 -8.90931,54.25071 -2.6603,5.51925 -9.37989,16.46358 -14.93242,24.32072 -5.55253,7.85714 -14.45663,20.60211 -19.78691,28.32214 l -9.6914,14.03644 2.99094,5.24928 c 1.64501,2.88711 6.27466,10.62222 10.2881,17.18917 33.61073,54.99518 32.26139,125.31881 -3.50569,182.70473 -3.56241,5.71565 -6.26558,10.95707 -6.00704,11.64758 0.25854,0.69053 6.38473,7.9144 13.61376,16.05307 23.61847,26.59045 35.2925,43.8954 42.46234,62.94393 4.77742,12.69242 10.07603,34.21132 12.93433,52.52919 1.28399,8.2287 2.4591,15.0837 2.61137,15.23334 0.15226,0.14964 5.09827,2.46889 10.99113,5.15386 25.85491,11.78037 28.45796,28.95491 6.16247,40.65931 -10.98904,5.76889 -21.39904,8.0477 -36.16247,7.91619 -28.01871,-0.24957 -49.45334,-14.01726 -46.482,-29.85586 1.2087,-6.44294 10.32171,-15.28747 19.06529,-18.50357 3.68632,-1.35593 7.1508,-2.84122 7.69881,-3.30063 1.26139,-1.05746 -4.90014,-30.3512 -9.00947,-42.83376 -3.88944,-11.81461 -12.78833,-29.74303 -20.13929,-40.57423 -6.93957,-10.22505 -29.56373,-36.71304 -31.35765,-36.71304 -0.72263,0 -6.92076,3.77007 -13.77365,8.37794 -27.31843,18.36888 -50.70161,26.82783 -83.28654,30.12925 -34.17473,3.4625 -68.96933,-4.2216 -103.53009,-22.86375 l -12.95744,-6.98927 -5.771,6.03006 c -10.59926,11.07507 -21.98058,25.95479 -25.37335,33.17261 -5.60096,11.91559 -10.79791,44.55605 -10.79791,67.8184 l 0,19.98098 6.07143,3.04018 c 11.92983,5.97367 21.07143,17.73167 21.07143,27.10222 0,11.21091 -12.04922,24.26497 -27.27058,29.5448 -10.54399,3.6574 -24.86871,5.0239 -34.15799,3.2585 z M 276.85797,459.00759 c 5.2082,-4.4799 6.33717,-15.37761 2.26404,-21.85414 -6.93494,-11.02699 -18.72433,-4.3588 -18.77536,10.61951 -0.0169,4.94327 0.81532,7.0177 4.15477,10.35714 5.03879,5.03879 7.32962,5.20148 12.35655,0.87749 z m 25.54648,-19.01763 c 5.64862,-2.16758 8.43419,-15.98548 4.6858,-23.24404 -0.97055,-1.87944 -3.19368,-4.35702 -4.94027,-5.50572 -2.94067,-1.93402 -3.49553,-1.76861 -7.5,2.23585 -3.56723,3.56723 -4.32438,5.48164 -4.32438,10.9338 0,11.4229 5.25351,18.19924 12.07885,15.58011 z m -58.57143,-5.71428 c 3.34056,-1.2819 6.49258,-8.15219 6.49258,-14.15155 0,-3.82143 -1.0957,-6.27654 -4.17583,-9.35665 -2.2967,-2.29672 -4.91757,-4.17583 -5.82417,-4.17583 -0.9066,0 -3.52748,1.87911 -5.82418,4.17583 -9.36095,9.36094 -2.01658,27.8629 9.3316,23.5082 z m 33.54735,-11.72299 c 10.71661,-5.74737 13.32918,-21.6449 4.98788,-30.35134 -7.55508,-7.88582 -17.55481,-7.89975 -25.41917,-0.0354 -8.72106,8.72106 -5.69593,26.13723 5.37724,30.9577 6.02928,2.62473 9.32866,2.49958 15.05405,-0.57097 l 0,4e-5 z m 33.30237,-33.12289 c 7.0856,-7.7768 4.13897,-21.10535 -5.56199,-25.15867 -4.53854,-1.89633 -5.51261,-1.8517 -10.25098,0.46969 -15.46455,7.57621 -9.13186,32.30716 7.59868,29.67503 2.35715,-0.37085 6.05357,-2.61456 8.21429,-4.98605 z m -83.13006,1.36333 c 4.0954,-4.0954 3.22877,-10.90634 -1.86994,-14.69631 l -3.92857,-2.92017 -3.92857,2.92017 c -7.28845,5.41761 -4.56658,17.63768 3.92857,17.63768 1.57143,0 4.18075,-1.32361 5.79851,-2.94137 z m 36.70149,-19.27961 c 5.78068,-6.56902 3.59087,-15.1451 -4.75785,-18.63342 -11.67444,-4.87788 -22.54928,7.64125 -15.44644,17.78198 4.78926,6.83762 14.57362,7.24995 20.20429,0.85144 z m -36.89533,-12.906 c 5.54706,-4.66754 5.96253,-11.46314 1.04998,-17.1743 -6.90357,-8.0259 -19.57564,-2.52363 -19.46637,8.45237 0.0494,4.97066 1.94777,8.15121 6.38315,10.69489 4.39758,2.52201 7.24635,2.05494 12.03324,-1.97296 z m 47.60961,-19.13166 c 10.2594,-11.3805 -0.57548,-28.06566 -15.62441,-24.06076 -6.14696,1.63586 -10.44702,7.41222 -10.44702,14.03369 0,14.10273 16.63106,20.49904 26.07143,10.02707 z m 40.5,-2.02707 c 3.93815,-3.93814 4.85715,-5.96107 4.85715,-10.69174 0,-8.38127 -5.85296,-14.73683 -13.57143,-14.73683 -13.97602,0 -18.84299,20.29241 -6.67716,27.83983 5.8506,3.62958 10.00077,2.97941 15.39144,-2.41126 z M 214.65807,312.99603 c 7.92598,-4.09868 10.89955,-15.51461 6.13993,-23.57201 -5.96016,-10.08976 -20.24088,-10.0919 -25.45762,-0.004 -4.33943,8.39155 -1.49473,19.39955 6.0746,23.50662 5.03289,2.73081 8.0655,2.74667 13.24309,0.0693 l 0,4e-4 z m 100,-10 c 16.73304,-8.65298 6.4429,-38.68471 -10.78813,-31.48513 -14.50497,6.06056 -10.72676,32.80725 4.74088,33.56162 1.02116,0.0499 3.74243,-0.88462 6.04725,-2.07649 z m -47.71322,-7.3049 c 14.335,-6.80241 11.38773,-22.6644 -4.89348,-26.33641 -14.51473,-3.2736 -27.65497,11.29903 -19.22577,21.32153 5.96118,7.08795 15.5494,9.08154 24.11925,5.01488 z m -50.54783,-41.97561 c 7.21496,-7.91877 4.50268,-19.52482 -5.54384,-23.72252 -13.11827,-5.48117 -25.01908,11.54432 -16.04456,22.95359 6.06772,7.71386 14.97178,8.03099 21.5884,0.76893 z m 81.73672,2.27438 c 9.42083,-3.93627 12.21411,-16.17577 5.40614,-23.68835 -7.33151,-8.0903 -18.37238,-8.036 -25.2387,0.12414 -6.37076,7.57121 -3.64217,19.60083 5.33114,23.50359 5.84712,2.54308 8.53319,2.55431 14.50142,0.0606 l 0,5e-5 z m -38.4575,-7.19047 c 3.91271,-3.9127 4.6605,-11.28354 1.55893,-15.36591 -4.27403,-5.62557 -13.25407,-5.63482 -17.52026,-0.018 -5.09506,6.70808 0.55004,18.89041 8.75354,18.89041 2.03572,0 5.27922,-1.57793 7.20779,-3.5065 z m -12.0979,-34.95504 c 9.57063,-9.57061 1.11266,-28.93397 -10.68002,-24.45041 -5.08615,1.93375 -8.0013,7.0541 -8.0013,14.054 0,4.97062 0.83909,7.05968 4.17583,10.39641 2.2967,2.29671 5.56043,4.17583 7.25275,4.17583 1.69231,0 4.95604,-1.87912 7.25274,-4.17583 z"
       id="path4768"
       inkscape:connector-curvature="0" />
  </g>
</svg>
