<?xml version="1.0" ?><!DOCTYPE svg  PUBLIC '-//W3C//DTD SVG 1.1//EN'  'http://www.w3.org/Graphics/SVG/1.1/DTD/svg11.dtd'><svg height="2048px" style="shape-rendering:geometricPrecision; text-rendering:geometricPrecision; image-rendering:optimizeQuality; fill-rule:evenodd; clip-rule:evenodd" viewBox="0 0 2048 2048" width="2048px" xml:space="preserve" xmlns="http://www.w3.org/2000/svg" xmlns:xlink="http://www.w3.org/1999/xlink"><defs><style type="text/css">
   <![CDATA[
    .fil6 {fill:none}
    .fil5 {fill:#263238}
    .fil3 {fill:#4D5B2C}
    .fil0 {fill:#697C3C}
    .fil1 {fill:#8BAA45}
    .fil2 {fill:#C0CA33}
    .fil4 {fill:#FFFFFE}
   ]]>
  </style></defs><g id="Layer_x0020_1"><path class="fil0" d="M540.696 1339.47c-110.049,-84.6036 -237.795,-213.581 -274.83,-351.912 -11.5287,-43.0654 -14.5524,-89.6044 -0.355512,-132.444 14.4673,-43.6512 44.2453,-76.7339 85.9028,-96.2646 57.0272,-26.7355 125.578,-21.9756 185.15,-7.2626l33.8032 8.3504 -12.4973 32.4992c-3.27756,8.52284 -6.35906,17.1201 -9.24331,25.7847 -20.8075,62.5371 -31.2402,128.196 -31.2402,194.09 0,4.28268 0.165354,8.57009 0.266929,12.8516 2.2441,93.5729 28.3288,192.384 69.3745,276.479l57.3768 117.559 -103.708 -79.7292z"/><path class="fil0" d="M1502.95 753.766c61.8331,-16.4351 134.022,-22.8638 193.635,5.08465 41.6575,19.5307 71.4355,52.6134 85.9028,96.2646 14.1969,42.8398 11.1744,89.3788 -0.355512,132.444 -37.2544,139.153 -166.233,268.816 -277.09,353.649l-97.1257 74.3256 50.4756 -111.4c40.2756,-88.8875 63.4146,-194.362 63.4146,-291.822 0,-67.4422 -10.8496,-134.647 -32.654,-198.49 -2.22402,-6.51378 -4.5626,-12.9898 -7.01457,-19.4209l-12.1536 -31.8721 32.9658 -8.76261z"/><g id="_323790112"><path class="fil0" d="M1610.31 1524.7c14.3835,17.0232 26.8264,36.3 32.1874,56.6304 9.2256,34.9831 -0.609449,67.6713 -28.9807,90.2646 -19.4268,15.4725 -44.3469,22.226 -68.7308,24.2516 -47.4768,3.94607 -105.221,-8.28426 -153.323,-25.2815 -3.3437,5.14607 -7.14804,9.98387 -11.4685,14.3788 -19.9914,20.3303 -46.1776,28.7055 -74.1142,22.7847 -20.9433,-4.4374 -38.7378,-16.8012 -52.9323,-32.4815 -27.9307,-30.8587 -45.5516,-79.0914 -55.63,-118.82l-8.50631 -33.5303 34.3004 -4.48347c80.8477,-10.5685 143.688,-68.119 187.79,-133.283l10.1398 -14.9811 18.0177 1.59921c40.5012,3.5941 92.7024,9.26103 130.827,23.7142 20.4508,7.75394 39.7583,19.7728 51.5079,38.7355 19.4032,31.3158 13.9547,64.3004 -11.0847,90.502z" id="_323790352"/><path class="fil0" d="M642.481 1670.57c-48.1016,16.9973 -105.846,29.2276 -153.323,25.2815 -24.3839,-2.02559 -49.304,-8.77914 -68.7319,-24.2516 -28.3701,-22.5933 -38.2051,-55.2815 -28.9795,-90.2646 5.36103,-20.3303 17.804,-39.6071 32.1862,-56.6304 -25.0382,-26.2016 -30.4866,-59.1886 -11.0835,-90.502 11.7508,-18.9638 31.0583,-30.9815 51.5091,-38.7355 40.65,-15.4087 97.8946,-21.0827 141.108,-24.5858l17.4343 -1.41378 10.1126 14.2701c43.8142,61.8272 105.272,119.841 180.678,138.352l30.2717 7.43268 -7.87205 30.1607c-10.1173,38.7544 -27.5197,85.4304 -54.7961,115.567 -14.191,15.6815 -31.9866,28.0453 -52.9311,32.4827 -27.9355,5.92087 -54.1241,-2.45315 -74.1142,-22.7847 -4.32048,-4.39607 -8.12481,-9.23268 -11.4685,-14.3788z" id="_323790304"/></g><ellipse class="fil1" cx="1016.97" cy="1024.33" rx="519.025" ry="575.668"/><path class="fil2" d="M1191.61 1566.56c-54.5764,21.6248 -113.359,33.437 -174.636,33.437 -62.08,0 -121.605,-12.1075 -176.785,-34.278 156.8,-271.041 251.964,-181.356 351.421,0.840946z"/><path class="fil0" d="M1365.38 725.195c-13.3122,2.82992 -26.8925,4.25079 -40.5992,4.25433 -52.0028,0 -101.407,-20.6351 -138.118,-57.4075 -34.6229,-34.6772 -54.9213,-80.8052 -57.0119,-129.778 -0.119291,-2.77559 -0.178347,-5.55473 -0.178347,-8.33268 0,-22.2603 3.75945,-44.3303 11.2039,-65.3115 9.71103,-27.3697 25.4693,-52.2544 45.9863,-72.8032 36.7122,-36.7701 86.1142,-57.4063 138.117,-57.4063 52.004,0 101.406,20.6362 138.119,57.4075 36.6886,36.7477 57.189,86.1674 57.189,138.113 0,51.9449 -20.4992,101.367 -57.1902,138.112 -8.85591,8.87009 -18.5516,16.891 -28.9299,23.9197 -20.7673,14.0634 -44.0504,24.0142 -68.5878,29.2323z"/><path class="fil0" d="M722.652 725.194c-13.3099,2.8311 -26.8914,4.25197 -40.5981,4.25552 -52.0028,0 -101.406,-20.6351 -138.118,-57.4075 -34.6229,-34.6772 -54.9225,-80.8052 -57.0119,-129.78 -0.119291,-2.77559 -0.178347,-5.55355 -0.178347,-8.3315 0,-22.2603 3.75945,-44.3315 11.2039,-65.3126 9.71221,-27.3697 25.4693,-52.2532 45.9863,-72.802 36.7134,-36.7701 86.1142,-57.4063 138.117,-57.4063 52.004,0 101.406,20.6362 138.119,57.4075 36.6886,36.7477 57.189,86.1674 57.189,138.113 0,51.9449 -20.4992,101.367 -57.1902,138.112 -8.85591,8.87009 -18.5516,16.891 -28.9299,23.9197 -20.7685,14.0646 -44.0504,24.0142 -68.589,29.2311z"/><path class="fil3" d="M1270.38 837.962c-7.53308,-12.1075 -23.6256,-15.8823 -35.7319,-8.32796 -28.6925,17.902 -60.9508,30.6532 -93.6249,39.1229 -36.5599,9.47363 -74.706,13.8709 -112.447,13.8709 -37.7422,0 -75.8882,-4.39725 -112.447,-13.8709 -29.3126,-7.59686 -58.1965,-18.5835 -84.5044,-33.6603l-4.05591 -2.32559 26.341 -48.8941c6.79489,-12.6095 2.05158,-28.3406 -10.5591,-35.1225 -12.6177,-6.78426 -28.3347,-2.04567 -35.1272,10.5626l-82.8922 153.855c-6.79371,12.6095 -2.04921,28.3418 10.5602,35.1225 12.6177,6.78426 28.3358,2.04567 35.1284,-10.5626l31.9181 -59.2406 4.26378 2.41418c29.9386,16.9477 62.6752,29.3693 95.9363,37.989 40.8036,10.5768 83.2985,15.7323 125.438,15.7323 42.1382,0 84.632,-5.1567 125.436,-15.7323 37.7174,-9.77481 74.9209,-24.528 108.038,-45.1914 12.1016,-7.54961 15.8705,-23.6209 8.33032,-35.7414z"/><path class="fil4" d="M560.596 560.384c14.6126,67.0784 80.8335,109.615 147.911,95.002 67.0819,-14.6126 109.61,-80.8335 95.002,-147.911 -14.6126,-67.0819 -80.83,-109.61 -147.907,-95.0009 -67.0819,14.6114 -109.613,80.8288 -95.0056,147.91z"/><path class="fil5" d="M617.828 547.92c7.72678,35.4685 42.7429,57.9615 78.2127,50.2347 35.4721,-7.72678 57.9603,-42.7429 50.2347,-78.2127 -7.72678,-35.4709 -42.7406,-57.9591 -78.2103,-50.2347 -35.4709,7.72678 -57.9615,42.7406 -50.237,78.2127z"/><path class="fil4" d="M677.617 508.597c2.44488,11.2264 13.5284,18.3461 24.7536,15.9 11.2276,-2.44606 18.3449,-13.5284 15.9,-24.7547 -2.44488,-11.2264 -13.5272,-18.3449 -24.7536,-15.9 -11.2276,2.44606 -18.3461,13.5284 -15.9,24.7547z"/><path class="fil4" d="M1203.32 560.384c14.6126,67.0784 80.8335,109.615 147.911,95.002 67.0819,-14.6126 109.61,-80.8335 95.002,-147.911 -14.6126,-67.0819 -80.83,-109.61 -147.907,-95.0009 -67.0819,14.6114 -109.613,80.8288 -95.0056,147.91z"/><path class="fil5" d="M1260.55 547.92c7.72678,35.4685 42.7429,57.9615 78.2127,50.2347 35.4721,-7.72678 57.9591,-42.7429 50.2347,-78.2127 -7.72678,-35.4709 -42.7406,-57.9591 -78.2103,-50.2347 -35.4709,7.72678 -57.9615,42.7406 -50.237,78.2127z"/><path class="fil4" d="M1320.34 508.597c2.44606,11.2264 13.5284,18.3461 24.7547,15.9 11.2276,-2.44606 18.3449,-13.5284 15.9,-24.7547 -2.44606,-11.2264 -13.5272,-18.3449 -24.7536,-15.9 -11.2276,2.44606 -18.3461,13.5284 -15.9012,24.7547z"/></g><rect class="fil6" height="2048" width="2048"/></svg>