<?xml version="1.0" ?><svg id="Filloutline" style="enable-background:new 0 0 128 128;" version="1.1" viewBox="0 0 128 128" xml:space="preserve" xmlns="http://www.w3.org/2000/svg" xmlns:xlink="http://www.w3.org/1999/xlink"><g><g><linearGradient gradientUnits="userSpaceOnUse" id="SVGID_1_" x1="20" x2="20" y1="87.6667" y2="133.9028"><stop offset="0.0212" style="stop-color:#A06946"/><stop offset="1" style="stop-color:#B38365"/></linearGradient><circle cx="20" cy="97" r="5" style="fill:url(#SVGID_1_);"/><linearGradient gradientUnits="userSpaceOnUse" id="SVGID_2_" x1="20" x2="20" y1="87.6667" y2="133.9028"><stop offset="0.0212" style="stop-color:#A06946"/><stop offset="1" style="stop-color:#B38365"/></linearGradient><circle cx="20" cy="114" r="5" style="fill:url(#SVGID_2_);"/><linearGradient gradientUnits="userSpaceOnUse" id="SVGID_3_" x1="41" x2="41" y1="79" y2="149.1554"><stop offset="0" style="stop-color:#E0C441"/><stop offset="1" style="stop-color:#577E72"/></linearGradient><path d="M38.832,102.139c0,0-16.804-10.374-17.793-4.15c-0.989,6.225,11.862,4.15,11.862,9.337    s-13.839,2.075-12.85,6.225c0.989,4.15,5.741,1.511,15.816,0C42.786,112.513,48.717,126,58.602,126s-4.942-19.711-4.942-19.711    L38.832,102.139z" style="fill:url(#SVGID_3_);"/><linearGradient gradientUnits="userSpaceOnUse" id="SVGID_4_" x1="108" x2="108" y1="87.6667" y2="133.9028"><stop offset="0.0212" style="stop-color:#A06946"/><stop offset="1" style="stop-color:#B38365"/></linearGradient><circle cx="108" cy="97" r="5" style="fill:url(#SVGID_4_);"/><linearGradient gradientUnits="userSpaceOnUse" id="SVGID_5_" x1="108" x2="108" y1="87.6667" y2="133.9028"><stop offset="0.0212" style="stop-color:#A06946"/><stop offset="1" style="stop-color:#B38365"/></linearGradient><circle cx="108" cy="114" r="5" style="fill:url(#SVGID_5_);"/><linearGradient gradientUnits="userSpaceOnUse" id="SVGID_6_" x1="87" x2="87" y1="79" y2="149.1554"><stop offset="0" style="stop-color:#E0C441"/><stop offset="1" style="stop-color:#577E72"/></linearGradient><path d="M89.168,102.139c0,0,16.804-10.374,17.793-4.15c0.988,6.225-11.862,4.15-11.862,9.337    s13.839,2.075,12.85,6.225c-0.988,4.15-5.741,1.511-15.816,0C85.214,112.513,79.283,126,69.398,126s4.943-19.711,4.943-19.711    L89.168,102.139z" style="fill:url(#SVGID_6_);"/><linearGradient gradientUnits="userSpaceOnUse" id="SVGID_7_" x1="42.5" x2="42.5" y1="47" y2="153.1697"><stop offset="0" style="stop-color:#E0C441"/><stop offset="1" style="stop-color:#577E72"/></linearGradient><path d="M46.495,84.669c0,0-9.336-16.352-16.598-13.286c-7.261,3.066-4.502,21.332,9.336,33.725    c11.411,10.22,18.672,16.352,19.71,4.088S46.495,84.669,46.495,84.669z" style="fill:url(#SVGID_7_);"/><linearGradient gradientUnits="userSpaceOnUse" id="SVGID_8_" x1="85.5" x2="85.5" y1="47" y2="153.1697"><stop offset="0" style="stop-color:#E0C441"/><stop offset="1" style="stop-color:#577E72"/></linearGradient><path d="M81.505,84.669c0,0,9.336-16.352,16.598-13.286c7.261,3.066,4.502,21.332-9.336,33.725    c-11.411,10.22-18.672,16.352-19.71,4.088C68.02,96.932,81.505,84.669,81.505,84.669z" style="fill:url(#SVGID_8_);"/><linearGradient gradientUnits="userSpaceOnUse" id="SVGID_9_" x1="36" x2="36" y1="11.6667" y2="57.3126"><stop offset="0.0212" style="stop-color:#A06946"/><stop offset="1" style="stop-color:#B38365"/></linearGradient><circle cx="36" cy="34" r="5" style="fill:url(#SVGID_9_);"/><linearGradient gradientUnits="userSpaceOnUse" id="SVGID_10_" x1="13" x2="13" y1="11.6667" y2="57.3126"><stop offset="0.0212" style="stop-color:#A06946"/><stop offset="1" style="stop-color:#B38365"/></linearGradient><circle cx="13" cy="41" r="5" style="fill:url(#SVGID_10_);"/><linearGradient gradientUnits="userSpaceOnUse" id="SVGID_11_" x1="20" x2="20" y1="11.6667" y2="57.3126"><stop offset="0.0212" style="stop-color:#A06946"/><stop offset="1" style="stop-color:#B38365"/></linearGradient><circle cx="20" cy="20" r="5" style="fill:url(#SVGID_11_);"/><linearGradient gradientUnits="userSpaceOnUse" id="SVGID_12_" x1="24.5" x2="24.5" y1="7" y2="95.3453"><stop offset="0" style="stop-color:#E0C441"/><stop offset="1" style="stop-color:#577E72"/></linearGradient><path d="M27.34,62.938c0,0-2.044-2.938-2.044-11.973c0-3.991-1.079-4.753-10.221-6.984    c-4.088-0.998-1.452-6.126,2.044-4.989l4.289,1.396c0.778,0.253,1.531-0.44,1.309-1.211c-1.423-4.939-5.029-18.329-2.531-19.142    c2.44-0.794,6.175,12.314,7.598,17.7c0.219,0.829,1.34,1.021,1.83,0.312c1.373-1.985,3.556-4.69,4.88-4.043    c2.044,0.998,3.066,2.993-4.088,10.975c-1.346,1.502,3.066,6.984,2.044,12.971C31.428,63.935,27.34,62.938,27.34,62.938z" style="fill:url(#SVGID_12_);"/><linearGradient gradientUnits="userSpaceOnUse" id="SVGID_13_" x1="92" x2="92" y1="11.6667" y2="57.3126"><stop offset="0.0212" style="stop-color:#A06946"/><stop offset="1" style="stop-color:#B38365"/></linearGradient><circle cx="92" cy="34" r="5" style="fill:url(#SVGID_13_);"/><linearGradient gradientUnits="userSpaceOnUse" id="SVGID_14_" x1="115" x2="115" y1="11.6667" y2="57.3126"><stop offset="0.0212" style="stop-color:#A06946"/><stop offset="1" style="stop-color:#B38365"/></linearGradient><circle cx="115" cy="41" r="5" style="fill:url(#SVGID_14_);"/><linearGradient gradientUnits="userSpaceOnUse" id="SVGID_15_" x1="108" x2="108" y1="11.6667" y2="57.3126"><stop offset="0.0212" style="stop-color:#A06946"/><stop offset="1" style="stop-color:#B38365"/></linearGradient><circle cx="108" cy="20" r="5" style="fill:url(#SVGID_15_);"/><linearGradient gradientUnits="userSpaceOnUse" id="SVGID_16_" x1="103.5" x2="103.5" y1="7" y2="95.3453"><stop offset="0" style="stop-color:#E0C441"/><stop offset="1" style="stop-color:#577E72"/></linearGradient><path d="M100.66,62.938c0,0,2.044-2.938,2.044-11.973c0-3.991,1.079-4.753,10.221-6.984    c4.088-0.998,1.452-6.126-2.044-4.989l-4.289,1.396c-0.778,0.253-1.531-0.44-1.309-1.211c1.423-4.939,5.029-18.329,2.531-19.142    c-2.44-0.794-6.175,12.314-7.598,17.7c-0.219,0.829-1.34,1.021-1.83,0.312c-1.373-1.985-3.556-4.69-4.88-4.043    c-2.044,0.998-3.066,2.993,4.088,10.975c1.346,1.502-3.066,6.984-2.044,12.971C96.572,63.935,100.66,62.938,100.66,62.938z" style="fill:url(#SVGID_16_);"/><linearGradient gradientUnits="userSpaceOnUse" id="SVGID_17_" x1="38.5" x2="38.5" y1="18.3333" y2="121.6989"><stop offset="0" style="stop-color:#E0C441"/><stop offset="1" style="stop-color:#577E72"/></linearGradient><path d="M44.923,43c0,0-16.869,14-17.923,20c0,0,0,3,4.217,3l17.923-9    C49.14,57,52.83,50.5,44.923,43z" style="fill:url(#SVGID_17_);"/><linearGradient gradientUnits="userSpaceOnUse" id="SVGID_18_" x1="89.5" x2="89.5" y1="18.3333" y2="121.6989"><stop offset="0" style="stop-color:#E0C441"/><stop offset="1" style="stop-color:#577E72"/></linearGradient><path d="M83.077,43c0,0,16.869,14,17.923,20c0,0,0,3-4.217,3L78.86,57    C78.86,57,75.17,50.5,83.077,43z" style="fill:url(#SVGID_18_);"/><linearGradient gradientUnits="userSpaceOnUse" id="SVGID_19_" x1="64" x2="64" y1="7" y2="171.3046"><stop offset="0" style="stop-color:#E0C441"/><stop offset="1" style="stop-color:#577E72"/></linearGradient><path d="M86.767,70c-1.98-10-2.97-22-2.97-22H64H44.203c0,0-0.99,12-2.97,22S50.142,117,64,117    S88.747,80,86.767,70z" style="fill:url(#SVGID_19_);"/><linearGradient gradientUnits="userSpaceOnUse" id="SVGID_20_" x1="64" x2="64" y1="-17" y2="105.3565"><stop offset="0" style="stop-color:#E0C441"/><stop offset="1" style="stop-color:#577E72"/></linearGradient><path d="M79.842,23c0,0-9.901-21-15.842-21S48.158,23,48.158,23s-10.626,21.773-3.961,30    C53.108,64,60.039,57,64,57s10.892,7,19.803-4C90.468,44.773,79.842,23,79.842,23z" style="fill:url(#SVGID_20_);"/><linearGradient gradientUnits="userSpaceOnUse" id="SVGID_21_" x1="47" x2="47" y1="35.4013" y2="14.5398"><stop offset="0" style="stop-color:#E3DDCB"/><stop offset="0.6667" style="stop-color:#F5EBDE"/></linearGradient><path d="M47,16c-6.075,0-11,4.925-11,11h22C58,20.925,53.075,16,47,16z" style="fill:url(#SVGID_21_);"/><linearGradient gradientUnits="userSpaceOnUse" id="SVGID_22_" x1="47" x2="47" y1="19.9556" y2="28.9276"><stop offset="0" style="stop-color:#333333"/><stop offset="0.6667" style="stop-color:#444444"/></linearGradient><circle cx="47" cy="27" r="5" style="fill:url(#SVGID_22_);"/><g><linearGradient gradientUnits="userSpaceOnUse" id="SVGID_23_" x1="49.9356" x2="49.9356" y1="142.3333" y2="-17.0725"><stop offset="0.0212" style="stop-color:#A06946"/><stop offset="1" style="stop-color:#B38365"/></linearGradient><path d="M43.187,57.507c-0.481,3.841-1.132,8.339-1.954,12.493     c-1.728,8.726,6.345,38.008,17.638,45.326C57.641,97.943,47.936,89.856,47,73C46.518,64.322,44.873,59.834,43.187,57.507z" style="fill:url(#SVGID_23_);"/></g><linearGradient gradientUnits="userSpaceOnUse" id="SVGID_24_" x1="81" x2="81" y1="35.4013" y2="14.5398"><stop offset="0" style="stop-color:#E3DDCB"/><stop offset="0.6667" style="stop-color:#F5EBDE"/></linearGradient><path d="M81,16c6.075,0,11,4.925,11,11H70C70,20.925,74.925,16,81,16z" style="fill:url(#SVGID_24_);"/><linearGradient gradientUnits="userSpaceOnUse" id="SVGID_25_" x1="81" x2="81" y1="19.9556" y2="28.9276"><stop offset="0" style="stop-color:#333333"/><stop offset="0.6667" style="stop-color:#444444"/></linearGradient><circle cx="81" cy="27" r="5" style="fill:url(#SVGID_25_);"/><g><linearGradient gradientUnits="userSpaceOnUse" id="SVGID_26_" x1="78.0644" x2="78.0644" y1="142.3333" y2="-17.0725"><stop offset="0.0212" style="stop-color:#A06946"/><stop offset="1" style="stop-color:#B38365"/></linearGradient><path d="M84.812,57.507c0.481,3.841,1.132,8.339,1.954,12.493     c1.728,8.726-6.345,38.008-17.638,45.326C70.359,97.943,80.064,89.856,81,73C81.482,64.322,83.127,59.834,84.812,57.507z" style="fill:url(#SVGID_26_);"/></g><linearGradient gradientUnits="userSpaceOnUse" id="SVGID_27_" x1="47" x2="47" y1="-3.6667" y2="65.2616"><stop offset="0" style="stop-color:#E0C441"/><stop offset="1" style="stop-color:#577E72"/></linearGradient><path d="M47,38c6.075,0,11-4.925,11-11H36C36,33.075,40.925,38,47,38z" style="fill:url(#SVGID_27_);"/><linearGradient gradientUnits="userSpaceOnUse" id="SVGID_28_" x1="81" x2="81" y1="-3.6667" y2="65.2616"><stop offset="0" style="stop-color:#E0C441"/><stop offset="1" style="stop-color:#577E72"/></linearGradient><path d="M81,38c-6.075,0-11-4.925-11-11h22C92,33.075,87.075,38,81,38z" style="fill:url(#SVGID_28_);"/></g><path d="M115,35c-2.296,0-4.356,1.308-5.365,3.347l-3.389,1.107c1.826-6.34,2.767-10.666,3.172-13.643   C112.076,25.17,114,22.813,114,20c0-3.309-2.691-6-6-6s-6,2.691-6,6c0,1.499,0.562,2.928,1.557,4.026   c-1.319,3.074-2.769,7.557-4.349,13.451c-0.507-0.733-0.983-1.35-1.443-1.904C97.905,35.061,98,34.538,98,34   c0-2.986-2.195-5.463-5.055-5.918C92.977,27.725,93,27.365,93,27c0-6.617-5.383-12-12-12c-1.36,0-2.663,0.238-3.883,0.657   c-0.018-0.049-0.021-0.1-0.047-0.147C71.671,5.882,67.273,1,64,1s-7.671,4.882-13.069,14.511c-0.026,0.047-0.029,0.098-0.047,0.147   C49.663,15.238,48.36,15,47,15c-6.617,0-12,5.383-12,12c0,0.365,0.023,0.725,0.055,1.082C32.195,28.537,30,31.014,30,34   c0,0.531,0.093,1.048,0.229,1.554c-0.47,0.559-0.958,1.183-1.479,1.925c-1.557-5.893-2.996-10.376-4.31-13.45   C25.437,22.931,26,21.5,26,20c0-3.309-2.691-6-6-6s-6,2.691-6,6c0,2.809,1.919,5.164,4.572,5.809   c0.4,2.974,1.332,7.296,3.145,13.628l-3.352-1.091C17.355,36.307,15.295,35,13,35c-3.309,0-6,2.691-6,6s2.691,6,6,6   c1.468,0,2.887-0.544,3.979-1.51c7.075,1.823,7.316,2.569,7.316,5.475c0,6.759,1.136,10.256,1.768,11.679   c-0.013,0.06-0.038,0.125-0.048,0.183C26.005,62.884,26,62.942,26,63c0,1.383,1.09,4,5.217,4c0.156,0,0.31-0.036,0.449-0.106   l9.916-4.979c-0.38,2.619-0.821,5.32-1.33,7.891c-0.241,1.22-0.3,2.819-0.192,4.691c-3.96-3.96-7.503-5.323-10.551-4.034   c-2.282,0.963-3.769,3.152-4.299,6.332c-0.865,5.18,0.948,12.799,5.683,20.1c-2.216-0.944-3.907-1.46-5.196-1.709   C24.915,92.732,22.623,91,20,91c-3.309,0-6,2.691-6,6s2.691,6,6,6c0.835,0,1.658-0.182,2.418-0.517   c1.307,0.766,2.948,1.246,4.43,1.677c3.053,0.889,5.054,1.588,5.054,3.166c0,1.694-2.773,2.147-6.398,2.564   c-0.351,0.04-0.695,0.08-1.031,0.121C23.341,108.747,21.709,108,20,108c-3.309,0-6,2.691-6,6s2.691,6,6,6   c2.329,0,4.434-1.352,5.422-3.451c1.074-0.169,2.262-0.418,3.558-0.691c2.022-0.427,4.313-0.91,7.034-1.317   c2.816-0.428,5.631,2.135,8.891,5.094C48.71,123.086,53.021,127,58.602,127c1.814,0,3.097-0.587,3.812-1.745   c0.979-1.586,0.72-4.085-0.771-7.584C62.426,117.88,63.212,118,64,118s1.574-0.12,2.358-0.329c-1.49,3.499-1.75,5.998-0.771,7.584   c0.715,1.158,1.997,1.745,3.812,1.745c5.58,0,9.892-3.914,13.696-7.366c3.26-2.96,6.071-5.521,8.891-5.094   c2.721,0.407,5.012,0.891,7.034,1.317c1.296,0.273,2.484,0.522,3.558,0.691c0.988,2.099,3.094,3.451,5.422,3.451   c3.309,0,6-2.691,6-6s-2.691-6-6-6c-1.709,0-3.341,0.747-4.472,2.012c-0.336-0.041-0.68-0.081-1.031-0.121   c-3.625-0.417-6.398-0.87-6.398-2.564c0-1.578,2.001-2.277,5.054-3.166c1.482-0.431,3.122-0.911,4.43-1.677   c0.76,0.334,1.583,0.517,2.418,0.517c3.309,0,6-2.691,6-6s-2.691-6-6-6c-2.623,0-4.914,1.732-5.697,4.186   c-1.289,0.248-2.981,0.764-5.196,1.708c4.736-7.302,6.548-14.92,5.683-20.1c-0.53-3.18-2.017-5.369-4.299-6.332   c-3.048-1.288-6.591,0.075-10.551,4.034c0.108-1.871,0.05-3.471-0.192-4.691c-0.51-2.576-0.95-5.276-1.33-7.891l9.916,4.979   c0.14,0.07,0.293,0.106,0.449,0.106c4.127,0,5.217-2.617,5.217-4c0-0.058-0.005-0.116-0.015-0.173   c-0.01-0.058-0.035-0.124-0.048-0.183c0.632-1.423,1.768-4.92,1.768-11.679c0-2.907,0.241-3.652,7.316-5.475   C112.113,46.456,113.532,47,115,47c3.309,0,6-2.691,6-6S118.309,35,115,35z M104,20c0-2.206,1.794-4,4-4s4,1.794,4,4   c0,1.62-0.96,3.011-2.362,3.638c0.235-3.977-0.883-4.349-1.513-4.555c-0.329-0.106-0.843-0.165-1.444,0.163   c-0.664,0.362-1.38,1.275-2.144,2.71C104.201,21.363,104,20.698,104,20z M95.977,33.771c-1.102-0.856-2.06-1.081-2.909-0.667   c-0.424,0.207-1.714,0.837-2.007,2.336c-0.139,0.711-0.026,1.54,0.343,2.506c-1.1-0.174-2.1-0.803-2.728-1.733   c1.884-1.572,3.269-3.714,3.914-6.154C94.44,30.336,95.867,31.873,95.977,33.771z M94.838,52.543   c-2.466-2.574-5.249-5.173-7.843-7.477c-0.018-2.132-0.329-4.544-0.914-7.211c0.328-0.154,0.647-0.321,0.958-0.503   C88.141,38.985,89.979,40,92,40c0.141,0,0.28-0.03,0.42-0.04c0.959,1.572,2.413,3.434,4.413,5.662   c0.157,0.365-0.381,1.863-0.773,2.958C95.648,49.726,95.176,51.077,94.838,52.543z M83.096,89.091   c-2.64,8.894-6.396,16.725-10.308,21.485c-0.811,0.988-1.62,1.827-2.426,2.544c0.883-7.372,3.324-13.137,5.71-18.71   c2.678-6.257,5.447-12.728,5.926-21.354c0.336-6.039,1.247-9.883,2.229-12.33c0.427,3.09,0.945,6.369,1.559,9.469   C86.495,73.778,85.439,81.196,83.096,89.091z M90.949,28c-0.504,5.046-4.773,9-9.949,9s-9.446-3.954-9.949-9H90.949z M77.142,26   c0.447-1.72,1.999-3,3.858-3s3.411,1.28,3.858,3H77.142z M90.949,26h-4.04c-0.478-2.833-2.942-5-5.91-5s-5.431,2.167-5.91,5h-4.04   c0.504-5.046,4.773-9,9.949-9S90.446,20.954,90.949,26z M64,3c2.351,0,6.573,5.025,11.299,13.444C71.551,18.476,69,22.445,69,27   c0,6.617,5.383,12,12,12c1.103,0,2.167-0.162,3.183-0.442c1.362,6.399,0.979,11.176-1.157,13.813   c-6.318,7.802-11.311,6.002-15.325,4.556C66.32,56.43,65.128,56,64,56s-2.32,0.43-3.7,0.927c-4.014,1.445-9.007,3.244-15.325-4.556   c-2.136-2.636-2.52-7.414-1.157-13.813C44.833,38.838,45.897,39,47,39c6.617,0,12-5.383,12-12c0-4.555-2.551-8.524-6.299-10.556   C57.427,8.025,61.649,3,64,3z M55.212,110.576c-8.557-10.416-14.437-33.113-12.997-40.382c0.612-3.094,1.131-6.375,1.558-9.469   c0.982,2.447,1.893,6.291,2.229,12.331c0.479,8.627,3.248,15.098,5.926,21.354c2.386,5.573,4.827,11.338,5.71,18.71   C56.832,112.403,56.023,111.564,55.212,110.576z M33.162,52.543c-0.339-1.467-0.811-2.817-1.222-3.964   c-0.393-1.094-0.931-2.592-0.789-2.934c2.008-2.241,3.467-4.11,4.428-5.686C35.72,39.97,35.859,40,36,40   c2.021,0,3.859-1.015,4.961-2.647c0.311,0.182,0.63,0.349,0.958,0.503c-0.585,2.667-0.896,5.079-0.914,7.211   C38.411,47.37,35.629,49.97,33.162,52.543z M56.949,28c-0.504,5.046-4.773,9-9.949,9s-9.446-3.954-9.949-9H56.949z M43.142,26   c0.447-1.72,1.999-3,3.858-3s3.411,1.28,3.858,3H43.142z M47,17c5.176,0,9.446,3.954,9.949,9h-4.04c-0.478-2.833-2.942-5-5.91-5   s-5.431,2.167-5.91,5h-4.04C37.554,20.954,41.824,17,47,17z M35.41,30.06c0.645,2.44,2.03,4.582,3.914,6.154   c-0.628,0.931-1.628,1.56-2.728,1.734c0.369-0.967,0.482-1.796,0.343-2.507c-0.293-1.5-1.583-2.129-2.007-2.336   c-0.847-0.415-1.804-0.192-2.909,0.66C32.137,31.869,33.563,30.336,35.41,30.06z M16,20c0-2.206,1.794-4,4-4s4,1.794,4,4   c0,0.698-0.201,1.364-0.537,1.958c-0.763-1.437-1.479-2.35-2.144-2.712c-0.603-0.328-1.118-0.269-1.444-0.163   c-0.631,0.206-1.748,0.578-1.52,4.552C16.957,23.007,16,21.617,16,20z M9,41c0-2.206,1.794-4,4-4c0.931,0,1.802,0.328,2.497,0.885   c-0.815,0.125-1.586,0.489-2.219,1.089c-1.034,0.978-1.496,2.39-1.176,3.596c0.161,0.612,0.663,1.646,2.162,2.201   C13.858,44.909,13.436,45,13,45C10.794,45,9,43.206,9,41z M26.295,50.965c0-4.821-1.94-5.749-10.983-7.956   c-0.5-0.122-1.126-0.386-1.276-0.95c-0.133-0.501,0.115-1.157,0.617-1.631c0.281-0.265,1.052-0.844,2.157-0.485l4.288,1.396   c0.721,0.234,1.509,0.056,2.052-0.469c0.528-0.511,0.73-1.266,0.527-1.969c-3.479-12.073-3.632-16.802-3.184-17.819   c0.888,0.68,3.138,4.85,6.323,16.909c0.201,0.763,0.815,1.323,1.603,1.461c0.79,0.138,1.564-0.182,2.018-0.836   c2.172-3.141,3.371-3.737,3.619-3.713c0.72,0.352,0.868,0.651,0.921,0.923c0.091,0.466-0.049,1.242-0.757,2.52   c-0.008,0.012-0.013,0.025-0.02,0.037c-0.753,1.346-2.131,3.245-4.538,5.929c-0.983,1.098-0.405,2.711,0.396,4.944   c0.52,1.451,1.143,3.236,1.407,5.111c-1.757,1.956-3.242,3.844-4.228,5.52C26.771,58.109,26.295,55.253,26.295,50.965z    M30.986,64.997c-2.609-0.079-2.942-1.494-2.981-1.925c0.582-2.781,5.442-8.48,13.146-15.451c0.23,1.963,0.761,3.635,1.596,5.006   c-0.214,1.994-0.491,4.358-0.829,6.88L30.986,64.997z M27.183,77.123c0.287-1.722,1.06-3.956,3.104-4.819   c3.251-1.368,7.252,2.174,10.1,5.487c1.377,10.348,6.434,25.721,13.281,34.055c0.843,1.027,1.694,1.925,2.552,2.697   c-0.272,0.233-0.573,0.383-0.924,0.434c-3.029,0.44-9.324-5.177-15.395-10.613C30.145,95.626,26.066,83.807,27.183,77.123z M16,97   c0-2.206,1.794-4,4-4c1.451,0,2.752,0.793,3.453,1.994c-0.944,0.053-1.45,0.304-1.739,0.451c-0.914,0.468-1.489,1.293-1.663,2.387   c-0.206,1.295,0.054,2.303,0.608,3.107C20.442,100.975,20.222,101,20,101C17.794,101,16,99.206,16,97z M20,118   c-2.206,0-4-1.794-4-4s1.794-4,4-4c0.662,0,1.291,0.164,1.854,0.459c-1.093,0.28-1.958,0.692-2.45,1.392   c-0.268,0.382-0.541,1.027-0.326,1.931c0.519,2.18,1.834,2.929,3.804,2.978C22.14,117.533,21.11,118,20,118z M58.944,116.593   c2.521,5.029,2.189,6.928,1.767,7.611c-0.121,0.197-0.49,0.796-2.109,0.796c-4.808,0-8.643-3.481-12.352-6.848   c-3.485-3.163-6.766-6.146-10.532-5.591c-2.779,0.417-5.202,0.929-7.149,1.339c-5.718,1.207-7.096,1.298-7.545-0.581   c-0.052-0.219-0.004-0.287,0.02-0.319c0.444-0.635,2.897-0.917,4.688-1.123c3.641-0.418,8.171-0.938,8.171-4.551   c0-3.197-3.451-4.2-6.496-5.086c-3.585-1.043-5.736-1.839-5.379-4.094c0.095-0.593,0.369-0.803,0.599-0.92   c0.706-0.358,3.157-0.781,10.633,2.976c1.546,1.958,3.31,3.861,5.308,5.651C46.23,112.718,51.29,117.001,54.951,117   c0.216,0,0.427-0.015,0.633-0.045c0.863-0.126,1.601-0.521,2.216-1.157c0.375,0.267,0.751,0.517,1.128,0.734   C58.936,116.552,58.935,116.573,58.944,116.593z M59.814,114.73c-0.698-8.562-3.41-14.944-6.047-21.106   c-2.729-6.38-5.309-12.404-5.769-20.68c-0.404-7.28-1.68-12.533-3.776-15.667c0.102-0.826,0.198-1.624,0.285-2.387   c6.751,7.411,12.559,5.326,16.47,3.918C62.182,58.375,63.222,58,64,58s1.818,0.375,3.022,0.809c1.74,0.627,3.855,1.389,6.263,1.389   c3.002,0,6.46-1.196,10.207-5.309c0.087,0.763,0.183,1.563,0.285,2.39c-2.096,3.134-3.372,8.386-3.776,15.666   c-0.46,8.275-3.039,14.3-5.769,20.68c-2.637,6.162-5.349,12.544-6.047,21.106C65.39,116.375,62.61,116.375,59.814,114.73z M108,110   c2.206,0,4,1.794,4,4s-1.794,4-4,4c-1.11,0-2.141-0.467-2.883-1.24c1.97-0.048,3.285-0.798,3.805-2.977   c0.215-0.903-0.059-1.549-0.326-1.931c-0.492-0.701-1.357-1.113-2.45-1.392C106.709,110.164,107.338,110,108,110z M108,93   c2.206,0,4,1.794,4,4s-1.794,4-4,4c-0.222,0-0.442-0.025-0.66-0.061c0.554-0.804,0.814-1.812,0.608-3.107   c-0.174-1.094-0.749-1.919-1.663-2.387c-0.288-0.147-0.795-0.398-1.739-0.451C105.248,93.793,106.549,93,108,93z M105.375,97.227   c0.229,0.117,0.504,0.327,0.599,0.92c0.357,2.255-1.794,3.051-5.379,4.094c-3.045,0.886-6.496,1.889-6.496,5.086   c0,3.612,4.53,4.133,8.171,4.551c1.79,0.206,4.243,0.488,4.688,1.123c0.023,0.032,0.071,0.101,0.02,0.319   c-0.448,1.879-1.828,1.788-7.545,0.581c-1.947-0.41-4.37-0.922-7.149-1.339c-3.753-0.56-7.046,2.427-10.532,5.591   C78.041,121.519,74.206,125,69.398,125c-1.619,0-1.988-0.599-2.109-0.796c-0.423-0.684-0.755-2.582,1.767-7.611   c0.01-0.019,0.008-0.041,0.016-0.06c0.377-0.218,0.753-0.468,1.128-0.734c0.615,0.636,1.353,1.031,2.216,1.157   c0.206,0.03,0.417,0.045,0.633,0.045c3.661,0,8.722-4.283,16.385-11.146c1.998-1.79,3.763-3.693,5.308-5.651   C102.216,96.446,104.67,96.869,105.375,97.227z M97.714,72.304c2.044,0.863,2.816,3.098,3.104,4.819   c1.116,6.684-2.962,18.503-12.718,27.24c-6.071,5.437-12.374,11.055-15.395,10.613c-0.351-0.052-0.652-0.201-0.924-0.434   c0.857-0.771,1.708-1.67,2.552-2.697c6.847-8.334,11.904-23.706,13.281-34.055C90.462,74.479,94.46,70.933,97.714,72.304z    M97.014,64.997l-10.932-5.49c-0.338-2.524-0.615-4.888-0.828-6.881c0.834-1.371,1.365-3.042,1.596-5.005   c7.702,6.968,12.561,12.665,13.146,15.447C99.951,63.521,99.604,64.918,97.014,64.997z M101.705,50.965   c0,4.288-0.476,7.144-0.942,8.921c-0.986-1.676-2.471-3.564-4.228-5.52c0.264-1.875,0.887-3.66,1.407-5.111   c0.802-2.233,1.38-3.846,0.396-4.944c-2.409-2.687-3.788-4.586-4.54-5.933c-0.007-0.011-0.011-0.023-0.018-0.034   c-0.708-1.278-0.849-2.054-0.757-2.52c0.053-0.271,0.201-0.571,0.908-0.918c0.242-0.043,1.456,0.562,3.632,3.709   c0.453,0.655,1.229,0.977,2.018,0.835c0.787-0.138,1.401-0.698,1.603-1.461c3.186-12.059,5.436-16.229,6.323-16.909   c0.448,1.017,0.295,5.746-3.184,17.818c-0.203,0.704-0.001,1.458,0.527,1.97c0.545,0.525,1.33,0.704,2.052,0.469l4.288-1.396   c1.106-0.36,1.876,0.22,2.157,0.485c0.502,0.475,0.75,1.13,0.617,1.631c-0.15,0.564-0.776,0.829-1.276,0.95   C103.646,45.216,101.705,46.144,101.705,50.965z M115,45c-0.436,0-0.858-0.091-1.264-0.228c1.499-0.555,2-1.59,2.162-2.201   c0.32-1.207-0.142-2.618-1.176-3.596c-0.633-0.6-1.404-0.964-2.219-1.089C113.198,37.328,114.069,37,115,37c2.206,0,4,1.794,4,4   S117.206,45,115,45z" style="fill:#3A322B;"/></g></svg>