<?xml version="1.0" ?><svg id="Filloutline" style="enable-background:new 0 0 128 128;" version="1.1" viewBox="0 0 128 128" xml:space="preserve" xmlns="http://www.w3.org/2000/svg" xmlns:xlink="http://www.w3.org/1999/xlink"><g><g><linearGradient gradientUnits="userSpaceOnUse" id="SVGID_1_" x1="25.5" x2="25.5" y1="131.5" y2="76.4795"><stop offset="0" style="stop-color:#D7773B"/><stop offset="1" style="stop-color:#E79F52"/></linearGradient><path d="M32,89.403c-2.532-1.284-6,0.735-6,2.726c0,3.752,6.484,12.977,10,16.542    c3,3.042-8,5.071-10,4.057s-5-19.269-9-18.255c-4,1.014,4,15.212,2,16.226c-2,1.014-17-9.127-17-4.057c0,5.071,14,6.085,14,8.113    c0,2.028-15,3.042-13,7.099s13-4.057,17-3.042s23-1.014,26-7.099s3-11.156,3-11.156L32,89.403z" style="fill:url(#SVGID_1_);"/><linearGradient gradientUnits="userSpaceOnUse" id="SVGID_2_" x1="44" x2="44" y1="109.5" y2="55.9626"><stop offset="0" style="stop-color:#D7773B"/><stop offset="1" style="stop-color:#E79F52"/></linearGradient><path d="M52.033,86.552c0,0-20.121-7.925-25.915,4.156C24.124,94.864,48.046,108.371,62,104.215    L52.033,86.552z" style="fill:url(#SVGID_2_);"/><linearGradient gradientUnits="userSpaceOnUse" id="SVGID_3_" x1="102.5" x2="102.5" y1="131.5" y2="76.4795"><stop offset="0" style="stop-color:#D7773B"/><stop offset="1" style="stop-color:#E79F52"/></linearGradient><path d="M96,89.403c2.532-1.284,6,0.735,6,2.726c0,3.752-6.484,12.977-10,16.542    c-3,3.042,8,5.071,10,4.057s5-19.269,9-18.255c4,1.014-4,15.212-2,16.226c2,1.014,17-9.127,17-4.057c0,5.071-14,6.085-14,8.113    c0,2.028,15,3.042,13,7.099s-13-4.057-17-3.042s-23-1.014-26-7.099s-3-11.156-3-11.156L96,89.403z" style="fill:url(#SVGID_3_);"/><linearGradient gradientUnits="userSpaceOnUse" id="SVGID_4_" x1="84" x2="84" y1="109.5" y2="55.9626"><stop offset="0" style="stop-color:#D7773B"/><stop offset="1" style="stop-color:#E79F52"/></linearGradient><path d="M75.967,86.552c0,0,20.121-7.925,25.915,4.156c1.993,4.156-21.928,17.663-35.883,13.507    L75.967,86.552z" style="fill:url(#SVGID_4_);"/><linearGradient gradientUnits="userSpaceOnUse" id="SVGID_5_" x1="64" x2="64" y1="98" y2="-39.99"><stop offset="0" style="stop-color:#D7773B"/><stop offset="1" style="stop-color:#E79F52"/></linearGradient><path d="M82.033,44C83.784,38.174,70.011,5,64,5S44.216,38.174,45.967,44    c3.005,10-15.027,26,13.024,58c0,0,2.004,7,5.009,7s5.009-7,5.009-7C97.06,70,79.027,54,82.033,44z" style="fill:url(#SVGID_5_);"/><linearGradient gradientUnits="userSpaceOnUse" id="SVGID_6_" x1="31.5" x2="31.5" y1="56" y2="19.3769"><stop offset="0" style="stop-color:#D7773B"/><stop offset="1" style="stop-color:#E79F52"/></linearGradient><path d="M45.301,63.462c0,0-13.873,9.842-21.213,5.375c-2.022-1.23-3.015-3.688-2.708-6.088    c0.594-4.647,1.227-14.768-3.57-19.624c-6.344-6.422-5.287-7.492-3.172-8.563c2.115-1.07,5.287,7.492,7.402,6.422    C24.153,39.914,19.924,26,25.211,26s1.057,13.914,3.172,14.985c2.115,1.07,4.229-12.844,7.402-10.703    c3.172,2.141-1.057,6.422-4.229,12.844c-1.996,4.041-1.899,8.505-1.552,11.26c0.165,1.313,1.578,2.028,2.699,1.38l12.599-7.288    C45.301,48.477,55.874,53.829,45.301,63.462z" style="fill:url(#SVGID_6_);"/><g><linearGradient gradientUnits="userSpaceOnUse" id="SVGID_7_" x1="35.9036" x2="35.9036" y1="69" y2="23.681"><stop offset="0" style="stop-color:#D7773B"/><stop offset="1" style="stop-color:#E79F52"/></linearGradient><path d="M45.301,48.477l-12.599,7.288c-0.182,0.105-0.372,0.163-0.563,0.199     c-5.489,3.938-8.627,7.623-10.331,10.119c0.456,1.13,1.223,2.111,2.28,2.754c7.341,4.467,21.213-5.375,21.213-5.375     C55.874,53.829,45.301,48.477,45.301,48.477z" style="fill:url(#SVGID_7_);"/></g><linearGradient gradientUnits="userSpaceOnUse" id="SVGID_8_" x1="49.5003" x2="49.5003" y1="93" y2="7.0995"><stop offset="0" style="stop-color:#F7CE4A"/><stop offset="1" style="stop-color:#F3D877"/></linearGradient><path d="M46.317,46.564c0.024,9.296-10.992,23.421,6.998,48.342C54.993,89.746,56,83.168,56,76    C56,61.414,51.835,49.264,46.317,46.564z" style="fill:url(#SVGID_8_);"/><linearGradient gradientUnits="userSpaceOnUse" id="SVGID_9_" x1="50" x2="50" y1="49.25" y2="3.9993"><stop offset="0" style="stop-color:#D7773B"/><stop offset="1" style="stop-color:#E79F52"/></linearGradient><circle cx="50" cy="42" r="11" style="fill:url(#SVGID_9_);"/><linearGradient gradientUnits="userSpaceOnUse" id="SVGID_10_" x1="48" x2="48" y1="26.25" y2="14.8503"><stop offset="0" style="stop-color:#E3DDCB"/><stop offset="0.6667" style="stop-color:#F5EBDE"/></linearGradient><path d="M48,20c-4.971,0-9,4.029-9,9h18C57,24.029,52.971,20,48,20z" style="fill:url(#SVGID_10_);"/><linearGradient gradientUnits="userSpaceOnUse" id="SVGID_11_" x1="48" x2="48" y1="20.2244" y2="28.7269"><stop offset="0" style="stop-color:#333333"/><stop offset="0.6667" style="stop-color:#444444"/></linearGradient><circle cx="48" cy="29" r="5" style="fill:url(#SVGID_11_);"/><linearGradient gradientUnits="userSpaceOnUse" id="SVGID_12_" x1="96.5" x2="96.5" y1="56" y2="19.3769"><stop offset="0" style="stop-color:#D7773B"/><stop offset="1" style="stop-color:#E79F52"/></linearGradient><path d="M82.699,63.462c0,0,13.873,9.842,21.213,5.375c2.022-1.23,3.015-3.688,2.708-6.088    c-0.594-4.647-1.227-14.768,3.57-19.624c6.344-6.422,5.287-7.492,3.172-8.563c-2.115-1.07-5.287,7.492-7.402,6.422    C103.847,39.914,108.076,26,102.789,26c-5.287,0-1.057,13.914-3.172,14.985c-2.115,1.07-4.229-12.844-7.402-10.703    c-3.172,2.141,1.057,6.422,4.229,12.844c1.996,4.041,1.899,8.505,1.552,11.26c-0.165,1.313-1.578,2.028-2.699,1.38l-12.599-7.288    C82.699,48.477,72.126,53.829,82.699,63.462z" style="fill:url(#SVGID_12_);"/><g><linearGradient gradientUnits="userSpaceOnUse" id="SVGID_13_" x1="92.0964" x2="92.0964" y1="69" y2="23.681"><stop offset="0" style="stop-color:#D7773B"/><stop offset="1" style="stop-color:#E79F52"/></linearGradient><path d="M82.699,48.477l12.599,7.288c0.182,0.105,0.372,0.163,0.563,0.199     c5.489,3.938,8.627,7.623,10.331,10.119c-0.456,1.13-1.223,2.111-2.28,2.754c-7.341,4.467-21.213-5.375-21.213-5.375     C72.126,53.829,82.699,48.477,82.699,48.477z" style="fill:url(#SVGID_13_);"/></g><linearGradient gradientUnits="userSpaceOnUse" id="SVGID_14_" x1="78.4997" x2="78.4997" y1="93" y2="7.0995"><stop offset="0" style="stop-color:#F7CE4A"/><stop offset="1" style="stop-color:#F3D877"/></linearGradient><path d="M81.683,46.564c-0.024,9.296,10.992,23.421-6.998,48.342C73.007,89.746,72,83.168,72,76    C72,61.414,76.165,49.264,81.683,46.564z" style="fill:url(#SVGID_14_);"/><linearGradient gradientUnits="userSpaceOnUse" id="SVGID_15_" x1="78" x2="78" y1="49.25" y2="3.9993"><stop offset="0" style="stop-color:#D7773B"/><stop offset="1" style="stop-color:#E79F52"/></linearGradient><circle cx="78" cy="42" r="11" style="fill:url(#SVGID_15_);"/><linearGradient gradientUnits="userSpaceOnUse" id="SVGID_16_" x1="80" x2="80" y1="26.25" y2="14.8503"><stop offset="0" style="stop-color:#E3DDCB"/><stop offset="0.6667" style="stop-color:#F5EBDE"/></linearGradient><path d="M80,20c4.971,0,9,4.029,9,9H71C71,24.029,75.029,20,80,20z" style="fill:url(#SVGID_16_);"/><linearGradient gradientUnits="userSpaceOnUse" id="SVGID_17_" x1="80" x2="80" y1="20.2244" y2="28.7269"><stop offset="0" style="stop-color:#333333"/><stop offset="0.6667" style="stop-color:#444444"/></linearGradient><circle cx="80" cy="29" r="5" style="fill:url(#SVGID_17_);"/><linearGradient gradientUnits="userSpaceOnUse" id="SVGID_18_" x1="48" x2="48" y1="42.5" y2="7.9991"><stop offset="0" style="stop-color:#D7773B"/><stop offset="1" style="stop-color:#E79F52"/></linearGradient><path d="M48,38c4.971,0,9-4.029,9-9H39C39,33.971,43.029,38,48,38z" style="fill:url(#SVGID_18_);"/><linearGradient gradientUnits="userSpaceOnUse" id="SVGID_19_" x1="80" x2="80" y1="42.5" y2="7.9991"><stop offset="0" style="stop-color:#D7773B"/><stop offset="1" style="stop-color:#E79F52"/></linearGradient><path d="M80,38c-4.971,0-9-4.029-9-9h18C89,33.971,84.971,38,80,38z" style="fill:url(#SVGID_19_);"/></g><path d="M117.395,115.993c-1.372-0.372-3.146-0.853-4.016-1.251c0.795-0.382,2.366-0.856,3.586-1.224   c4.471-1.348,10.035-3.026,10.035-6.875c0-1.143-0.547-1.731-1.006-2.023c-1.863-1.185-5.557,0.384-10.98,2.916   c-1.859,0.867-4.327,2.019-5.348,2.211c0.048-0.968,0.848-3.327,1.449-5.105c1.635-4.824,2.63-8.124,1.621-9.979   c-0.321-0.592-0.837-0.993-1.49-1.158c-3.381-0.854-5.45,5.772-7.451,12.187c-0.751,2.408-1.779,5.705-2.247,6.145   c-1.19,0.607-7.875-0.463-8.996-1.998c-0.079-0.108-0.127-0.173,0.16-0.464C96.244,105.792,103,96.288,103,92.13v-0.464   c0-0.04-0.018-0.074-0.023-0.112c0.056-0.454-0.003-0.882-0.193-1.278c-3.933-8.203-13.793-7.877-20.451-6.551   c2.853-6.512,3.718-12.159,3.643-17.06c3.667,2.054,8.769,4.339,13.312,4.339c1.854,0,3.614-0.381,5.145-1.312   c2.302-1.4,3.55-4.175,3.181-7.069c-0.527-4.117-1.261-14.188,3.288-18.794c3.919-3.966,5.339-6.165,5.066-7.843   c-0.218-1.335-1.43-1.948-2.153-2.315c-1.827-0.924-3.425,1.337-4.969,3.526c-0.665,0.941-1.879,2.662-2.376,2.877   c-0.264-0.671-0.124-3.002-0.029-4.575c0.216-3.59,0.46-7.66-1.282-9.51c-0.609-0.647-1.429-0.989-2.369-0.989   s-1.76,0.342-2.369,0.989c-1.742,1.851-1.498,5.92-1.282,9.51c0.078,1.306,0.188,3.133,0.072,4.101   c-0.484-0.838-1.111-2.489-1.561-3.672c-1.424-3.749-2.481-6.245-4.148-6.773c-0.435-0.138-1.108-0.198-1.845,0.298   c-3.081,2.08-1.075,5.458,1.247,9.369c0.839,1.413,1.789,3.015,2.646,4.747c1.845,3.737,1.811,7.877,1.456,10.693   c-0.037,0.294-0.205,0.536-0.46,0.663c-0.242,0.12-0.514,0.109-0.745-0.024l-8.739-5.055C88.886,47.738,90,44.999,90,42   c0-2.444-0.76-4.837-2.143-6.834C89.194,33.465,90,31.327,90,29c0-5.514-4.486-10-10-10c-1.453,0-2.83,0.318-4.076,0.878   C72.992,13.538,67.929,4,64,4c-3.93,0-8.993,9.538-11.924,15.878C50.83,19.318,49.452,19,48,19c-5.514,0-10,4.486-10,10   c0,2.327,0.806,4.465,2.143,6.166C38.76,37.163,38,39.556,38,42c0,2.999,1.114,5.738,2.939,7.844L32.2,54.899   c-0.232,0.134-0.504,0.145-0.745,0.024c-0.255-0.127-0.423-0.369-0.46-0.663c-0.354-2.815-0.389-6.956,1.456-10.692   c0.856-1.732,1.807-3.334,2.646-4.747c2.322-3.911,4.328-7.29,1.247-9.369c-0.736-0.496-1.409-0.437-1.845-0.298   c-1.667,0.528-2.725,3.025-4.148,6.773c-0.449,1.183-1.076,2.834-1.561,3.672c-0.116-0.967-0.006-2.795,0.072-4.101   c0.216-3.59,0.46-7.66-1.282-9.51C26.971,25.342,26.151,25,25.211,25s-1.76,0.342-2.369,0.989c-1.742,1.851-1.498,5.92-1.282,9.51   c0.093,1.546,0.229,3.824-0.016,4.539c-0.586-0.285-1.745-1.929-2.39-2.841c-1.543-2.188-3.137-4.452-4.969-3.526   c-0.724,0.367-1.936,0.98-2.153,2.315c-0.272,1.678,1.147,3.877,5.065,7.843c4.55,4.606,3.816,14.678,3.289,18.794   c-0.369,2.894,0.879,5.668,3.181,7.069c1.531,0.932,3.291,1.312,5.145,1.312c4.543,0,9.645-2.286,13.312-4.339   c-0.075,4.901,0.79,10.548,3.643,17.06c-6.658-1.326-16.518-1.652-20.451,6.551c-0.19,0.396-0.249,0.824-0.193,1.278   C25.018,91.592,25,91.626,25,91.666v0.464c0,4.158,6.756,13.662,10.288,17.244c0.287,0.292,0.239,0.356,0.16,0.464   c-1.121,1.535-7.801,2.6-8.93,2.041c-0.534-0.482-1.562-3.78-2.313-6.188c-2.001-6.415-4.073-13.042-7.451-12.187   c-0.653,0.166-1.169,0.566-1.49,1.158c-1.009,1.855-0.014,5.155,1.621,9.979c0.602,1.778,1.401,4.137,1.449,5.105   c-1.021-0.192-3.488-1.344-5.348-2.211c-5.425-2.531-9.117-4.1-10.98-2.916C1.547,104.913,1,105.501,1,106.644   c0,3.849,5.564,5.526,10.035,6.875c1.22,0.368,2.791,0.841,3.586,1.224c-0.869,0.398-2.644,0.879-4.016,1.251   c-3.754,1.019-7.636,2.071-8.573,4.148c-0.311,0.688-0.286,1.434,0.071,2.157c0.61,1.239,1.685,1.705,3.032,1.705   c2.104,0,4.874-1.137,7.588-2.25c2.65-1.088,5.658-2.319,7.03-1.97c3.828,0.969,23.797-0.84,27.143-7.626   c1.087-2.203,1.89-4.503,2.429-6.845c2.261,0.44,4.521,0.694,6.701,0.694c1.143,0,2.254-0.09,3.341-0.238   C60.377,107.838,61.926,110,64,110c2.074,0,3.623-2.162,4.632-4.231c1.087,0.147,2.198,0.238,3.341,0.238   c2.18,0,4.44-0.254,6.701-0.695c0.539,2.342,1.342,4.642,2.429,6.845c3.345,6.786,23.314,8.598,27.143,7.626   c1.371-0.346,4.381,0.883,7.03,1.97c2.714,1.114,5.484,2.25,7.588,2.25c1.348,0,2.422-0.467,3.032-1.705   c0.357-0.724,0.382-1.469,0.071-2.157C125.03,118.064,121.148,117.012,117.395,115.993z M79.79,84.574   c-0.037,0.054-0.06,0.112-0.085,0.172c-1.219,2.495-2.75,5.124-4.65,7.898C73.724,87.771,73,81.948,73,76   c0-8.49,1.443-16.477,3.966-22.052C77.307,53.977,77.651,54,78,54c1.327,0,2.6-0.225,3.794-0.624   c0.077,0.311,0.148,0.611,0.228,0.931c0.793,3.192,1.675,6.751,1.928,10.814c0.001,0.004,0,0.009,0.001,0.013   C84.287,70.589,83.478,76.958,79.79,84.574z M94.623,37.8c-2.442-4.112-3.234-5.755-1.848-6.69   c0.062-0.042,0.099-0.053,0.105-0.053c0.797,0.046,2.27,3.924,2.898,5.581c1.172,3.085,1.891,4.853,3.045,5.3   c0.41,0.159,0.854,0.138,1.244-0.061c1.413-0.715,1.274-3.016,1.065-6.498c-0.172-2.869-0.408-6.797,0.742-8.019   c0.234-0.249,0.517-0.36,0.913-0.36s0.679,0.111,0.913,0.36c1.15,1.222,0.914,5.15,0.742,8.019   c-0.209,3.482-0.348,5.783,1.065,6.498c1.828,0.928,3.426-1.338,4.97-3.527c0.69-0.979,1.977-2.802,2.432-2.895   c0.74,0.375,1.044,0.614,1.082,0.852c0.081,0.496-0.398,1.95-4.514,6.116c-4.982,5.043-4.551,14.979-3.851,20.454   c0.035,0.277,0.047,0.553,0.042,0.826c-1.645-2.064-4.097-4.636-7.651-7.376c0.529-0.455,0.879-1.098,0.969-1.816   c0.389-3.087,0.418-7.646-1.647-11.828C96.452,40.881,95.48,39.245,94.623,37.8z M95.447,56.902   c4.985,3.606,7.929,6.956,9.588,9.28c-0.393,0.743-0.945,1.377-1.641,1.8c-4.956,3.017-13.608-1.375-17.526-3.69   c-0.303-3.995-1.159-7.461-1.906-10.467c-0.106-0.429-0.204-0.834-0.304-1.247c0.681-0.366,1.323-0.796,1.918-1.281l9.222,5.335   C95.005,56.75,95.223,56.84,95.447,56.902z M82.277,51.026c-0.006,0.001-0.012-0.001-0.018,0.001   c-0.147,0.035-0.274,0.104-0.386,0.192C80.681,51.721,79.373,52,78,52c-5.514,0-10-4.486-10-10c0-2.971,1.321-5.754,3.568-7.646   C73.345,37.142,76.456,39,80,39c2.451,0,4.696-0.89,6.437-2.359C87.459,38.238,88,40.068,88,42   C88,45.983,85.654,49.419,82.277,51.026z M87.931,30c-0.495,3.94-3.859,7-7.931,7s-7.436-3.06-7.931-7H87.931z M76.142,28   c0.447-1.72,1.999-3,3.858-3s3.411,1.28,3.858,3H76.142z M87.931,28H85.91c-0.478-2.833-2.942-5-5.91-5s-5.431,2.167-5.91,5h-2.021   c0.495-3.94,3.859-7,7.931-7S87.436,24.06,87.931,28z M48,21c4.072,0,7.436,3.06,7.931,7H53.91c-0.478-2.833-2.942-5-5.91-5   s-5.431,2.167-5.91,5h-2.021C40.564,24.06,43.928,21,48,21z M40.069,30h15.861c-0.495,3.94-3.859,7-7.931,7S40.564,33.94,40.069,30   z M44.142,28c0.447-1.72,1.999-3,3.858-3s3.411,1.28,3.858,3H44.142z M41.563,36.641C43.304,38.11,45.549,39,48,39   c3.544,0,6.655-1.858,8.432-4.646C58.679,36.246,60,39.029,60,42c0,5.514-4.486,10-10,10s-10-4.486-10-10   C40,40.068,40.541,38.238,41.563,36.641z M18.521,42.423c-4.115-4.166-4.595-5.62-4.514-6.116c0.038-0.238,0.342-0.477,1.006-0.837   c0.531,0.079,1.817,1.901,2.508,2.88c1.544,2.189,3.136,4.455,4.971,3.527c1.412-0.715,1.273-3.016,1.064-6.498   c-0.172-2.869-0.408-6.797,0.742-8.019c0.234-0.249,0.517-0.36,0.913-0.36s0.679,0.111,0.913,0.36   c1.15,1.222,0.914,5.15,0.742,8.019c-0.209,3.482-0.348,5.783,1.065,6.498c0.39,0.199,0.833,0.219,1.244,0.061   c1.154-0.448,1.873-2.215,3.045-5.3c0.629-1.656,2.102-5.534,2.897-5.581c0.008,0,0.045,0.012,0.106,0.053   c1.387,0.935,0.595,2.578-1.848,6.69c-0.857,1.444-1.829,3.081-2.719,4.882c-2.065,4.183-2.036,8.741-1.647,11.828   c0.09,0.718,0.44,1.361,0.969,1.816c-3.554,2.739-6.006,5.313-7.651,7.377c-0.005-0.274,0.007-0.55,0.042-0.827   C23.071,57.402,23.503,47.466,18.521,42.423z M24.606,67.982c-0.696-0.423-1.248-1.057-1.641-1.8   c1.659-2.325,4.604-5.676,9.588-9.28c0.224-0.062,0.442-0.152,0.649-0.271l9.222-5.335c0.595,0.486,1.237,0.915,1.918,1.281   c-0.1,0.413-0.198,0.818-0.304,1.247c-0.747,3.006-1.602,6.473-1.906,10.468C38.214,66.608,29.562,70.997,24.606,67.982z    M44.05,65.134c0.002-0.007,0-0.014,0.002-0.021c0.253-4.06,1.135-7.616,1.927-10.806c0.08-0.32,0.151-0.62,0.228-0.931   C47.4,53.775,48.673,54,50,54c0.349,0,0.692-0.023,1.034-0.052C53.556,59.522,55,67.51,55,76c0,5.948-0.725,11.771-2.055,16.644   c-1.899-2.774-3.43-5.402-4.649-7.897c-0.026-0.061-0.049-0.12-0.087-0.175C44.522,76.958,43.713,70.589,44.05,65.134z    M45.104,111.272c-2.633,5.34-21.011,7.548-24.857,6.572c-2.021-0.514-5.062,0.737-8.282,2.059   c-3.265,1.339-7.325,3.01-8.067,1.511c-0.117-0.239-0.083-0.357-0.041-0.45c0.549-1.216,4.596-2.314,7.273-3.04   c3.661-0.993,5.871-1.593,5.871-3.167c0-1.529-2.028-2.14-5.388-3.153C8.183,110.57,3,109.007,3,106.644   c0-0.067,0.006-0.289,0.08-0.336c1.073-0.688,6.27,1.739,9.061,3.041c4.127,1.926,6.165,2.826,7.312,2.244   c1.62-0.822,0.757-3.37-0.674-7.592c-0.965-2.85-2.424-7.157-1.758-8.382c0.056-0.102,0.112-0.146,0.226-0.175   c0.037-0.009,0.074-0.014,0.113-0.014c1.548,0,3.912,7.577,4.936,10.858c1.562,5.002,2.201,6.8,3.253,7.333   c1.983,1.004,9.777-0.221,11.516-2.603c0.707-0.968,0.576-2.108-0.352-3.048c-2.649-2.686-6.541-8.104-8.495-12.105   c4.018,3.324,11.456,7.164,19.156,9.02C46.869,107.068,46.117,109.214,45.104,111.272z M48.844,103.163   c-0.027-0.008-0.049-0.026-0.077-0.032c-0.022-0.005-0.043,0.003-0.066,0c-9.224-2.026-18.442-7.16-21.129-10.712   c-0.564-0.746-0.609-1.163-0.554-1.278c3.647-7.604,13.728-6.549,19.711-5.136c1.459,2.945,3.33,6.06,5.694,9.354   c0.002,0.003,0.005,0.006,0.006,0.009c1.643,2.289,3.511,4.659,5.664,7.125c0.098,0.325,0.254,0.811,0.464,1.378   C55.53,104.197,52.19,103.886,48.844,103.163z M64,108c-1.532,0-3.321-3.745-4.048-6.275c-0.04-0.142-0.112-0.273-0.209-0.384   c-2.012-2.295-3.772-4.497-5.328-6.622C56.102,89.315,57,82.863,57,76c0-8.53-1.428-16.612-3.934-22.412   C58.2,52.228,62,47.556,62,42c0-3.724-1.737-7.195-4.658-9.464C57.761,31.435,58,30.246,58,29c0-3.342-1.654-6.299-4.181-8.116   C58.521,10.676,62.376,6,64,6s5.478,4.676,10.181,14.884C71.654,22.701,70,25.658,70,29c0,1.246,0.24,2.435,0.658,3.536   C67.737,34.805,66,38.276,66,42c0,5.556,3.8,10.228,8.934,11.588C72.427,59.388,71,67.47,71,76c0,6.863,0.898,13.315,2.585,18.719   c-1.557,2.124-3.317,4.327-5.328,6.622c-0.098,0.111-0.169,0.242-0.209,0.384C67.323,104.255,65.536,108,64,108z M69.442,103.871   c0.21-0.567,0.366-1.053,0.464-1.378c2.152-2.465,4.02-4.835,5.662-7.123c0.002-0.004,0.006-0.007,0.008-0.011   c2.363-3.294,4.234-6.409,5.693-9.354c5.981-1.412,16.064-2.468,19.712,5.135c0.056,0.116,0.011,0.532-0.554,1.278   c-2.687,3.553-11.906,8.687-21.134,10.712c-0.021,0.003-0.04-0.004-0.061,0c-0.026,0.005-0.046,0.022-0.071,0.029   C75.815,103.884,72.472,104.196,69.442,103.871z M124.104,121.414c-0.741,1.497-4.803-0.17-8.067-1.511   c-3.221-1.322-6.26-2.573-8.282-2.059c-3.844,0.974-22.224-1.232-24.857-6.572c-1.014-2.058-1.765-4.204-2.27-6.387   c7.7-1.857,15.137-5.697,19.156-9.02c-1.953,4.002-5.846,9.419-8.495,12.105c-0.928,0.94-1.059,2.08-0.352,3.048   c1.738,2.381,9.532,3.604,11.516,2.603c1.052-0.534,1.691-2.332,3.253-7.333c1.049-3.362,3.485-11.238,5.049-10.844   c0.113,0.029,0.17,0.073,0.226,0.175c0.666,1.225-0.793,5.532-1.758,8.382c-1.431,4.222-2.294,6.77-0.674,7.592   c1.146,0.58,3.185-0.319,7.312-2.244c2.791-1.302,7.986-3.725,9.061-3.041c0.074,0.047,0.08,0.27,0.08,0.336   c0,2.363-5.183,3.926-8.612,4.959c-3.359,1.013-5.388,1.625-5.388,3.153c0,1.574,2.21,2.174,5.871,3.167   c2.678,0.726,6.725,1.824,7.273,3.04C124.187,121.056,124.221,121.175,124.104,121.414z" style="fill:#3A322B;"/></g></svg>