<?xml version="1.0" ?><svg id="Layer_1" style="enable-background:new 0 0 128 128;" version="1.1" viewBox="0 0 128 128" xml:space="preserve" xmlns="http://www.w3.org/2000/svg" xmlns:xlink="http://www.w3.org/1999/xlink"><style type="text/css">
	.st0{fill:#3A2C60;}
	.st1{fill:#E6E7E8;}
	.st2{fill:#FA759E;}
	.st3{fill:#6DC9F7;}
	.st4{fill:#FFD7E5;}
	.st5{fill:#FFFFFF;}
	.st6{fill:#D4FBFF;}
	.st7{fill:#0089EF;}
</style><g><path class="st1" d="M124.271,78.314c-0.193-0.244-0.407-0.465-0.622-0.685c-0.375-1.061-0.894-2.052-1.594-2.936   c-4.222-5.328-12.293-5.508-20.275-0.526c-0.297-0.266-0.633-0.512-0.963-0.754c-0.335-0.247-0.705-0.52-0.892-0.725   c-0.703-1.64-1.102-3.4-1.102-5.215V52.378c0-5.584-1.788-10.748-4.815-14.962c-1.268-2.536-2.926-4.835-4.897-6.824   c0.606-1.399,0.946-2.94,0.946-4.559c0-6.347-5.163-11.51-11.51-11.51c-5.185,0-9.577,3.448-11.012,8.171h-0.121   c-1.435-4.723-5.826-8.171-11.012-8.171c-6.347,0-11.51,5.163-11.51,11.51c0,0.891,0.112,1.755,0.304,2.589   c-6.057,4.896-9.941,12.38-9.941,20.757v15.095c0,0.973-0.135,1.948-0.376,2.907c-0.051,0.171-0.092,0.35-0.141,0.522   c-0.502,1.685-1.358,3.304-2.54,4.74c-0.611,0.742-1.173,1.555-1.678,2.424c-8.305-5.867-18.066-6.093-22.596-0.374   c-4.723,5.961-1.703,16.246,6.731,22.929c1.502,1.189,3.072,2.182,4.664,2.987c1.113,0.798,2.253,1.5,3.409,2.084l-3.727,1.591   c-0.451,0.192-0.695,0.685-0.577,1.16c0.118,0.477,0.56,0.804,1.054,0.756c0.756-0.058,3.075,0.011,3.788,1.126   c0.64,1.002-0.09,2.733-0.814,4.011c-0.25,0.441-0.13,1,0.279,1.3c0.411,0.301,0.98,0.245,1.324-0.128   c0.854-0.92,3.563-3.217,5.777-2.87c1.182,0.192,2.177,1.153,2.959,2.854c-0.022,0.125-0.051,0.243-0.064,0.374   c-0.087,0.883,0.109,2.042,0.919,2.648c1.114,0.836,2.272,0.042,2.894-0.386c0.147-0.102,0.292-0.202,0.434-0.284   c0.534-0.303,1.167-0.192,1.652,0.291c0.18,0.18,0.358,0.421,0.547,0.677c0.308,0.418,0.658,0.893,1.134,1.241   c0.381,0.279,0.837,0.424,1.293,0.424c0.274,0,0.548-0.053,0.806-0.159c0.654-0.272,1.093-0.847,1.203-1.577   c0.059-0.387,0.011-0.74-0.026-1.025c-0.017-0.125-0.036-0.25-0.037-0.376c-0.004-0.429,0.276-0.801,0.542-0.934   c0.355-0.176,0.841-0.145,1.353-0.11l2.622,0.175c0.285,0.008,0.555-0.081,0.757-0.274c0.748-0.715,0.826-1.961,0.572-2.877   c-0.161-0.584-0.429-1.071-0.665-1.501c-0.079-0.145-0.159-0.289-0.233-0.437c-0.309-0.611-0.695-1.882-1.037-3.552   c0.684,0.082,1.376,0.135,2.082,0.135c12.923,4.956,24.54,5.856,34.63,2.011c-0.181,0.613-0.358,1.097-0.514,1.407   c-0.074,0.148-0.154,0.292-0.233,0.437c-0.236,0.43-0.505,0.917-0.665,1.5c-0.254,0.918-0.176,2.164,0.572,2.878   c0.203,0.193,0.491,0.288,0.757,0.274l2.621-0.175c0.514-0.035,0.999-0.065,1.353,0.11c0.267,0.132,0.548,0.505,0.543,0.935   c-0.001,0.126-0.021,0.251-0.037,0.376c-0.038,0.284-0.085,0.639-0.025,1.024c0.11,0.729,0.548,1.305,1.202,1.577   c0.257,0.106,0.531,0.159,0.806,0.159c0.455,0,0.912-0.145,1.293-0.424c0.477-0.349,0.825-0.822,1.134-1.24   c0.188-0.256,0.366-0.498,0.547-0.678c0.485-0.483,1.117-0.594,1.651-0.291c0.144,0.082,0.288,0.184,0.436,0.284   c0.622,0.428,1.782,1.223,2.894,0.386c0.81-0.606,1.006-1.766,0.92-2.649c-0.054-0.545-0.192-1.025-0.326-1.49   c-0.032-0.111-0.061-0.222-0.091-0.332c0.614-0.801,1.316-1.276,2.104-1.404c2.216-0.353,4.923,1.95,5.776,2.87   c0.347,0.374,0.917,0.429,1.324,0.128c0.41-0.3,0.53-0.858,0.28-1.3c-0.725-1.277-1.454-3.009-0.814-4.01   c0.714-1.116,3.035-1.186,3.789-1.127c0.483,0.046,0.936-0.279,1.054-0.756c0.118-0.476-0.126-0.968-0.577-1.16l-1.182-0.505   c2.361-0.873,4.729-2.188,6.942-3.942C125.717,93.488,128.658,83.852,124.271,78.314z"/><g><path class="st2" d="M26.171,96.606l-10.774,4.598c0,0,8.085-0.699,3.928,6.626c0,0,6.882-7.456,10.401,0.289l5.564-9.221    L26.171,96.606z"/><path class="st2" d="M96.775,96.606l10.774,4.598c0,0-8.085-0.699-3.928,6.626c0,0-6.882-7.456-10.401,0.289l-5.564-9.221    L96.775,96.606z"/><g><g><path class="st5" d="M117.271,71.314c-4.06-5.125-12.009-4.933-19.668,0.156c-0.457-0.769-1.928-1.504-2.494-2.191      c-2.056-2.498-3.286-5.571-3.286-8.806V55.22l-0.026-11.002c-0.304-6.832-3.277-12.969-7.902-17.396      c0.738-1.437,1.162-3.062,1.162-4.789c0-5.804-4.705-10.51-10.51-10.51c-4.999,0-9.175,3.494-10.24,8.171h-1.666      c-1.064-4.677-5.24-8.171-10.24-8.171c-5.804,0-10.51,4.706-10.51,10.51c0,1.029,0.154,2.021,0.43,2.96      c-6.118,4.695-10.067,12.077-10.067,20.385v15.095c0,3.235-1.23,6.308-3.286,8.806c-0.825,1.002-1.529,2.105-2.118,3.275      c-7.963-6.125-17.813-6.707-22.144-1.24c-4.387,5.538-1.446,15.174,6.569,21.524c7.592,6.014,17.004,6.912,21.706,2.286      c2.752,1.791,6.03,2.841,9.558,2.841c14.83,5.688,27.942,6.039,38.998,0c3.012,0,5.846-0.761,8.324-2.097      c4.924,3.756,13.687,2.636,20.839-3.029C118.717,86.488,121.658,76.852,117.271,71.314z"/><path class="st2" d="M120.271,74.314c-4.06-5.125-12.009-4.933-19.668,0.156c-0.457-0.769-1.928-1.504-2.494-2.191      c-2.056-2.498-3.286-5.571-3.286-8.806V58.22l-0.026-11.002c-0.304-6.832-3.277-12.969-7.902-17.396      c0.738-1.437,1.162-3.062,1.162-4.789c0-5.804-4.705-10.51-10.51-10.51c-4.999,0-9.175,3.494-10.24,8.171h-1.666      c-1.064-4.677-5.24-8.171-10.24-8.171c-5.804,0-10.51,4.706-10.51,10.51c0,1.029,0.154,2.021,0.43,2.96      c-6.118,4.695-10.067,12.077-10.067,20.385v15.095c0,3.235-1.23,6.308-3.286,8.806c-0.825,1.002-1.529,2.105-2.118,3.275      c-7.963-6.125-17.813-6.707-22.144-1.24c-4.387,5.538-1.446,15.174,6.569,21.524c7.592,6.014,17.004,6.912,21.706,2.286      c2.752,1.791,6.03,2.841,9.558,2.841c14.83,5.688,27.942,6.039,38.998,0c3.012,0,5.846-0.761,8.324-2.097      c4.924,3.756,13.687,2.636,20.839-3.029C121.717,89.488,124.658,79.852,120.271,74.314z"/><path class="st5" d="M65.739,87.086c-2.276,1.568-5.274,1.781-7.613,0.31c-5.607-3.525-13.198-3.894-13.198,1.92      c0,7.399,7.678,13.398,17.149,13.398c9.471,0,17.149-5.999,17.149-13.398C79.225,83.472,71.236,83.297,65.739,87.086z"/><circle class="st4" cx="112.807" cy="83.166" r="1.122"/><circle class="st4" cx="110.015" cy="72.554" r="1.122"/><circle class="st4" cx="116.075" cy="76.711" r="1.122"/><circle class="st4" cx="8.565" cy="83.166" r="1.122"/><circle class="st4" cx="11.357" cy="72.554" r="1.122"/><circle class="st4" cx="5.296" cy="76.711" r="1.122"/><g><path class="st4" d="M80.767,38.4c-1.782,0-3.227,0.985-3.227,2.201c0,1.215,1.445,2.2,3.227,2.2s3.227-0.985,3.227-2.2       C83.994,39.385,82.549,38.4,80.767,38.4z"/><path class="st4" d="M43.258,38.4c-1.782,0-3.227,0.985-3.227,2.201c0,1.215,1.445,2.2,3.227,2.2       c1.782,0,3.227-0.985,3.227-2.2C46.485,39.385,45.04,38.4,43.258,38.4z"/></g><g><g><path class="st2" d="M42.757,76.567c-1.098,4.678-0.918,9.631-1.105,14.501c-0.234,6.086,1.079,12.039,1.952,13.765        c0.29,0.574,0.648,1.103,0.827,1.751c0.18,0.649,0.124,1.484-0.299,1.888c-0.874-0.058-1.748-0.116-2.622-0.174        c-0.628-0.042-1.276-0.079-1.864,0.213c-0.588,0.292-1.106,1.006-1.097,1.839c0.004,0.417,0.137,0.833,0.075,1.242        c-0.137,0.905-1.113,1.102-1.722,0.656s-1.009-1.265-1.566-1.82c-0.802-0.799-1.932-0.978-2.854-0.451        c-0.736,0.421-1.535,1.261-2.233,0.738c-0.438-0.329-0.589-1.09-0.524-1.751c0.065-0.661,0.297-1.27,0.454-1.904        c0.714-2.899-0.364-6.626-0.569-9.6c-0.245-3.557-0.264-7.144-0.13-10.71c0.285-7.569,0.094-15.68,2.278-22.722L42.757,76.567        z"/></g></g><g><g><path class="st2" d="M81.396,76.567c1.098,4.678,0.918,9.631,1.105,14.501c0.234,6.086-1.079,12.039-1.952,13.765        c-0.29,0.574-0.648,1.103-0.827,1.751c-0.18,0.649-0.124,1.484,0.299,1.888c0.874-0.058,1.748-0.116,2.622-0.174        c0.628-0.042,1.276-0.079,1.864,0.213c0.588,0.292,1.106,1.006,1.097,1.839c-0.004,0.417-0.137,0.833-0.075,1.242        c0.137,0.905,1.113,1.102,1.722,0.656c0.609-0.446,1.009-1.265,1.566-1.82c0.802-0.799,1.932-0.978,2.854-0.451        c0.736,0.421,1.535,1.261,2.233,0.738c0.438-0.329,0.589-1.09,0.524-1.751c-0.065-0.661-0.297-1.27-0.454-1.904        c-0.714-2.899,0.364-6.626,0.569-9.6c0.245-3.557,0.264-7.144,0.13-10.71c-0.285-7.569-0.821-14.873-3.005-21.915        L81.396,76.567z"/></g></g><g><path class="st0" d="M118.056,70.693c-4.223-5.327-12.296-5.506-20.275-0.525c-0.297-0.267-0.634-0.513-0.964-0.756       c-0.358-0.263-0.765-0.561-0.935-0.768c-1.012-1.229-1.786-2.592-2.304-4.015c-0.077-0.272-0.14-0.55-0.224-0.82       c-0.021-0.066-0.063-0.117-0.095-0.175c-0.285-1.04-0.435-2.102-0.435-3.161c0-0.553-0.447-1-1-1s-1,0.447-1,1       c0,1.505,0.267,3.01,0.754,4.466l0.01-0.011c1.627,5.589,1.808,11.875,1.969,17.967c0.035,1.307,0.069,2.606,0.118,3.894       c0.144,3.799,0.102,7.267-0.129,10.604c-0.061,0.893-0.205,1.863-0.358,2.891c-0.354,2.377-0.72,4.834-0.183,7.017       c0.052,0.212,0.112,0.421,0.172,0.63c0.114,0.396,0.222,0.77,0.258,1.131c0.034,0.356-0.032,0.658-0.092,0.792       c-0.163-0.072-0.429-0.254-0.599-0.371c-0.194-0.133-0.388-0.265-0.575-0.372c-1.306-0.747-2.938-0.503-4.056,0.61       c-0.289,0.287-0.522,0.604-0.747,0.909c-0.244,0.331-0.475,0.645-0.704,0.813c-0.06,0.044-0.13,0.04-0.143,0       c-0.016-0.104,0.007-0.277,0.031-0.461c0.027-0.206,0.053-0.413,0.055-0.619c0.012-1.144-0.651-2.247-1.652-2.745       c-0.841-0.419-1.73-0.356-2.374-0.315l-1.947,0.129c-0.013-0.162-0.003-0.368,0.056-0.579c0.099-0.356,0.288-0.701,0.489-1.066       c0.091-0.165,0.182-0.33,0.267-0.499c0.99-1.959,2.292-8.163,2.058-14.255c-0.041-1.084-0.064-2.172-0.088-3.26       c-0.082-3.784-0.166-7.698-1.042-11.432c-0.127-0.539-0.666-0.867-1.202-0.745c-0.538,0.126-0.871,0.664-0.745,1.202       c0.828,3.529,0.91,7.336,0.989,11.018c0.023,1.1,0.048,2.198,0.09,3.293c0.079,2.042-0.023,4.058-0.22,5.893       c-0.077,0.021-0.152,0.049-0.222,0.087c-10.403,5.684-23.244,5.664-38.16-0.056c-0.008-0.003-0.017-0.002-0.024-0.004       c-0.199-1.843-0.302-3.868-0.224-5.92c0.042-1.092,0.066-2.188,0.089-3.284c0.079-3.685,0.161-7.494,0.99-11.026       c0.126-0.538-0.208-1.076-0.745-1.202c-0.539-0.124-1.076,0.208-1.202,0.745c-0.876,3.736-0.961,7.652-1.042,11.44       c-0.023,1.085-0.046,2.17-0.088,3.251c-0.234,6.094,1.068,12.297,2.058,14.255c0.085,0.168,0.176,0.333,0.267,0.498       c0.201,0.366,0.391,0.711,0.489,1.068c0.059,0.211,0.068,0.416,0.056,0.578l-1.946-0.129c-0.647-0.042-1.534-0.102-2.377,0.315       c-1,0.498-1.664,1.602-1.651,2.745c0.002,0.206,0.027,0.413,0.055,0.618c0.024,0.185,0.047,0.357,0.038,0.493       c-0.022,0.01-0.094,0.009-0.149-0.031c-0.229-0.168-0.461-0.481-0.706-0.813c-0.225-0.306-0.458-0.621-0.745-0.907       c-1.118-1.114-2.748-1.36-4.057-0.611c-0.188,0.108-0.381,0.239-0.575,0.372c-0.169,0.116-0.432,0.297-0.595,0.37       c-0.064-0.141-0.129-0.439-0.095-0.789c0.036-0.363,0.144-0.738,0.258-1.135c0.06-0.208,0.12-0.417,0.172-0.628       c0.538-2.183,0.171-4.642-0.183-7.019c-0.153-1.027-0.297-1.997-0.359-2.889c-0.229-3.336-0.271-6.805-0.128-10.604       c0.039-1.048,0.072-2.118,0.106-3.202c0.211-6.843,0.43-13.918,2.272-19.857c0.006-0.021,0.001-0.042,0.006-0.062       c0.253-1.052,0.393-2.122,0.393-3.193V45.378c0-7.731,3.526-14.873,9.675-19.592c0.328-0.251,0.467-0.678,0.351-1.074       c-0.258-0.881-0.389-1.782-0.389-2.679c0-5.244,4.266-9.511,9.51-9.511c4.464,0,8.273,3.04,9.264,7.394       c0.104,0.455,0.508,0.778,0.975,0.778h1.666c0.467,0,0.872-0.323,0.975-0.778c0.99-4.354,4.801-7.394,9.265-7.394       c5.244,0,9.51,4.267,9.51,9.511c0,1.515-0.354,2.972-1.052,4.331c-0.202,0.394-0.121,0.873,0.198,1.18       c4.614,4.417,7.311,10.354,7.594,16.718c0.024,0.553,0.53,0.973,1.043,0.955c0.552-0.024,0.979-0.492,0.955-1.043       c-0.295-6.64-3.021-12.85-7.692-17.567c0.634-1.45,0.954-2.985,0.954-4.573c0-6.347-5.163-11.511-11.51-11.511       c-5.134,0-9.553,3.321-11.01,8.172h-0.126c-1.457-4.851-5.875-8.172-11.009-8.172c-6.347,0-11.51,5.164-11.51,11.511       c0,0.862,0.1,1.728,0.296,2.579c-6.321,5.099-9.933,12.63-9.933,20.766v15.095c0,0.974-0.135,1.95-0.376,2.91       c-0.051,0.169-0.092,0.347-0.14,0.519c-0.502,1.685-1.358,3.305-2.541,4.742c-0.611,0.742-1.173,1.554-1.678,2.423       c-8.305-5.865-18.065-6.092-22.596-0.374c-4.722,5.962-1.702,16.247,6.731,22.93c5.872,4.651,12.777,6.392,18.066,4.977       c0.075,0.64,0.164,1.293,0.266,1.976c0.26,1.742,0.52,3.528,0.392,5.094c-0.903-1.114-1.977-1.804-3.231-2.006       c-0.266-0.042-0.531-0.063-0.794-0.063c-1.398,0-2.753,0.56-3.878,1.235c0.116-0.997-0.06-1.863-0.527-2.592       c-0.468-0.73-1.158-1.206-1.896-1.515l2.21-0.943c-0.846-0.311-1.694-0.667-2.535-1.093l-3.727,1.591       c-0.451,0.192-0.695,0.685-0.577,1.16s0.563,0.801,1.054,0.756c0.754-0.056,3.076,0.011,3.788,1.126       c0.64,1.002-0.09,2.733-0.814,4.011c-0.25,0.441-0.13,1,0.279,1.3c0.411,0.302,0.98,0.245,1.324-0.128       c0.854-0.919,3.565-3.228,5.777-2.87c1.182,0.192,2.177,1.153,2.958,2.853c-0.021,0.124-0.051,0.242-0.064,0.373       c-0.087,0.882,0.109,2.041,0.919,2.649c1.114,0.837,2.272,0.041,2.894-0.386c0.147-0.102,0.292-0.202,0.435-0.284       c0.531-0.306,1.166-0.195,1.652,0.292c0.18,0.179,0.358,0.421,0.547,0.677c0.308,0.418,0.657,0.892,1.133,1.24       c0.381,0.279,0.837,0.424,1.293,0.424c0.274,0,0.548-0.053,0.806-0.159c0.654-0.272,1.093-0.847,1.203-1.577       c0.059-0.387,0.011-0.741-0.026-1.025c-0.017-0.126-0.036-0.251-0.037-0.377c-0.004-0.428,0.276-0.8,0.542-0.933       c0.358-0.178,0.864-0.146,1.354-0.11l2.622,0.174c0.278,0.011,0.553-0.081,0.756-0.274c0.749-0.713,0.827-1.959,0.573-2.878       c-0.161-0.582-0.429-1.069-0.665-1.498c-0.08-0.145-0.159-0.289-0.234-0.438c-0.4-0.792-0.93-2.679-1.324-5.124       c7.346,2.712,14.218,4.081,20.571,4.081c6.256,0,12.006-1.332,17.22-3.963c-0.392,2.389-0.912,4.227-1.306,5.006       c-0.075,0.148-0.154,0.293-0.234,0.438c-0.236,0.43-0.504,0.916-0.664,1.498c-0.254,0.919-0.176,2.166,0.573,2.879       c0.201,0.192,0.476,0.278,0.755,0.273l2.623-0.174c0.585-0.039,1.021-0.054,1.352,0.11c0.267,0.132,0.548,0.505,0.543,0.934       c-0.001,0.126-0.021,0.251-0.037,0.376c-0.038,0.285-0.085,0.64-0.025,1.025c0.11,0.729,0.548,1.305,1.202,1.577       c0.257,0.106,0.531,0.159,0.806,0.159c0.455,0,0.912-0.145,1.293-0.424c0.477-0.349,0.825-0.822,1.133-1.239       c0.188-0.257,0.367-0.499,0.548-0.679c0.485-0.483,1.117-0.598,1.651-0.291c0.144,0.082,0.288,0.184,0.436,0.284       c0.622,0.429,1.778,1.222,2.896,0.385c0.808-0.607,1.004-1.767,0.918-2.649c-0.054-0.544-0.192-1.024-0.326-1.489       c-0.031-0.108-0.06-0.217-0.089-0.325c0.613-0.804,1.314-1.283,2.102-1.411c2.209-0.35,4.923,1.95,5.776,2.87       c0.347,0.375,0.917,0.429,1.324,0.128c0.41-0.3,0.53-0.858,0.28-1.3c-0.725-1.277-1.454-3.009-0.814-4.01       c0.714-1.117,3.035-1.184,3.789-1.127c0.485,0.048,0.936-0.279,1.054-0.756c0.118-0.476-0.126-0.968-0.577-1.16l-1.183-0.505       c-1.018,0.376-2.034,0.668-3.037,0.878l0.169,0.072c-0.738,0.309-1.428,0.785-1.896,1.515       c-0.467,0.729-0.643,1.595-0.526,2.592c-1.336-0.803-2.993-1.44-4.673-1.173c-0.752,0.121-1.433,0.435-2.058,0.891       c0.026-1.272,0.228-2.638,0.427-3.977c0.082-0.551,0.16-1.086,0.227-1.608c4.962,0.518,10.881-1.346,15.931-5.347       C119.758,86.941,122.777,76.654,118.056,70.693z M11.899,92.054c-7.57-5.997-10.443-15.022-6.406-20.119       c3.842-4.848,12.748-4.366,20.125,0.964v4.934c0,0.553,0.448,1,1,1s1-0.447,1-1V73.16c0.042-0.053,0.097-0.095,0.128-0.156       c0.491-0.976,1.07-1.863,1.7-2.681c-0.581,4.377-0.728,8.967-0.859,13.2c-0.034,1.08-0.066,2.146-0.106,3.188       c-0.013,0.332-0.016,0.649-0.025,0.977c-9.784-7.305-17.797-11.8-17.888-11.852c-0.482-0.266-1.091-0.095-1.36,0.388       c-0.269,0.482-0.096,1.091,0.387,1.36c0.094,0.052,8.631,4.843,18.813,12.569c-0.018,2.211,0.034,4.327,0.153,6.386       C23.847,97.954,17.324,96.352,11.899,92.054z M110.081,92.054c-4.664,3.695-10.077,5.429-14.511,4.942       c0.169-2.693,0.217-5.481,0.15-8.447c9.206-6.778,16.578-10.916,16.666-10.964c0.482-0.27,0.656-0.878,0.388-1.36       c-0.271-0.483-0.882-0.653-1.36-0.388c-0.086,0.048-6.969,3.91-15.759,10.283c-0.037-1.087-0.07-2.178-0.098-3.278       c-0.111-4.163-0.232-8.417-0.804-12.525c0.268,0.239,0.56,0.471,0.882,0.707c0.343,0.252,0.744,0.55,0.971,0.79v4.897       c0,0.553,0.447,1,1,1s1-0.447,1-1v-4.686c7.15-4.564,14.292-4.624,17.884-0.09C120.525,77.031,117.651,86.058,110.081,92.054z"/><path class="st0" d="M91.81,48.581c-0.001,0-0.002,0-0.002,0c-0.553,0.001-0.999,0.45-0.998,1.002l0.013,5.639       c0.001,0.552,0.448,0.998,1,0.998c0.001,0,0.002,0,0.002,0c0.553-0.001,0.999-0.45,0.998-1.002l-0.013-5.639       C92.809,49.027,92.362,48.581,91.81,48.581z"/><path class="st0" d="M51.122,25.024c1.652,0,2.991-1.339,2.991-2.991c0-1.652-1.339-2.991-2.991-2.991       c-1.652,0-2.991,1.339-2.991,2.991C48.131,23.685,49.47,25.024,51.122,25.024z"/><path class="st0" d="M77.54,22.033c0-1.652-1.339-2.991-2.991-2.991c-1.652,0-2.991,1.339-2.991,2.991       c0,1.652,1.339,2.991,2.991,2.991C76.2,25.024,77.54,23.685,77.54,22.033z"/><path class="st0" d="M47.091,48.55c-0.004,0-0.008,0-0.011,0c-0.466-0.013-1.06-0.725-1.316-1.202       c-0.257-0.487-0.86-0.678-1.349-0.42c-0.489,0.256-0.678,0.86-0.422,1.35c0.107,0.205,1.021,1.842,2.536,2.193       c0.708,5.587,7.77,9.994,16.365,9.994c8.605,0,15.674-4.417,16.366-10.015c0.864-0.241,1.657-0.946,2.364-2.12       c0.285-0.473,0.133-1.088-0.341-1.372c-0.473-0.286-1.088-0.132-1.372,0.341c-0.479,0.797-0.964,1.252-1.33,1.252       c-0.004,0-0.007,0-0.011,0c-0.466-0.013-1.062-0.726-1.317-1.204c-0.257-0.486-0.86-0.676-1.348-0.418       c-0.489,0.256-0.679,0.86-0.422,1.35c0.089,0.17,0.723,1.323,1.793,1.918c-0.539,4.614-6.775,8.269-14.382,8.269       c-7.649,0-13.91-3.696-14.388-8.346c0.582-0.365,1.128-0.957,1.629-1.789c0.285-0.473,0.132-1.088-0.341-1.372       c-0.472-0.285-1.087-0.131-1.373,0.341C47.941,48.095,47.457,48.55,47.091,48.55z"/></g></g></g></g></g></svg>