<?xml version="1.0" encoding="UTF-8" standalone="no"?>
<!-- Created with Inkscape (http://www.inkscape.org/) -->

<svg
   xmlns:dc="http://purl.org/dc/elements/1.1/"
   xmlns:cc="http://creativecommons.org/ns#"
   xmlns:rdf="http://www.w3.org/1999/02/22-rdf-syntax-ns#"
   xmlns:svg="http://www.w3.org/2000/svg"
   xmlns="http://www.w3.org/2000/svg"
   xmlns:sodipodi="http://sodipodi.sourceforge.net/DTD/sodipodi-0.dtd"
   xmlns:inkscape="http://www.inkscape.org/namespaces/inkscape"
   width="144.30476mm"
   height="177.36508mm"
   viewBox="0 0 511.31609 628.45895"
   id="svg2"
   version="1.1"
   inkscape:version="0.91 r13725"
   sodipodi:docname="FroggyRed.svg">
  <defs
     id="defs4" />
  <sodipodi:namedview
     id="base"
     pagecolor="#ffffff"
     bordercolor="#666666"
     borderopacity="1.0"
     inkscape:pageopacity="0.0"
     inkscape:pageshadow="2"
     inkscape:zoom="0.35"
     inkscape:cx="1449.2357"
     inkscape:cy="-378.1861"
     inkscape:document-units="px"
     inkscape:current-layer="layer1"
     showgrid="false"
     inkscape:window-width="1920"
     inkscape:window-height="1053"
     inkscape:window-x="-9"
     inkscape:window-y="-9"
     inkscape:window-maximized="1"
     fit-margin-top="2"
     fit-margin-right="2"
     fit-margin-left="2"
     fit-margin-bottom="2" />
  <metadata
     id="metadata7">
    <rdf:RDF>
      <cc:Work
         rdf:about="">
        <dc:format>image/svg+xml</dc:format>
        <dc:type
           rdf:resource="http://purl.org/dc/dcmitype/StillImage" />
        <dc:title></dc:title>
      </cc:Work>
    </rdf:RDF>
  </metadata>
  <g
     inkscape:label="Layer 1"
     inkscape:groupmode="layer"
     id="layer1"
     transform="translate(-117.1991,-222.41845)">
    <circle
       style="fill:#ff2a2a;fill-opacity:1"
       id="path3336"
       cx="375.71429"
       cy="508.07648"
       r="175.71428" />
    <path
       style="fill:#00ff00;fill-opacity:1"
       id="path3346"
       d="m 322.67787,612.29359 c -9.42254,7.38308 -18.426,15.28006 -27.75166,22.7933 -6.85405,5.34648 -12.79524,11.71618 -19.30646,17.47623 -6.58819,5.67602 -12.28269,12.11553 -17.52828,19.01617 -4.17083,6.12805 -9.75671,11.04377 -13.4385,17.50281 -1.85419,4.73939 -3.28024,9.70511 -4.46954,14.66213 -1.05809,5.03141 -0.88401,10.18313 -1.84933,15.22456 -1.08946,5.13229 -2.95697,10.01917 -4.00122,15.16503 -0.95017,5.49491 -1.04608,11.08383 -1.13073,16.64474 -0.0499,5.71158 -0.0241,11.42349 -0.0129,17.13518 0.20184,5.86073 -1.17129,11.60346 -1.93901,17.38156 -0.39194,3.73825 -0.22078,1.86713 -0.51354,5.61335 0,0 -37.97316,19.0217 -37.97316,19.0217 l 0,0 c 0.23033,-3.8768 0.092,-1.93834 0.41522,-5.81535 0.63106,-5.65788 2.04506,-11.23342 2.17165,-16.91237 -0.0106,-5.72868 -0.0332,-11.45741 -0.0133,-17.18609 0.0461,-5.7593 0.0912,-11.53635 0.81089,-17.2596 0.80014,-5.26389 2.35873,-10.23641 3.87801,-15.30106 1.25463,-5.01985 1.33846,-10.03855 1.88181,-15.18152 0.94226,-5.34952 2.87904,-10.38777 4.09413,-15.66863 3.17737,-7.51444 6.00299,-8.9801 10.86158,-14.85444 0.88492,-1.06993 1.56185,-2.29606 2.34278,-3.44409 5.33412,-7.02128 10.60616,-13.96075 17.26597,-19.81966 3.3485,-2.93275 6.8607,-5.75767 10.07065,-8.8421 2.05991,-1.97936 3.70617,-4.36564 5.79722,-6.31208 1.03625,-0.96458 2.25295,-1.71498 3.37943,-2.57248 9.53857,-7.17912 18.52495,-15.01574 27.56293,-22.80033 0,0 39.39538,-15.66696 39.39538,-15.66696 z"
       inkscape:connector-curvature="0" />
    <path
       style="fill:#ff2a2a;fill-opacity:1"
       id="path3348"
       d="m 494.84937,596.86662 c 11.75622,7.30311 21.38766,17.10017 31.07373,26.83382 10.75533,11.34544 20.52025,23.59675 29.90129,36.08942 6.07584,7.92114 10.45835,16.79414 14.97638,25.61869 2.83023,4.89598 3.84064,10.4536 5.57858,15.75842 1.20656,5.5663 3.31529,10.84103 5.0915,16.23645 2.1133,5.89493 2.21548,12.17507 3.23327,18.27396 1.3017,5.02241 2.03736,10.13268 2.44711,15.29638 0.10995,3.9037 0.88523,7.73007 1.23852,11.61278 0,0 -37.7217,19.4883 -37.7217,19.4883 l 0,0 c -0.0655,-3.91787 -1.17027,-7.6255 -1.24434,-11.53932 -0.31365,-5.01806 -0.88676,-10.00621 -2.22542,-14.86965 -1.19547,-5.89776 -0.89301,-12.06608 -2.88789,-17.83333 -1.73155,-5.40396 -4.14805,-10.56607 -5.20852,-16.16698 -1.66456,-5.12824 -2.54789,-10.49296 -5.11519,-15.29769 -4.2399,-8.69429 -8.43743,-17.36764 -14.21674,-25.20597 -9.1173,-12.43224 -18.8081,-24.50191 -29.4968,-35.6246 -9.53283,-9.55973 -19.16606,-19.06954 -31.08287,-25.69044 0,0 35.65909,-22.98024 35.65909,-22.98024 z"
       inkscape:connector-curvature="0" />
    <path
       style="fill:#00ff00;fill-opacity:1"
       id="path3364"
       d="m 449.93614,451.03537 c 6.15876,-4.85848 12.18013,-9.84669 17.82192,-15.30001 5.98012,-5.80834 11.92874,-11.64957 17.35653,-17.98224 4.14413,-5.05127 8.00859,-10.31975 11.85884,-15.59562 2.96225,-4.06653 5.61616,-8.30486 7.84503,-12.81192 2.19656,-4.87417 6.07125,-8.681 9.51332,-12.68818 1.88815,-2.48418 4.30664,-4.55659 6.0451,-7.14835 2.01488,-3.11726 4.48231,-5.89587 6.41036,-9.07144 1.97533,-3.97227 4.69912,-7.50244 7.22995,-11.12708 2.49044,-3.28515 3.96389,-7.15041 5.77482,-10.81847 1.66612,-3.5233 2.81013,-7.27068 3.89299,-11.00724 0.87867,-2.51067 1.79223,-4.96681 2.22869,-7.59887 0.34783,-2.70585 0.34464,-5.44014 0.35926,-8.16343 -0.22739,-3.00376 0.40241,-5.92807 0.80436,-8.88321 0.43806,-3.56823 0.53023,-7.16603 0.59099,-10.75674 0.0503,-3.32854 0.042,-6.65738 0.033,-9.98615 -0.01,-2.98229 -0.0147,-5.96459 -0.0174,-8.94689 0.1813,-3.41303 -0.37643,-6.78333 -0.78067,-10.15959 -0.51064,-2.72589 -1.13732,-5.42296 -1.56105,-8.16505 0,0 18.76798,-9.90398 18.76798,-9.90398 l 0,0 c 0.37057,2.77422 0.95268,5.50374 1.55108,8.23688 0.38662,3.44552 1.08945,6.87126 0.94205,10.35095 -4.6e-4,2.98542 -10e-4,5.97084 -0.004,8.95627 -0.003,3.34073 0.007,6.68166 -0.02,10.02225 -0.0625,3.65809 -0.17466,7.3172 -0.49618,10.96317 -0.32851,2.88981 -1.04639,5.719 -0.88482,8.63608 -0.002,2.8041 0.013,5.61352 -0.21962,8.41024 -0.30358,2.74109 -0.88969,5.39682 -2.15293,7.8754 -1.01398,3.86379 -2.29732,7.67873 -3.79643,11.3783 -1.75207,3.76111 -3.32783,7.67384 -5.64813,11.11391 -2.4291,3.63157 -5.30558,7.03096 -7.26036,10.93152 -1.68799,3.2853 -3.9524,6.24534 -6.35966,9.01968 -1.41167,3.21001 -3.85352,4.92201 -5.98182,7.65289 -3.68084,3.99696 0.47582,-0.58836 -3.40385,3.94223 -2.25056,2.62815 -5.00877,4.90753 -6.29782,8.21608 -2.29008,4.58172 -4.72473,9.03892 -7.79119,13.16729 -3.83351,5.35653 -7.85181,10.57988 -11.88681,15.78522 -5.41149,6.44407 -11.35227,12.38273 -17.42412,18.20776 -5.43587,5.5061 -11.29294,10.50351 -17.37676,15.27999 0,0 -19.66292,7.96835 -19.66292,7.96835 z"
       inkscape:connector-curvature="0" />
    <path
       style="fill:#ff2a2a;fill-opacity:1"
       id="path3366"
       d="m 223.55531,458.54377 c -10.9348,-7.15829 -21.07852,-15.38147 -31.04381,-23.81115 -8.41099,-7.39736 -16.15831,-15.53126 -23.01102,-24.38965 -3.5452,-4.72799 -6.07984,-10.07388 -8.80064,-15.28417 -1.89157,-3.45791 -2.78785,-7.28993 -3.75703,-11.07272 -1.16237,-3.77174 -1.42924,-7.71469 -2.04266,-11.58786 -0.55879,-4.25403 -1.63182,-8.41291 -2.30188,-12.64997 -0.51817,-3.42031 -0.56908,-6.88448 -0.62157,-10.33617 -0.12676,-2.93336 0.15549,-5.88816 -0.13327,-8.81174 -0.58529,-2.62988 -0.92687,-5.28169 -1.10525,-7.96721 -0.17069,-3.12273 -0.18944,-6.25092 -0.20323,-9.37745 0.0931,-1.42416 -0.11723,-2.82552 -0.3292,-4.22686 0,0 18.75971,-9.94128 18.75971,-9.94128 l 0,0 c 0.25773,1.49681 0.60675,2.99598 0.48085,4.52664 10e-4,3.08987 -0.003,6.18131 0.13615,9.26876 0.15382,2.63607 0.43416,5.2526 1.07151,7.82228 0.47024,2.9905 0.0872,6.0418 0.20539,9.05992 0.0215,3.36842 0.0528,6.74555 0.46492,10.09377 0.5787,4.23902 1.59536,8.38631 2.29482,12.60265 0.68266,3.80559 0.73533,7.72727 1.91284,11.44713 0.9636,3.62748 1.77686,7.31637 3.5376,10.67012 2.57059,5.14583 4.94778,10.42876 8.29783,15.13727 6.66106,8.79634 14.34709,16.7652 22.5012,24.18814 9.87301,8.46374 19.99852,16.70898 31.38815,23.08298 0,0 -17.70141,11.55657 -17.70141,11.55657 z"
       inkscape:connector-curvature="0" />
    <ellipse
       style="fill:#00ff00;fill-opacity:1"
       id="path3368"
       cx="153.57143"
       cy="303.79077"
       rx="29.285715"
       ry="18.571428" />
    <ellipse
       style="fill:#00ff00;fill-opacity:1"
       id="path3370"
       cx="546.42859"
       cy="249.50507"
       rx="26.428572"
       ry="20" />
    <ellipse
       style="fill:#00ff00;fill-opacity:1"
       id="path3380"
       cx="210"
       cy="808.79077"
       rx="51.42857"
       ry="35" />
    <ellipse
       style="fill:#ff2a2a;fill-opacity:1"
       id="path3382"
       cx="570.71429"
       cy="788.07648"
       rx="50.714287"
       ry="28.571428" />
    <ellipse
       style="fill:#e2e3db;fill-opacity:1"
       id="path4188"
       cx="285"
       cy="368.79077"
       rx="50.714287"
       ry="45" />
    <ellipse
       style="fill:#e2e3db;fill-opacity:1"
       id="path4188-2"
       cx="422.85712"
       cy="348.07648"
       rx="50.714287"
       ry="45" />
    <ellipse
       style="fill:#112b00;fill-opacity:1"
       id="path4205"
       cx="425.71429"
       cy="324.50507"
       rx="11.428572"
       ry="10.714286" />
    <ellipse
       style="fill:#112b00;fill-opacity:1"
       id="path4207"
       cx="278.57144"
       cy="348.79077"
       rx="12.857142"
       ry="9.2857141" />
    <path
       style="fill:#ff2a2a;fill-opacity:1"
       d="m 200.32861,842.3379 c -32.37778,-4.87055 -49.35283,-27.05908 -36.36679,-47.53594 4.53822,-7.15604 14.96884,-14.21704 25.19494,-17.0557 l 5.83116,-1.61867 1.47968,-14.41083 c 1.33477,-12.99958 3.19398,-23.90848 7.85916,-46.1138 3.07778,-14.64956 17.1355,-32.41887 48.07305,-60.76553 l 11.93136,-10.93215 -12.34372,-12.42736 c -19.87251,-20.00719 -36.94015,-48.44583 -44.08613,-73.4577 -9.25325,-32.3876 -8.86658,-74.53742 0.94306,-102.80136 1.21651,-3.50504 2.07958,-6.43147 1.91795,-6.50318 -2.83631,-1.25839 -25.86847,-21.73835 -31.81602,-28.29046 -13.87888,-15.28967 -19.09709,-25.88366 -22.94242,-46.57759 -1.83657,-9.88365 -3.73892,-25.56944 -4.22744,-34.85733 -0.56811,-10.80089 -1.47874,-17.04916 -2.52668,-17.33685 -0.90116,-0.24738 -4.38126,-1.19506 -7.73357,-2.10595 -3.35232,-0.91089 -8.33446,-3.62233 -11.07143,-6.02543 -4.00305,-3.51472 -4.97632,-5.40564 -4.97632,-9.66828 0,-10.28949 11.73752,-17.28822 28.88269,-17.2219 12.94149,0.0501 21.88791,4.04885 26.01856,11.62954 2.44523,4.48754 2.54108,5.58693 0.84424,9.68347 -1.05279,2.54166 -4.2762,6.18432 -7.16314,8.0948 l -5.24898,3.47361 0.58327,11.75346 c 0.3208,6.46439 1.84457,19.78916 3.38616,29.61059 3.86777,24.64142 8.81624,34.45547 26.84348,53.23729 7.4352,7.74641 14.59157,14.65865 15.90305,15.36054 1.96024,1.04909 3.83926,-1.06384 10.56052,-11.87513 4.4968,-7.2332 10.03059,-15.34616 12.29731,-18.0288 l 4.1213,-4.87751 6.52906,6.01827 c 9.34784,8.61654 17.64503,11.87334 32.29717,12.67728 14.57618,0.79978 24.36988,-1.57498 34.69187,-8.41198 19.09877,-12.6505 25.14954,-35.44713 14.77536,-55.66708 l -4.88296,-9.5172 10.85196,-2.41838 c 5.96857,-1.33011 16.83487,-2.78991 24.14734,-3.244 l 13.2954,-0.82562 -1.15254,4.14331 c -2.0932,7.5249 -1.0693,19.51507 2.33177,27.30582 4.03514,9.24316 14.54408,19.31212 25.48987,24.42266 7.04943,3.29135 10.03834,3.81593 21.81419,3.82865 12.94774,0.0143 14.21027,-0.26438 24.68957,-5.44353 8.26974,-4.08713 12.44445,-7.2299 16.6188,-12.51085 3.06611,-3.87892 5.98127,-8.33341 6.47813,-9.89888 0.49685,-1.56546 1.3744,-2.84629 1.9501,-2.84629 1.5077,0 18.3525,13.5533 25.90648,20.8443 l 6.43144,6.20756 9.7978,-11.9655 c 14.00658,-17.10543 24.40729,-34.09448 28.69459,-46.87117 3.212,-9.57216 3.83644,-14.43442 4.6137,-35.92454 l 0.89891,-24.85402 -8.41672,-1.74731 c -16.92949,-3.51455 -24.50778,-17.69256 -15.30359,-28.6311 5.07614,-6.03266 11.31697,-8.48679 21.58184,-8.48679 19.84743,0 31.34029,14.85848 21.91643,28.33451 -2.25401,3.22321 -2.79731,7.64951 -3.53608,28.80835 -0.90445,25.90361 -2.30979,32.9737 -9.2637,46.60451 -3.8483,7.54329 -18.67859,29.29683 -26.35003,38.65106 -3.33712,4.06913 -8.50622,11.37687 -11.4869,16.23941 l -5.41945,8.841 7.02529,10.18916 c 35.37396,51.3047 40.99539,117.90336 14.62211,173.23223 -3.79397,7.95941 -9.58505,18.42834 -12.86907,23.26427 l -5.97095,8.79262 12.15952,12.91701 c 16.23105,17.24216 32.61848,39.11667 39.32759,52.49584 9.69963,19.34282 17.02736,47.49132 20.45707,78.58315 0.30323,2.74887 2.07307,3.9956 9.45804,6.66251 11.04609,3.98903 18.59106,9.76509 22.17073,16.97281 11.86839,23.89718 -39.07154,43.67188 -76.17864,29.57228 -24.58984,-9.3434 -28.89374,-29.05723 -9.08616,-41.61883 3.6912,-2.34089 7.18645,-4.25617 7.76717,-4.25617 0.58075,0 2.6008,-0.58738 4.48905,-1.30529 l 3.43314,-1.30527 -2.51746,-13.33759 c -7.43514,-39.39167 -20.246,-64.5261 -49.16067,-96.45144 l -9.33073,-10.30227 -11.05,7.93628 c -55.51621,39.87259 -129.30164,43.30983 -189.37334,8.82185 l -12.60904,-7.23903 -4.37137,4.09138 c -2.40426,2.25026 -9.40256,10.36206 -15.55178,18.02625 -11.92841,14.86717 -14.61945,20.93998 -16.93108,38.20798 -0.68368,5.10715 -2.26495,13.1172 -3.51394,17.80015 -1.54959,5.80998 -2.27089,14.71845 -2.27089,28.04664 l 0,19.53221 7.82035,3.82615 c 9.13758,4.4706 17.32342,13.37081 19.40395,21.09732 6.30003,23.39649 -25.76595,44.80513 -59.507,39.7295 z"
       id="path4146"
       inkscape:connector-curvature="0" />
    <path
       style="fill:#ff2a2a;fill-opacity:1"
       d="m 192.61702,840.0084 c -17.12795,-4.60188 -30.1256,-15.72862 -32.11273,-27.49035 -2.19646,-13.0007 8.77774,-26.76119 26.49421,-33.22093 9.16591,-3.34206 8.64915,-2.28119 10.71214,-21.99119 1.75812,-16.79725 8.00959,-45.59184 11.31399,-52.11275 5.36994,-10.59708 14.07195,-20.83415 35.46202,-41.71766 l 20.01879,-19.54472 -10.39106,-11.12664 c -17.89246,-19.15907 -27.56668,-33.13126 -37.25602,-53.80777 -17.1455,-36.58754 -19.45631,-82.92807 -6.35609,-127.46381 0.68967,-2.34463 -1.39216,-4.81495 -10.62115,-12.60313 -17.35642,-14.6468 -29.48426,-28.47487 -35.10815,-40.03005 -5.84272,-12.0048 -9.84103,-30.836 -12.15205,-57.23362 -0.89066,-10.17351 -1.92718,-18.99533 -2.30338,-19.60403 -0.37621,-0.60871 -3.1312,-1.76571 -6.12221,-2.5711 -7.31384,-1.96941 -14.7461,-7.15448 -17.01362,-11.86945 -2.7846,-5.79013 1.02851,-12.88441 8.99918,-16.74294 8.57392,-4.15057 26.69305,-4.23973 34.6692,-0.1706 11.34172,5.78611 13.42988,14.76841 5.23093,22.50102 -2.80594,2.64635 -5.78688,4.81154 -6.6243,4.81154 -1.80532,0 -0.55141,20.54694 2.49058,40.81125 2.52107,16.79422 6.67014,29.13486 13.00348,38.67643 7.00732,10.55699 29.73687,33.57942 32.21382,32.62892 1.0985,-0.42153 5.65398,-6.37379 10.12329,-13.22723 4.46931,-6.85344 9.63676,-14.3295 11.48322,-16.61349 l 3.35721,-4.15267 7.60503,6.01143 c 12.18287,9.63 15.60352,10.68292 35.02082,10.77982 19.92015,0.0994 25.93568,-1.87943 37.15708,-12.22295 15.4997,-14.28713 18.64187,-34.30195 8.4071,-53.55092 -1.94378,-3.65575 -3.34804,-6.77738 -3.1206,-6.93696 1.9719,-1.38346 34.24769,-6.12711 43.98499,-6.46459 0.39286,-0.0136 0.7215,5.60024 0.73031,12.47524 0.0199,15.47142 3.0452,22.4723 14.31863,33.13422 10.81089,10.2245 18.40324,13.34164 34.23677,14.0564 14.80275,0.66823 24.93715,-2.25754 35.36207,-10.2089 5.77483,-4.40462 14.40032,-14.48575 15.68352,-18.33031 0.82327,-2.46656 9.65771,3.65802 22.71663,15.74858 11.74527,10.87431 10.04143,11.52249 26.26438,-9.99144 21.9975,-29.17176 25.98883,-39.96252 27.8132,-75.19448 0.92847,-17.9303 0.85632,-25.48127 -0.25005,-26.16504 -0.85535,-0.52863 -3.92809,-1.34059 -6.82832,-1.80436 -11.90436,-1.90358 -21.72476,-13.43191 -18.55158,-21.77799 3.55381,-9.34724 11.07672,-13.75239 23.4857,-13.75239 10.5303,0 19.64501,4.10933 22.84644,10.30022 2.84556,5.50268 2.74067,8.40106 -0.57707,15.94675 -2.11175,4.80282 -3.08997,12.09746 -4.21797,31.45313 -2.04622,35.1113 -4.02146,40.10567 -30.14789,76.22847 -16.42751,22.71293 -21.4562,30.21134 -21.4562,31.99394 0,0.81355 3.58077,6.97255 7.95726,13.68668 20.66145,31.69747 30.19885,65.84091 28.74084,102.89081 -1.05664,26.85079 -5.49033,45.01901 -16.73381,68.57143 -3.00068,6.28571 -8.07735,15.46811 -11.28146,20.40534 -3.20413,4.93723 -5.82569,9.596 -5.82569,10.35284 0,0.75683 4.38343,6.03872 9.74095,11.73752 20.31028,21.60406 35.99132,42.99036 43.23414,58.96401 7.43494,16.39745 14.11386,42.6328 17.72074,69.60869 l 0.9069,6.78268 10.9541,5.06112 c 15.62373,7.2186 21.72889,13.79208 21.72889,23.39571 0,6.05483 -7.43686,13.99113 -17.62616,18.8099 -29.91816,14.14906 -74.51671,4.69325 -79.889,-16.9381 -2.24856,-9.0538 6.90204,-20.60615 20.23021,-25.54001 3.61386,-1.33779 6.78295,-2.58414 7.0424,-2.76967 0.9488,-0.67845 -5.84935,-31.3769 -9.27834,-41.89823 -4.30416,-13.20667 -12.4048,-29.65327 -20.41603,-41.45033 -8.785,-12.93649 -30.2554,-37.46764 -32.15485,-36.73876 -0.90162,0.34599 -6.95043,4.24553 -13.44182,8.66567 -15.47013,10.53398 -25.78004,15.6364 -43.73401,21.64418 -45.20155,15.12537 -90.58096,11.40794 -135.00562,-11.05955 -10.60027,-5.36101 -20.03954,-9.7473 -20.97617,-9.7473 -2.29377,0 -24.00293,26.06317 -29.15305,35 -2.26396,3.92857 -4.76566,10.35715 -5.55934,14.28572 -6.49123,32.13055 -7.17963,37.6214 -7.14423,56.98463 l 0.0369,20.15822 5.86233,2.70599 c 12.39349,5.72071 21.20682,17.06381 21.20682,27.29401 0,22.82186 -36.0658,39.62206 -67.13715,31.2739 z"
       id="path4148"
       inkscape:connector-curvature="0" />
    <ellipse
       style="fill:#e86c19;fill-opacity:1"
       id="path4152"
       cx="322.14285"
       cy="510.21933"
       rx="15"
       ry="16.428572" />
    <ellipse
       style="fill:#e86c19;fill-opacity:1"
       id="path4154"
       cx="404.99997"
       cy="453.79077"
       rx="16.428572"
       ry="15.714286" />
    <ellipse
       style="fill:#e86c19;fill-opacity:1"
       id="path4156"
       cx="414.28571"
       cy="590.93359"
       rx="14.285714"
       ry="15.714286" />
    <ellipse
       style="fill:#e86c19;fill-opacity:1"
       id="path4160"
       cx="372.14285"
       cy="495.21939"
       rx="17.857143"
       ry="14.285714" />
    <circle
       style="fill:#e86c19;fill-opacity:1"
       id="path4165"
       cx="377.85718"
       cy="541.64789"
       r="15" />
    <ellipse
       style="fill:#e86c19;fill-opacity:1"
       id="path4167"
       cx="422.85715"
       cy="499.50507"
       rx="14.285714"
       ry="17.142857" />
    <ellipse
       style="fill:#e86c19;fill-opacity:1"
       id="path4169"
       cx="320.00003"
       cy="455.93362"
       rx="14.285714"
       ry="15" />
    <ellipse
       style="fill:#e86c19;fill-opacity:1"
       id="path4171"
       cx="366.42856"
       cy="452.36221"
       rx="10.714286"
       ry="11.428572" />
    <ellipse
       style="fill:#e86c19;fill-opacity:1"
       id="path4175"
       cx="354.28574"
       cy="415.21933"
       rx="11.428572"
       ry="14.285714" />
    <ellipse
       style="fill:#e86c19;fill-opacity:1"
       id="path4177"
       cx="334.28571"
       cy="561.64795"
       rx="11.428572"
       ry="12.142858" />
    <ellipse
       style="fill:#e86c19;fill-opacity:1"
       id="path4179"
       cx="383.57141"
       cy="617.3623"
       rx="17.857143"
       ry="19.285713" />
    <ellipse
       style="fill:#e86c19;fill-opacity:1"
       id="path4181"
       cx="420.71429"
       cy="538.79077"
       rx="13.571428"
       ry="15" />
    <ellipse
       style="fill:#e86c19;fill-opacity:1"
       id="path4183"
       cx="413.57141"
       cy="637.36224"
       rx="9.2857141"
       ry="15" />
    <ellipse
       style="fill:#e86c19;fill-opacity:1"
       id="path4189"
       cx="385.00003"
       cy="658.79077"
       rx="10.714286"
       ry="15" />
    <ellipse
       style="fill:#e86c19;fill-opacity:1"
       id="path4193"
       cx="354.28574"
       cy="633.07648"
       rx="10"
       ry="13.571428" />
    <ellipse
       style="fill:#e86c19;fill-opacity:1"
       id="path4199"
       cx="368.57144"
       cy="575.93365"
       rx="12.857142"
       ry="12.142858" />
    <ellipse
       style="fill:#e86c19;fill-opacity:1"
       id="path4201"
       cx="335.71429"
       cy="595.93365"
       rx="8.5714283"
       ry="9.2857141" />
    <path
       style="fill:#ff2a2a;fill-opacity:1"
       d="m 219.82332,426.9664 c -5.8e-4,-0.0239 0.25181,-0.51009 0.731,-1.40832 3.62914,-6.80268 7.64464,-13.27617 12.12215,-19.54241 0.67084,-0.93883 1.81676,-2.50999 1.87663,-2.57303 0.0339,-0.0356 0.0805,-0.0389 0.4729,-0.0335 l 0.43533,0.006 -0.37856,0.53571 c -2.83744,4.0153 -5.72435,8.39132 -9.22871,13.98901 -2.89036,4.6169 -4.30938,6.76683 -5.58808,8.46635 -0.42093,0.55946 -0.44202,0.58615 -0.44266,0.5601 z"
       id="path4166"
       inkscape:connector-curvature="0" />
    <path
       style="fill:#ff2a2a;fill-opacity:1"
       d=""
       id="path4168"
       inkscape:connector-curvature="0" />
    <path
       style="fill:#ff2a2a;fill-opacity:1"
       d="m 253.76065,404.66252 c -1.1753,-0.88214 -2.21418,-1.72602 -3.38559,-2.75012 -0.72146,-0.63073 -0.53309,-0.45834 -5.02547,-4.59934 l -2.84783,-2.62509 -0.0432,0.0445 c -0.0237,0.0245 -0.70593,0.82931 -1.51597,1.78856 -0.81004,0.95925 -1.76074,2.08507 -2.11266,2.50183 -0.6372,0.75458 -1.00764,1.20985 -1.39977,1.72029 -0.43956,0.57218 -1.2105,1.61741 -1.76624,2.39461 l -0.18864,0.26383 -0.44983,0.005 c -0.24741,0.002 -0.45128,0.004 -0.45304,0.004 -0.002,-3.1e-4 0.18569,-0.25245 0.41656,-0.56031 1.89802,-2.53097 3.74843,-4.87102 5.74082,-7.2599 0.75218,-0.90187 1.80137,-2.13532 1.82204,-2.14203 0.006,-0.002 0.0636,0.069 0.12868,0.15745 1.19705,1.626 2.77279,3.44524 4.35678,5.03004 1.83531,1.83626 3.77081,3.48593 5.91047,5.03766 0.30479,0.22103 1.0045,0.713 1.07724,0.75741 0.034,0.0207 0.0355,0.0309 0.0355,0.23096 0,0.1151 -0.005,0.20913 -0.0118,0.20894 -0.007,-2e-4 -0.13613,-0.0936 -0.28805,-0.20767 z"
       id="path4170"
       inkscape:connector-curvature="0" />
    <path
       style="fill:#ff2a2a;fill-opacity:1"
       d="m 269.90968,411.97348 c -6.00918,-1.30823 -10.81268,-3.4361 -15.61075,-6.9153 l -0.23547,-0.17075 0.004,-0.20507 c 0.002,-0.11279 0.005,-0.20664 0.007,-0.20856 0.002,-0.002 0.19492,0.12457 0.4289,0.28109 3.16843,2.11955 6.61478,3.90618 10.24283,5.31 1.67831,0.6494 3.58225,1.2771 5.22833,1.72369 l 0.3354,0.091 0,0.0908 c 0,0.0499 -0.002,0.0903 -0.004,0.0897 -0.002,-5.9e-4 -0.1806,-0.0395 -0.39652,-0.0865 z"
       id="path4172"
       inkscape:connector-curvature="0" />
    <path
       style="fill:#ff2a2a;fill-opacity:1"
       d="m 148.55428,322.04856 c -0.12277,-0.0182 -0.70536,-0.0964 -1.29464,-0.17378 -3.90181,-0.51218 -7.87585,-1.67508 -11.26115,-3.2953 -6.56365,-3.14139 -10.64966,-7.71718 -11.5098,-12.8895 -0.18357,-1.10384 -0.14,-3.33543 0.0848,-4.34289 1.23382,-5.52995 6.10524,-10.31741 13.48974,-13.25728 6.85857,-2.73049 15.25487,-3.52064 23.16964,-2.18043 9.53907,1.61526 17.33575,6.38497 20.27261,12.40199 0.89526,1.8342 1.27837,3.48265 1.27618,5.49108 -0.002,1.984 -0.406,3.70067 -1.28695,5.47066 -0.81369,1.63485 -1.61663,2.75029 -3.02674,4.20471 -2.09053,2.15624 -4.93463,4.07469 -8.14861,5.49653 -0.67431,0.29831 -1.27699,0.54209 -1.33929,0.54174 -0.0623,-3.6e-4 1.21262,-0.8764 2.83316,-1.94677 3.14716,-2.07871 4.11604,-2.82457 5.54675,-4.26992 2.29239,-2.31585 3.59548,-4.32549 4.48271,-6.91328 0.87007,-2.53774 0.72514,-3.8804 -0.73184,-6.7801 -1.22647,-2.44093 -2.11524,-3.73989 -3.62633,-5.29995 -1.18733,-1.22582 -2.03395,-1.93303 -3.43093,-2.86594 -3.85467,-2.57418 -9.04542,-4.13571 -15.63322,-4.70292 -1.64948,-0.14202 -6.78142,-0.14192 -8.52678,1.8e-4 -5.74024,0.46731 -10.39107,1.59899 -14.33036,3.48698 -5.54927,2.65961 -8.88337,6.39825 -9.87017,11.06775 -0.3806,1.80099 -0.31299,4.55703 0.15129,6.16746 0.49916,1.7314 1.18482,2.77787 3.01636,4.60367 1.57413,1.5692 2.40472,2.2538 4.11323,3.39025 2.4279,1.61497 5.24275,3.04056 7.54465,3.821 0.3683,0.12487 2.47767,0.71611 4.6875,1.31387 3.23696,0.87561 4.06084,1.12871 4.23904,1.30225 l 0.22118,0.2154 -0.4444,-0.0122 c -0.24442,-0.007 -0.54484,-0.0271 -0.66761,-0.0453 z"
       id="path4174"
       inkscape:connector-curvature="0" />
    <path
       style="fill:#ff2a2a;fill-opacity:1"
       d="m 372.04813,348.77819 c -0.0712,-1.54876 -0.008,-4.83918 0.11704,-6.09249 0.2436,-2.44169 0.50503,-3.75366 1.3698,-6.87435 0.37897,-1.36758 0.6788,-2.49676 0.66628,-2.50928 -0.0278,-0.0278 -13.7421,0.82369 -15.41772,0.95728 -6.20535,0.49472 -13.76071,1.49432 -19.60328,2.59359 -1.25192,0.23554 -13.03352,2.83607 -13.2003,2.91367 -0.0822,0.0382 0.27277,0.77193 2.00512,4.14436 1.15775,2.25384 2.09379,4.1091 2.08009,4.12279 -0.0137,0.0137 -0.13009,-0.1632 -0.25867,-0.39311 -0.37981,-0.67918 -1.92401,-2.96 -2.64808,-3.9113 -0.76596,-1.00634 -1.81912,-2.28136 -2.52609,-3.05826 -0.26574,-0.29202 -0.46071,-0.55185 -0.43327,-0.57741 0.18812,-0.17521 6.85904,-2.01597 10.16525,-2.80498 12.91086,-3.08112 25.17224,-4.63189 38.51035,-4.87064 l 2.41123,-0.0432 -0.25171,0.6255 c -1.12459,2.79451 -1.98604,5.94257 -2.4518,8.95978 -0.28648,1.85577 -0.39631,3.27958 -0.43828,5.68158 l -0.0408,2.33598 -0.0551,-1.19955 z"
       id="path4176"
       inkscape:connector-curvature="0" />
    <path
       style="fill:#ff2a2a;fill-opacity:1"
       d="m 258.81023,817.55192 c 0.95111,-2.29935 1.51793,-4.57741 1.76373,-7.08848 0.0729,-0.74454 0.0733,-3.08797 6.3e-4,-3.81696 -0.30479,-3.0589 -0.98028,-5.43687 -2.28265,-8.03572 -1.56024,-3.1134 -3.78196,-6.10024 -6.74265,-9.06466 -2.43699,-2.44007 -4.97217,-4.45944 -7.81545,-6.22532 -1.5311,-0.95093 -1.99151,-1.19077 -6.86779,-3.57771 l -4.13451,-2.02384 -0.0139,-0.15691 c -0.008,-0.0863 -0.005,-0.15691 0.006,-0.15691 0.10946,0 2.71386,0.97219 3.81335,1.42348 1.82195,0.74782 4.27573,1.91945 5.81495,2.7765 6.3335,3.52658 11.26281,7.87897 14.53208,12.83127 2.61382,3.95941 4.01962,7.87375 4.44918,12.38839 0.0686,0.72064 0.0686,3.20793 0,3.92857 -0.23502,2.47002 -0.76909,4.79066 -1.58221,6.875 l -0.14803,0.37947 -0.49598,0.0126 -0.49599,0.0126 0.1991,-0.48133 z"
       id="path4178"
       inkscape:connector-curvature="0" />
    <path
       style="fill:#ff2a2a;fill-opacity:1"
       d="m 161.41538,798.48662 -8e-4,-1.17324 0.32033,-0.59015 c 4.37722,-8.06411 12.96098,-14.7604 24.12163,-18.81758 2.39966,-0.87234 5.39744,-1.75019 7.8743,-2.30587 0.56035,-0.12571 0.58552,-0.12914 0.58552,-0.0799 0,0.0681 -0.54332,0.6339 -0.8205,0.85446 l -0.2842,0.22614 -2.18202,0.60628 c -2.59195,0.72017 -3.07473,0.86294 -4.19096,1.23944 -8.5615,2.8877 -16.95407,8.52408 -21.58299,14.49493 -1.3409,1.72963 -2.57678,3.83461 -3.53097,6.01405 l -0.30853,0.7047 -8.1e-4,-1.17325 z"
       id="path4180"
       inkscape:connector-curvature="0" />
    <path
       style="fill:#ff2a2a;fill-opacity:1"
       d="m 195.34841,771.22237 c -0.006,-1.59696 0.0757,-7.20526 0.12861,-8.83928 0.0778,-2.40476 0.18721,-4.36909 0.36356,-6.52902 l 0.0519,-0.63616 0.64049,0 c 0.40016,0 0.64049,0.0169 0.64049,0.045 0,0.0247 -0.06,0.54202 -0.13337,1.14955 -0.0734,0.60753 -0.20295,1.72737 -0.28798,2.48853 -0.1623,1.45281 -0.20104,1.82188 -0.93961,8.9509 l -0.46019,4.44196 -0.004,-1.07143 z"
       id="path4182"
       inkscape:connector-curvature="0" />
    <path
       style="fill:#ff2a2a;fill-opacity:1"
       d="m 232.69589,770.61969 c -0.0172,-2.63951 -0.0313,-7.18471 -0.0313,-10.10044 l -2e-5,-5.30134 0.24157,0 0.24157,0 0.0165,7.28794 c 0.0168,7.39222 0.005,8.38872 -0.12104,9.9442 -0.0598,0.73945 -0.2637,2.68915 -0.30353,2.90179 -0.007,0.0368 -0.0266,-2.09264 -0.0438,-4.73215 z"
       id="path4184"
       inkscape:connector-curvature="0" />
    <path
       style="fill:#ff2a2a;fill-opacity:1"
       d="m 196.17371,753.6135 c 0.33294,-2.8687 2.5359,-12.25784 2.81139,-11.98235 0.0536,0.0536 -0.23959,2.3015 -0.6516,4.99528 -0.41201,2.69377 -0.81851,5.46597 -0.90335,6.16045 -0.2651,2.17022 -0.3523,2.39912 -0.91389,2.39912 -0.49505,0 -0.51463,-0.0899 -0.34255,-1.5725 z"
       id="path4186"
       inkscape:connector-curvature="0" />
    <path
       style="fill:#ff2a2a;fill-opacity:1"
       d="m 207.53127,842.90077 c -15.9861,-0.77017 -30.73711,-6.54212 -39.52221,-15.46471 -8.55265,-8.6865 -10.57816,-19.189 -5.67508,-29.42598 1.29106,-2.69557 2.79636,-4.84218 5.03902,-7.18584 5.87129,-6.13568 13.39847,-10.53364 22.51219,-13.15337 3.49269,-1.00396 4.3373,-1.47349 5.01331,-2.7869 0.56511,-1.09795 0.67165,-2.54237 0.75731,-10.26765 0.0909,-8.20201 0.18852,-9.17779 0.91775,-9.17779 0.42021,0 0.45733,0.16613 0.35265,1.57837 -0.0643,0.8681 0.16435,-0.4672 0.50821,-2.96733 1.63262,-11.87041 6.42953,-37.11324 7.98071,-41.99698 4.21313,-13.26459 18.12542,-30.37749 44.54134,-54.78832 l 5.80716,-5.36637 59.81664,0 c 48.29228,0 59.79289,0.0619 59.6934,0.32113 -0.0678,0.17663 -0.32041,1.20741 -0.5614,2.29063 -0.67269,3.02364 -0.44437,7.67584 0.51603,10.51416 1.88606,5.57397 6.18365,9.20142 10.38731,8.76757 7.20228,-0.74335 11.87453,-10.6446 9.47289,-20.07459 l -0.46935,-1.84291 8.86028,0.13324 c 4.87315,0.0733 9.42848,0.12925 10.12296,0.12437 0.69448,-0.005 14.72929,-0.0565 31.18846,-0.11469 l 29.92577,-0.10582 -0.68465,0.56166 c -2.49096,2.04353 -12.72045,8.09423 -19.5184,11.54505 -19.72504,10.01296 -40.24288,15.89522 -63.13453,18.10003 -6.69144,0.64448 -23.93346,0.64422 -30.55712,-5.1e-4 -17.98148,-1.7501 -33.82017,-5.5314 -49.87628,-11.90733 -8.60992,-3.41903 -15.80778,-6.94849 -25.31396,-12.41265 -5.86067,-3.36872 -9.18873,-5.08484 -10.28693,-5.30448 -0.71555,-0.14311 -1.00262,0.086 -4.51505,3.60363 -3.48899,3.49414 -7.84651,8.44184 -13.30496,15.10695 -13.25997,16.19129 -16.41416,22.54383 -18.69013,37.64191 -0.99222,6.58211 -2.34403,13.94349 -3.31035,18.02681 -2.65281,11.20975 -2.84151,13.86493 -2.55063,35.89008 0.0523,3.95854 0.026,5.71999 -0.0583,3.91434 -0.12051,-2.57978 -0.16394,-1.74133 -0.20274,3.91434 l -0.0494,7.19734 5.61678,2.83314 c 6.33558,3.19569 9.18445,5.1543 13.01499,8.94784 4.8678,4.82078 7.54241,9.25995 8.8021,14.60925 l 0.32708,1.38896 -0.13514,-1.20181 c -0.67176,-5.9738 -6.49186,-14.01114 -14.14682,-19.5362 -1.23498,-0.89137 -4.46144,-2.75008 -7.16991,-4.13048 -4.92582,-2.51049 -5.80636,-3.10917 -2.75832,-1.87538 6.45448,2.61266 13.02252,6.96375 17.11364,11.33717 3.27229,3.49809 6.0548,8.33203 7.1366,12.39816 0.64914,2.43986 0.92034,7.84435 0.50581,10.07961 -0.47552,2.56417 -1.33614,5.17703 -1.70519,5.17703 -0.42679,0 -0.43698,0.10252 0.16305,-1.64149 0.27779,-0.80742 0.49662,-1.59229 0.48628,-1.74417 -0.0103,-0.15188 -0.27801,0.46253 -0.59483,1.36536 -2.95657,8.42523 -10.10101,15.65563 -20.47331,20.71961 -7.64183,3.73092 -15.50873,5.74233 -24.62817,6.29693 -2.28864,0.13918 -4.38846,0.23259 -4.66625,0.20757 -0.27779,-0.025 -1.18693,-0.0783 -2.02031,-0.11849 z m 52.88157,-30.74638 c 0.0383,-1.12023 -0.14442,-0.68399 -0.30848,0.73657 -0.0984,0.85154 -0.076,1.05711 0.0687,0.63135 0.11802,-0.34724 0.22591,-0.96281 0.23975,-1.36792 z m 0.2118,-5.13494 c -0.0501,-0.79865 -0.0911,-0.14521 -0.0911,1.45209 0,1.59731 0.041,2.25075 0.0911,1.4521 0.0501,-0.79865 0.0501,-2.10554 0,-2.90419 z M 196.2328,764.40364 c -0.009,-0.87299 -0.0367,-0.82155 -0.20259,0.37881 -0.10561,0.76392 -0.18725,1.84352 -0.18143,2.39911 0.009,0.87299 0.0367,0.82155 0.20259,-0.37881 0.1056,-0.76393 0.18725,-1.84353 0.18143,-2.39911 z m 0.24174,-2.83758 c -0.058,-0.38388 -0.10709,-0.12975 -0.10898,0.56473 -0.002,0.69448 0.0456,1.00856 0.10554,0.69796 0.0599,-0.31061 0.0615,-0.87882 0.003,-1.26269 l 1e-5,0 z m 0.24955,-2.40259 c -0.0602,-0.31251 -0.10944,-0.0568 -0.10944,0.56821 0,0.62503 0.0493,0.88073 0.10944,0.56821 0.0602,-0.31251 0.0602,-0.8239 0,-1.13642 z"
       id="path4190"
       inkscape:connector-curvature="0" />
    <path
       style="fill:#ff2a2a;fill-opacity:1"
       d="m 183.18581,838.63843 c -5.45426,-2.30164 -9.92094,-5.02901 -13.88393,-8.47759 -0.76545,-0.6661 -2.73897,-2.62833 -3.37659,-3.35728 -1.98799,-2.27275 -3.44917,-4.42574 -4.63561,-6.83035 -0.59743,-1.21084 -0.92377,-1.98046 -1.30615,-3.08036 -0.63337,-1.82184 -1.04209,-3.63256 -1.26969,-5.625 -0.1175,-1.02854 -0.1175,-3.92682 0,-4.95536 0.33591,-2.94058 1.09713,-5.61427 2.35734,-8.27987 l 0.28428,-0.6013 0.0223,1.13701 0.0223,1.13702 -0.23608,0.625 c -0.33817,0.89527 -0.65278,1.91895 -0.90553,2.94643 -1.25182,5.0888 -0.82179,10.12798 1.28958,15.1116 1.97232,4.65542 5.67463,9.19366 10.52167,12.89732 3.87442,2.96048 8.51181,5.45513 13.79464,7.42073 l 0.9375,0.34882 -1.31696,-10e-4 -1.31696,-10e-4 -0.98215,-0.41445 z"
       id="path4192"
       inkscape:connector-curvature="0" />
    <path
       style="fill:#ff2a2a;fill-opacity:1"
       d=""
       id="path4194"
       inkscape:connector-curvature="0" />
    <path
       style="fill:#ff2a2a;fill-opacity:1"
       d="m 205.56016,843.62995 c -6.86341,-0.43158 -13.39691,-1.73821 -19.45713,-3.89121 -0.76509,-0.27181 -1.45135,-0.52926 -1.52501,-0.5721 -0.0811,-0.0472 0.34325,-0.079 1.07621,-0.0806 1.15588,-0.003 1.25195,0.0115 2.14286,0.31486 4.55834,1.55208 10.61326,2.84756 15.79879,3.38023 3.58221,0.36797 9.15979,0.4122 12.63393,0.10017 8.55322,-0.7682 16.66526,-3.04619 23.66071,-6.64431 8.48757,-4.36558 14.82152,-10.30099 18.18638,-17.04206 0.52157,-1.0449 0.55831,-1.09381 0.82265,-1.09497 0.15218,-6.7e-4 0.36659,-0.0253 0.47646,-0.0548 0.18755,-0.0503 0.1941,-0.0372 0.10693,0.2128 -0.18529,0.53153 -1.31959,2.76831 -1.89048,3.72793 -0.72358,1.21628 -1.8254,2.76168 -2.87518,4.03271 -0.98179,1.18871 -3.44566,3.65952 -4.64819,4.66128 -8.67925,7.23022 -20.42707,11.66687 -33.97321,12.83022 -1.95706,0.16808 -8.57201,0.24331 -10.53572,0.11983 z"
       id="path4196"
       inkscape:connector-curvature="0" />
    <path
       style="fill:#ff2a2a;fill-opacity:1"
       d="m 232.95741,749.37765 c 0.0452,-5.64697 0.0958,-6.83782 0.42533,-10.02233 0.39557,-3.82245 0.78955,-6.13014 1.64628,-9.64285 1.65378,-6.78067 2.52941,-11.34625 3.61399,-18.84357 1.05089,-7.26446 1.89381,-11.0863 3.37627,-15.30822 0.51034,-1.45339 1.36395,-3.55201 1.4214,-3.49455 0.0218,0.0217 -0.22637,0.85709 -0.55137,1.85633 -1.17049,3.59878 -2.52147,8.59937 -2.94099,10.88598 -0.24824,1.35302 -0.51271,3.5816 -0.71971,6.06474 -0.60249,7.22716 -0.74114,7.9579 -3.02407,15.9375 -1.30298,4.55437 -1.82078,6.65669 -2.10014,8.52679 -0.59143,3.9592 -0.81752,7.85295 -0.96041,16.54018 -0.0345,2.09645 -0.0863,3.28125 -0.14343,3.28125 -0.0593,0 -0.0739,-1.94807 -0.0431,-5.78125 z"
       id="path4200"
       inkscape:connector-curvature="0" />
    <path
       style="fill:#ff2a2a;fill-opacity:1"
       d="m 201.28304,729.89104 c 0.0235,-0.27009 0.16337,-1.91741 0.31093,-3.66072 0.14755,-1.7433 0.30788,-3.46205 0.3563,-3.81944 0.23436,-1.73009 0.81916,-4.06534 2.35634,-9.40947 0.61213,-2.12812 1.25551,-4.43612 1.42974,-5.12889 0.34147,-1.35777 0.62009,-2.07127 1.46057,-3.74041 0.98656,-1.95922 2.22154,-3.83927 3.63635,-5.53571 0.85478,-1.02493 3.99127,-4.43213 4.03747,-4.38593 0.0214,0.0214 -0.21754,0.39422 -0.53098,0.82849 -4.03795,5.59466 -7.04968,11.10874 -8.79478,16.10208 -0.84141,2.40759 -0.94459,2.86288 -3.7734,16.65178 -0.29216,1.42411 -0.512,2.36831 -0.48854,2.09822 z"
       id="path4202"
       inkscape:connector-curvature="0" />
    <path
       style="fill:#ff2a2a;fill-opacity:1"
       d="m 218.73583,689.12588 c 0,-0.10291 0.61155,-0.93978 2.31171,-3.16341 4.81945,-6.30335 7.92351,-10.00489 11.25972,-13.42707 2.02789,-2.08014 3.43018,-3.36444 7.32143,-6.70538 4.09575,-3.51652 5.56455,-4.8247 7.08529,-6.31047 1.05189,-1.02769 1.20572,-1.14635 1.486,-1.14616 l 0.31263,2.1e-4 -0.98172,0.91497 c -4.58324,4.27158 -8.86604,8.44121 -13.92899,13.56088 -5.43763,5.49854 -9.78985,10.26484 -13.78785,15.09962 -0.97253,1.17608 -1.07822,1.29144 -1.07822,1.17681 z"
       id="path4204"
       inkscape:connector-curvature="0" />
    <path
       style="fill:#ff2a2a;fill-opacity:1"
       d="m 369.50438,683.64341 c -29.80204,-1.10344 -57.99474,-9.37279 -83.48214,-24.48661 -2.87262,-1.70343 -9.4342,-5.92408 -9.34637,-6.01191 0.12313,-0.12314 2.67639,1.23423 7.11422,3.78206 7.80541,4.48121 10.73974,6.0653 15.3125,8.26641 14.95435,7.19832 30.2286,12.15028 46.29465,15.00886 19.65904,3.49787 39.43901,3.6183 59.28571,0.36097 2.08944,-0.34293 8.37828,-1.54823 8.86161,-1.69839 0.13285,-0.0413 0.15625,0.0116 0.15625,0.35324 0,0.30485 -0.0377,0.41336 -0.15625,0.44976 -0.4136,0.12698 -6.20329,1.25121 -8.05804,1.56468 -8.01472,1.3546 -15.67117,2.13181 -23.79464,2.4154 -2.89872,0.1012 -9.39798,0.0988 -12.1875,-0.004 z"
       id="path4206"
       inkscape:connector-curvature="0" />
    <path
       style="fill:#ff2a2a;fill-opacity:1"
       d="m 248.25438,683.5955 c 0,-0.0988 2.58055,-3.66938 3.81643,-5.28064 5.10066,-6.64989 13.99209,-17.22109 17.65678,-20.99251 1.31317,-1.35142 4.69843,-4.55384 4.98798,-4.71858 0.23172,-0.13184 0.4146,-0.14003 0.59238,-0.0265 0.10866,0.0694 0.0413,0.16596 -0.35702,0.51202 -2.41024,2.09393 -6.483,6.11536 -8.84184,8.73041 -3.06958,3.403 -6.5823,7.70438 -8.74956,10.71397 -1.19849,1.66431 -2.47989,3.25712 -5.316,6.60794 -1.37198,1.62098 -2.7722,3.29843 -3.1116,3.72768 -0.59761,0.75582 -0.67755,0.8415 -0.67755,0.72624 z"
       id="path4208"
       inkscape:connector-curvature="0" />
    <path
       style="fill:#ff2a2a;fill-opacity:1"
       d="m 247.57851,658.63052 c 0,-0.0149 0.12556,-0.16075 0.27902,-0.32405 0.15346,-0.16331 0.83359,-0.93919 1.5114,-1.72418 2.49398,-2.88837 3.06067,-3.43057 5.13064,-4.90886 1.38899,-0.99197 3.7116,-2.76697 6.44267,-4.92367 0.75742,-0.59813 1.38405,-1.08059 1.39251,-1.07213 0.008,0.008 -2.40925,2.23705 -5.37267,4.95242 -2.96342,2.71538 -6.06696,5.5642 -6.89677,6.33071 l -1.50874,1.39366 -0.28458,0.007 c -0.2421,0.006 -0.31511,0.029 -0.48903,0.15161 -0.11245,0.0793 -0.20445,0.13196 -0.20445,0.11704 z"
       id="path4210"
       inkscape:connector-curvature="0" />
    <path
       style="fill:#ff2a2a;fill-opacity:1"
       d="m 263.40157,643.18969 c -4.79137,-4.04083 -8.02486,-6.99487 -11.91798,-10.88799 -4.90133,-4.90133 -9.19681,-9.72486 -13.65459,-15.33316 l -0.7097,-0.89286 0.62792,-0.0124 c 0.34536,-0.007 0.65125,-0.003 0.67976,0.007 0.0285,0.0109 0.33604,0.3824 0.68339,0.82545 2.41057,3.07479 5.38835,6.59719 8.08039,9.55824 2.19027,2.40915 3.84372,4.10447 12.36588,12.67896 2.53819,2.55378 4.59734,4.64249 4.57589,4.64158 -0.0214,-9.1e-4 -0.35038,-0.26427 -0.73096,-0.58523 z"
       id="path4212"
       inkscape:connector-curvature="0" />
    <path
       style="fill:#ff2a2a;fill-opacity:1"
       d="m 510.62821,669.09637 c -0.0329,-0.0414 -0.1446,-0.18332 -0.24824,-0.31529 -3.85881,-4.91377 -8.18339,-10.11111 -12.16452,-14.6195 -0.29491,-0.33398 -0.55292,-0.62653 -0.57335,-0.65011 l -0.0371,-0.0429 0.32174,7.6e-4 0.32174,7.5e-4 0.23995,0.26887 c 0.13198,0.14788 0.35513,0.3974 0.4959,0.55449 3.86404,4.31202 7.46441,8.55062 10.70875,12.60705 0.76441,0.95575 1.78643,2.25162 1.78643,2.26511 0,0.003 -0.17808,0.006 -0.39573,0.006 l -0.39573,0 -0.0598,-0.0753 z"
       id="path4214"
       inkscape:connector-curvature="0" />
    <path
       style="fill:#ff2a2a;fill-opacity:1"
       d="m 532.10997,370.0232 c 0,-0.0495 0.84163,-1.21072 1.87029,-2.58057 7.42992,-9.8943 17.2223,-24.49694 21.04862,-31.38822 1.99408,-3.59138 4.35679,-8.82981 5.56091,-12.32927 2.49433,-7.24909 3.62704,-15.22817 4.22135,-29.73636 0.074,-1.80565 0.16671,-3.75177 0.20611,-4.32472 l 0.0716,-1.04172 0.62001,0 c 0.61586,0 0.61999,0.003 0.61734,0.41038 -0.008,1.23476 -0.41727,5.41784 -0.75003,7.66617 -0.35793,2.41843 -0.38646,2.88616 -0.44573,7.30606 -0.0705,5.25594 -0.18755,6.94926 -0.63498,9.1841 -0.30082,1.50255 -0.99959,3.71938 -1.45182,4.60581 -0.12773,0.25038 -0.43897,1.18994 -0.69164,2.08791 -1.23326,4.38296 -2.7201,8.41844 -4.68193,12.70734 -2.46108,5.38033 -3.23969,6.73577 -6.45877,11.24359 -2.58252,3.61641 -3.71005,5.3236 -4.64917,7.03929 -2.00498,3.66291 -3.44527,5.81997 -5.73317,8.5863 -0.60309,0.7292 -1.31088,1.72357 -1.57287,2.20971 -0.61236,1.13629 -1.5313,2.33427 -3.00281,3.91466 -0.64681,0.69465 -1.66652,1.83107 -2.26604,2.52538 -1.12796,1.30629 -1.87729,2.07034 -1.87729,1.91416 z"
       id="path4216"
       inkscape:connector-curvature="0" />
    <path
       style="fill:#ff2a2a;fill-opacity:1"
       d="m 519.48306,370.87324 c 0,-0.0421 0.1612,-0.28358 0.35823,-0.53664 0.19702,-0.25306 0.60468,-0.82945 0.90591,-1.28086 0.30123,-0.45141 1.40832,-1.98558 2.46021,-3.40927 2.36766,-3.20454 3.27277,-4.54886 4.17509,-6.20114 1.29196,-2.36574 3.01442,-4.97709 6.34501,-9.61941 0.60467,-0.84281 0.65409,-0.64607 0.0788,0.31362 -3.66004,6.10541 -8.20689,12.84032 -12.7067,18.8215 -1.38903,1.84632 -1.61653,2.11542 -1.61653,1.9122 z"
       id="path4218"
       inkscape:connector-curvature="0" />
    <path
       style="fill:#ff2a2a;fill-opacity:1"
       d="m 505.84607,387.53311 c 9e-5,-0.12472 0.73047,-1.3081 1.48561,-2.40702 0.87028,-1.26647 2.45306,-3.20444 4.82212,-5.90426 1.21948,-1.38974 2.37777,-2.72569 2.57397,-2.96875 0.73447,-0.90992 4.68882,-5.2856 4.73496,-5.23946 0.0921,0.0921 -4.1957,5.44725 -10.60894,13.24991 -2.44187,2.97092 -3.00793,3.58625 -3.00772,3.26958 z"
       id="path4220"
       inkscape:connector-curvature="0" />
    <path
       style="fill:#ff2a2a;fill-opacity:1"
       d="m 512.7908,398.16268 c 0,-0.18353 4.11803,-6.98171 6.34967,-10.48225 1.44729,-2.27021 4.53795,-6.76901 4.60455,-6.70241 0.17811,0.17811 -3.54048,6.8833 -5.33737,9.62406 -1.1615,1.77162 -5.44991,7.74808 -5.55963,7.74808 -0.0315,0 -0.0572,-0.0844 -0.0572,-0.18748 z"
       id="path4224"
       inkscape:connector-curvature="0" />
    <path
       style="fill:#ff2a2a;fill-opacity:1"
       d="m 546.09444,318.58275 c 0.016,-0.26043 0.0603,-0.94229 0.0984,-1.51523 0.0381,-0.57295 0.0775,-2.68953 0.0876,-4.70353 0.0112,-2.24164 0.0466,-3.90665 0.0913,-4.29314 0.11698,-1.01134 0.25045,-1.98312 0.48391,-3.52324 0.53277,-3.51458 0.74175,-6.60039 0.82498,-12.18142 l 0.0421,-2.82533 0.14756,0 c 0.0985,0 0.14749,0.0367 0.14734,0.11049 -5.3e-4,0.2573 -0.32292,8.75973 -0.41115,10.84335 -0.2419,5.71263 -0.49939,9.96452 -0.79334,13.10042 -0.11405,1.2167 -0.52941,4.32802 -0.68692,5.14546 -0.0564,0.29255 -0.0587,0.28099 -0.0318,-0.15783 z"
       id="path4226"
       inkscape:connector-curvature="0" />
    <path
       style="fill:#ff2a2a;fill-opacity:1"
       d="m 537.30512,343.82078 c 0.0185,-0.0434 0.56431,-1.20114 1.21286,-2.57274 0.64856,-1.37159 1.34651,-2.85726 1.55101,-3.30147 0.96419,-2.09436 2.0423,-5.1061 3.23653,-9.04133 0.32666,-1.07644 0.8521,-2.71005 1.16763,-3.63023 0.31553,-0.92019 0.70063,-2.12764 0.85578,-2.68322 0.15515,-0.55558 0.28383,-0.96525 0.28594,-0.91036 0.007,0.18111 -0.43597,2.28341 -0.66405,3.15161 -1.0721,4.0811 -2.59857,8.39863 -4.41962,12.50066 -0.70352,1.58471 -3.14556,6.56599 -3.21894,6.56599 -0.0224,0 -0.0257,-0.0355 -0.007,-0.0789 z"
       id="path4228"
       inkscape:connector-curvature="0" />
    <path
       style="fill:#ff2a2a;fill-opacity:1"
       d="m 563.4674,316.79333 c 0,-0.002 0.011,-0.0329 0.0244,-0.0691 0.2293,-0.61691 0.54043,-1.62728 0.752,-2.44209 0.32912,-1.26751 0.55212,-2.59766 0.67128,-4.00409 0.088,-1.03816 0.1507,-2.46176 0.18173,-4.12347 0.002,-0.13022 0.007,-0.28736 0.009,-0.34922 l 0.005,-0.11245 0.0347,0 0.0347,0 -3e-5,0.073 c -9e-5,0.22474 -0.0239,1.28198 -0.0397,1.76579 -0.0428,1.30653 -0.12198,2.60646 -0.19778,3.24748 -0.26655,2.25412 -0.70725,4.16378 -1.34996,5.84981 l -0.0639,0.1677 -0.0305,0 c -0.0168,0 -0.0305,-0.002 -0.0305,-0.003 z"
       id="path4230"
       inkscape:connector-curvature="0" />
    <path
       style="fill:#ff2a2a;fill-opacity:1"
       d="m 562.48977,316.69218 c 0.0123,-0.0575 0.0613,-0.29634 0.10884,-0.53073 0.53696,-2.64644 0.96151,-5.57906 1.30244,-8.99667 0.0432,-0.43285 0.12048,-1.24734 0.13108,-1.38107 0.007,-0.0845 0.009,-0.0907 0.0315,-0.0907 0.019,0 0.0197,0.002 0.0154,0.0375 -0.002,0.0206 -0.0168,0.17244 -0.032,0.33738 -0.35894,3.91018 -0.86489,7.44301 -1.50627,10.5176 -0.0461,0.22112 -0.0434,0.21132 -0.0596,0.21132 -0.0127,0 -0.012,-0.008 0.009,-0.10456 z"
       id="path4232"
       inkscape:connector-curvature="0" />
    <path
       style="fill:#ff2a2a;fill-opacity:1"
       d="m 565.00896,288.98988 c -0.0231,-0.26833 0.28599,-8.10673 0.46547,-11.80615 0.27991,-5.76952 0.69897,-10.66272 1.03468,-12.08168 0.0743,-0.31381 0.0784,16.28989 0.005,19.15274 -0.0786,3.05798 -0.14151,4.69176 -0.1762,4.57726 -0.0594,-0.19605 -0.22687,-0.25254 -0.74866,-0.25254 l -0.52094,0 -0.0242,0.26832 c -0.0133,0.14758 -0.029,0.2115 -0.035,0.14205 z"
       id="path4234"
       inkscape:connector-curvature="0" />
    <path
       style="fill:#ff2a2a;fill-opacity:1"
       d="m 547.71837,279.54379 -0.0121,-9.98273 0.26149,0.0418 c 0.14382,0.023 0.29649,0.0709 0.33926,0.10636 0.16061,0.1333 0.3551,1.19136 0.34687,1.88709 -0.01,0.82725 -0.55808,16.25043 -0.61217,17.21994 -0.0375,0.67256 -0.0468,0.71027 -0.17546,0.71027 l -0.13582,-1e-5 -0.0121,-9.98273 z"
       id="path4236"
       inkscape:connector-curvature="0" />
    <path
       style="fill:#ff2a2a;fill-opacity:1"
       d="m 544.22648,269.40873 c -0.12153,-0.0114 -0.5761,-0.0507 -1.01015,-0.0873 -5.06264,-0.42671 -10.29382,-2.19839 -14.1896,-4.80569 -5.17132,-3.46097 -8.29269,-8.12484 -8.89356,-13.28855 -0.12203,-1.04869 -0.0889,-3.0433 0.067,-4.03235 0.91853,-5.82796 5.13896,-11.03814 11.57655,-14.29139 3.39165,-1.71398 7.03838,-2.75693 11.21866,-3.20849 1.27286,-0.13749 5.31801,-0.15842 6.53442,-0.0338 2.85663,0.29265 5.12566,0.76837 7.57653,1.5885 8.02899,2.68671 13.77491,8.22069 15.31034,14.74563 0.23413,0.99496 0.34809,1.87378 0.38888,2.99889 0.1311,3.61649 -1.02289,7.13805 -3.3806,10.31638 -0.64167,0.86501 -2.09121,2.4936 -2.09121,2.34952 0,-0.0977 0.46214,-1.16063 0.64831,-1.49109 0.10759,-0.19098 0.41292,-0.67396 0.67852,-1.07329 1.55896,-2.34395 2.44114,-4.35373 2.92475,-6.66315 0.23465,-1.12055 0.3108,-1.89271 0.30797,-3.1227 -0.008,-3.57154 -1.32564,-7.01582 -3.80343,-9.94369 -0.57643,-0.68114 -2.04979,-2.11171 -2.72909,-2.64984 -3.25678,-2.57997 -7.33193,-4.37135 -11.91663,-5.23837 -2.47996,-0.46899 -3.78309,-0.57218 -7.19733,-0.5699 -2.92589,0.002 -3.59763,0.0363 -5.61898,0.28777 -6.92259,0.86107 -11.91648,3.54163 -15.92707,8.54915 -1.93392,2.41465 -3.12027,5.08788 -3.53029,7.95495 -0.12029,0.8411 -0.10217,2.87164 0.0335,3.7565 0.24967,1.62821 0.67935,2.98356 1.43107,4.51412 2.68978,5.47655 8.4694,9.68391 15.99998,11.64743 0.5231,0.13639 2.6131,0.59156 4.64445,1.01148 2.03136,0.41992 3.72178,0.77404 3.75651,0.78692 0.077,0.0286 -2.49941,0.0216 -2.80949,-0.008 z"
       id="path4238"
       inkscape:connector-curvature="0" />
  </g>
</svg>
